<svg width="40" height="58" viewBox="0 0 40 58" fill="none" xmlns="http://www.w3.org/2000/svg">
<path d="M26.8796 10.2785C27.0433 9.68449 27.1177 9.06082 27.1177 8.42231C27.1177 6.90769 26.6563 5.51187 25.8675 4.33878C24.5428 2.37869 22.2954 1.07196 19.7503 1.07196C17.3093 1.07196 15.1512 2.2599 13.8116 4.08635C12.9186 5.30398 12.3828 6.80375 12.3828 8.42231C12.3828 8.97173 12.4423 9.49145 12.5614 10.0112" stroke="#EF8621" stroke-width="1.7819" stroke-miterlimit="10" stroke-linecap="round" stroke-linejoin="round"/>
<path d="M24.6383 35.017H25.7695C32.5862 35.017 38.123 40.5409 38.123 47.3419V51.4699C38.123 52.5985 37.2746 53.5488 36.1434 53.6825L31.8271 54.1873C30.6513 54.321 29.4904 54.618 28.389 55.0783C25.5611 56.2514 22.5546 56.8453 19.5481 56.8453C16.5565 56.8453 13.5648 56.2662 10.7518 55.0931L10.722 55.0783C9.57599 54.6031 8.37041 54.2913 7.13506 54.1428L3.04204 53.6676C1.91087 53.5488 1.0625 52.5985 1.0625 51.4699V47.3419C1.0625 40.5409 6.59924 35.017 13.416 35.017H14.5472M14.5472 35.0172V32.1661M10.4988 18.6534L10.5732 20.7768L10.722 25.1722C10.8113 27.5629 11.8234 29.6863 13.4309 31.2306C13.7732 31.5722 14.1602 31.8692 14.5472 32.1513C15.976 33.1462 17.7174 33.7253 19.5927 33.7253C21.4681 33.7253 23.2095 33.1462 24.6383 32.1513C26.6327 30.7852 28.0318 28.6172 28.3741 26.1077C28.4188 25.7958 28.4485 25.4989 28.4634 25.1722L28.6123 20.7768L28.6867 18.6534" stroke="#015AAB" stroke-width="1.7819" stroke-miterlimit="10" stroke-linecap="round" stroke-linejoin="round"/>
<path d="M11.1172 35.2251C11.1767 35.8339 11.4595 36.4427 11.8911 37.0515C15.2251 41.6696 23.9618 41.6696 27.2809 37.0515C27.7125 36.4575 27.9953 35.8339 28.0549 35.2251M24.6316 35.0172V32.1661" stroke="#015AAB" stroke-width="1.7819" stroke-miterlimit="10" stroke-linecap="round" stroke-linejoin="round"/>
<path d="M19.584 44.877V44.8919M19.584 52.7471V52.7619M29.3478 16.6933V18.6534H25.5078L23.8854 13.8274L20.4771 18.6534H9.82031V16.6933C9.8352 12.3276 12.6482 8.73411 16.8305 7.48677C17.6789 7.23434 18.6017 7.08585 19.584 7.08585C20.5664 7.08585 21.4892 7.23434 22.3375 7.48677C26.5347 8.73411 29.3478 12.3276 29.3478 16.6933Z" stroke="#EF8621" stroke-width="1.7819" stroke-miterlimit="10" stroke-linecap="round" stroke-linejoin="round"/>
<path d="M10.7159 25.187V26.2116C10.7159 27.5183 9.64429 28.5875 8.33452 28.5875C7.02475 28.5875 5.95312 27.5183 5.95312 26.2116V21.6232C5.95312 20.9698 6.22103 20.3759 6.65266 19.9452C7.08429 19.5146 7.67964 19.2473 8.33452 19.2473C9.34661 19.2473 10.2248 19.8858 10.5671 20.7916M28.4573 25.187V26.2116C28.4573 27.5183 29.5289 28.5875 30.8387 28.5875C32.1485 28.5875 33.2201 27.5183 33.2201 26.2116V21.6232C33.2201 20.3165 32.1485 19.2473 30.8387 19.2473C30.1838 19.2473 29.5885 19.5146 29.1568 19.9452C28.9187 20.1828 28.7401 20.4649 28.6061 20.7916" stroke="#015AAB" stroke-width="1.7819" stroke-miterlimit="10" stroke-linecap="round" stroke-linejoin="round"/>
<path d="M20.5913 28.8697H21.7076C22.169 28.8697 22.5411 28.4984 22.5411 28.0381C22.5411 27.5778 22.169 27.2065 21.7076 27.2065H20.5913C20.1299 27.2065 19.7578 27.5778 19.7578 28.0381C19.7578 28.4984 20.1299 28.8697 20.5913 28.8697Z" stroke="#EF8621" stroke-width="1.7819" stroke-miterlimit="10" stroke-linecap="round" stroke-linejoin="round"/>
<path d="M5.96875 25.8403V16.3813C5.96875 12.6393 7.50177 9.23886 9.97247 6.78874C12.4432 4.32378 15.8515 2.79431 19.5874 2.79431C27.0739 2.79431 33.206 8.91218 33.206 16.3813V25.8403" stroke="#015AAB" stroke-width="1.7819" stroke-miterlimit="10" stroke-linecap="round" stroke-linejoin="round"/>
<path d="M22.4585 28.0379L24.7655 27.6964C25.718 27.5628 26.6259 27.2212 27.4445 26.7015C29.4836 25.3948 33.2343 23.0783 33.2343 23.0783M19.5859 48.901V48.9307" stroke="#EF8621" stroke-width="1.7819" stroke-miterlimit="10" stroke-linecap="round" stroke-linejoin="round"/>
</svg>
