<svg width="13" height="16" viewBox="0 0 13 16" fill="none" xmlns="http://www.w3.org/2000/svg">
<path d="M6.50003 0.40686C6.9801 0.40692 7.2743 0.757887 7.46585 1.06018C7.66239 1.37038 7.86579 1.81702 8.10647 2.34729C8.41739 3.03224 8.69773 3.74306 9.05472 4.40588C9.24527 4.75967 9.5819 4.96167 9.99222 4.81604C10.2188 4.73563 10.4378 4.63234 10.6573 4.53479C11.096 4.33973 11.6601 4.00555 12.1582 4.14807C12.5772 4.26806 12.8757 4.6159 12.9737 5.02307C13.0332 5.27064 12.9808 5.52518 12.92 5.74377C12.8571 5.9697 12.7552 6.25301 12.6319 6.59436L11.5039 9.71643C11.2739 10.3531 11.0879 10.8673 10.8955 11.2662C10.5022 12.0817 9.88202 12.58 8.97366 12.6901C8.55978 12.7402 8.05175 12.7399 7.4346 12.7399H5.56546C4.9482 12.7399 4.44033 12.7402 4.0264 12.6901C3.11794 12.58 2.49785 12.0817 2.10452 11.2662C1.91217 10.8674 1.72616 10.3531 1.49612 9.71643L0.368193 6.59436C0.24481 6.25291 0.142009 5.96973 0.0791302 5.74377C0.0183088 5.52518 -0.0331287 5.27064 0.0263958 5.02307C0.124414 4.61585 0.422766 4.26799 0.841825 4.14807C1.34855 4.00309 1.9183 4.34632 2.36429 4.54456C2.65824 4.6752 2.85316 4.76114 3.00784 4.81604C3.41808 4.96155 3.75481 4.75962 3.94534 4.40588C4.30231 3.74306 4.58266 3.03223 4.89358 2.34729C5.13419 1.81719 5.33675 1.37038 5.53323 1.06018C5.7248 0.757861 6.01988 0.40686 6.50003 0.40686ZM6.49905 8.40686C5.94939 8.40704 5.50393 8.85468 5.50393 9.40686C5.50413 9.95887 5.94951 10.4067 6.49905 10.4069H6.50784C7.05754 10.4069 7.50374 9.95898 7.50393 9.40686C7.50393 8.85458 7.05766 8.40686 6.50784 8.40686H6.49905Z" fill="url(#paint0_linear_1962_4802)"/>
<path fill-rule="evenodd" clip-rule="evenodd" d="M2.5 14.4064C2.5 14.0382 2.79848 13.7397 3.16667 13.7397H9.83333C10.2015 13.7397 10.5 14.0382 10.5 14.4064C10.5 14.7746 10.2015 15.0731 9.83333 15.0731H3.16667C2.79848 15.0731 2.5 14.7746 2.5 14.4064Z" fill="url(#paint1_linear_1962_4802)"/>
<defs>
<linearGradient id="paint0_linear_1962_4802" x1="6.49992" y1="0.40686" x2="6.49992" y2="12.7399" gradientUnits="userSpaceOnUse">
<stop stop-color="#FFBE28"/>
<stop offset="1" stop-color="#F58720"/>
</linearGradient>
<linearGradient id="paint1_linear_1962_4802" x1="6.5" y1="13.7397" x2="6.5" y2="15.0731" gradientUnits="userSpaceOnUse">
<stop stop-color="#FFBE28"/>
<stop offset="1" stop-color="#F58720"/>
</linearGradient>
</defs>
</svg>
