<svg width="16" height="16" viewBox="0 0 16 16" fill="none" xmlns="http://www.w3.org/2000/svg">
<path d="M14.7504 14.44L10.2204 9.91C11.0481 8.9278 11.5015 7.68442 11.5004 6.4C11.5066 5.14648 11.0853 3.9283 10.3058 2.94654C9.52639 1.96479 8.4355 1.27815 7.21322 0.999977C5.99093 0.7218 4.71033 0.868713 3.5828 1.41646C2.45527 1.96422 1.54821 2.88006 1.01136 4.01282C0.474506 5.14558 0.339948 6.42754 0.629898 7.64709C0.919849 8.86663 1.61697 9.95085 2.6062 10.7208C3.59542 11.4907 4.81761 11.9003 6.07101 11.882C7.32442 11.8637 8.53411 11.4185 9.50041 10.62L14.0004 15.15C14.0967 15.24 14.2236 15.29 14.3554 15.29C14.4872 15.29 14.6141 15.24 14.7104 15.15C14.8082 15.0602 14.8671 14.9357 14.8746 14.8031C14.882 14.6705 14.8375 14.5403 14.7504 14.44ZM1.50041 6.4C1.50041 5.50998 1.76433 4.63996 2.25879 3.89994C2.75326 3.15991 3.45606 2.58314 4.27833 2.24254C5.1006 1.90195 6.0054 1.81283 6.87831 1.98647C7.75123 2.1601 8.55305 2.58868 9.18239 3.21802C9.81172 3.84736 10.2403 4.64918 10.4139 5.52209C10.5876 6.39501 10.4985 7.29981 10.1579 8.12208C9.81727 8.94434 9.24049 9.64715 8.50047 10.1416C7.76045 10.6361 6.89042 10.9 6.00041 10.9C4.80774 10.8974 3.66468 10.4224 2.82134 9.57906C1.978 8.73572 1.50305 7.59266 1.50041 6.4Z" fill="black" stroke="black" stroke-width="0.5"/>
</svg>
