<svg width="16" height="14" viewBox="0 0 16 14" fill="none" xmlns="http://www.w3.org/2000/svg">
<path d="M1.33325 2.99999L5.94193 5.61131C7.64098 6.574 8.35885 6.574 10.0579 5.61131L14.6666 2.99999" stroke="white" stroke-linejoin="round"/>
<path d="M1.34376 7.98373C1.38735 10.0274 1.40914 11.0493 2.16322 11.8062C2.91731 12.5632 3.96681 12.5895 6.0658 12.6423C7.35946 12.6748 8.64038 12.6748 9.93404 12.6423C12.033 12.5895 13.0825 12.5632 13.8366 11.8062C14.5907 11.0493 14.6125 10.0274 14.6561 7.98373C14.6701 7.32661 14.6701 6.67337 14.6561 6.01625C14.6125 3.97256 14.5907 2.95071 13.8366 2.19376C13.0825 1.4368 12.033 1.41043 9.93404 1.3577C8.64038 1.32519 7.35946 1.32519 6.0658 1.35769C3.9668 1.41043 2.91731 1.43679 2.16322 2.19375C1.40913 2.9507 1.38734 3.97255 1.34376 6.01624C1.32975 6.67336 1.32975 7.32661 1.34376 7.98373Z" stroke="white" stroke-linejoin="round"/>
</svg>
