<svg width="16" height="15" viewBox="0 0 16 15" fill="none" xmlns="http://www.w3.org/2000/svg">
<path d="M3.16025 8.57903L4.46234 7.65439C4.82964 7.39357 5.20203 7.21879 5.62689 7.10565C6.11467 6.97575 6.33333 6.70957 6.33333 6.14068C6.33333 4.69752 9.66667 4.54396 9.66667 6.14068C9.66667 6.70957 9.88533 6.97575 10.3731 7.10565C10.8014 7.21969 11.1733 7.39563 11.5377 7.65439L12.8397 8.57903C13.4289 8.99741 13.7031 9.19965 13.8561 9.52126C14 9.82385 14 10.1787 14 10.8883C14 12.1641 14 12.802 13.6428 13.2109C13.2101 13.7062 12.0853 13.6637 11.3944 13.6637H4.60555C3.91464 13.6637 2.81273 13.7324 2.3572 13.2109C2 12.802 2 12.1641 2 10.8883C2 10.1787 2 9.82385 2.1439 9.52126C2.29684 9.19965 2.57108 8.99741 3.16025 8.57903Z" stroke="white"/>
<path d="M9.33329 10.3333C9.33329 11.0697 8.73634 11.6667 7.99996 11.6667C7.26358 11.6667 6.66663 11.0697 6.66663 10.3333C6.66663 9.59695 7.26358 9 7.99996 9C8.73634 9 9.33329 9.59695 9.33329 10.3333Z" stroke="white"/>
<path d="M4.64001 1.46515C3.76105 1.7161 3.12915 2.02741 2.55089 2.40304C1.63537 2.99773 1.24287 4.06936 1.35063 5.10342C1.39618 5.54045 1.74701 5.74943 2.15384 5.63637C2.46293 5.55048 2.77251 5.46687 3.07966 5.37576C3.97796 5.10931 4.18924 4.78541 4.31408 3.8659L4.64001 1.46515ZM4.64001 1.46515C6.81231 0.84495 9.18753 0.84495 11.3598 1.46515M11.3598 1.46515C12.2388 1.7161 12.8707 2.02741 13.449 2.40304C14.3645 2.99773 14.757 4.06936 14.6492 5.10342C14.6037 5.54045 14.2528 5.74943 13.846 5.63637C13.5369 5.55048 13.2273 5.46687 12.9202 5.37576C12.0219 5.10931 11.8106 4.78541 11.6858 3.8659L11.3598 1.46515Z" stroke="white" stroke-linejoin="round"/>
</svg>
