<svg width="58" height="58" viewBox="0 0 58 58" fill="none" xmlns="http://www.w3.org/2000/svg">
<path d="M28.999 0.333008C44.8312 0.333008 57.666 13.1678 57.666 29C57.666 44.8322 44.8312 57.667 28.999 57.667C13.1669 57.667 0.332031 44.8322 0.332031 29C0.332031 13.1678 13.1669 0.333008 28.999 0.333008ZM42.0059 18.3877C41.2992 17.0956 39.6788 16.6207 38.3867 17.3271C33.5104 19.9939 29.4778 25.1406 26.7666 29.292C25.7646 30.8262 24.9086 32.2794 24.2236 33.5098C23.5849 32.89 22.9525 32.3517 22.3867 31.9043C21.6463 31.3189 20.9799 30.8573 20.4941 30.5391L19.6543 30.0176C18.375 29.288 16.7463 29.7335 16.0166 31.0127C15.2872 32.2917 15.7323 33.9195 17.0107 34.6494L17.5713 35C17.9521 35.2495 18.4863 35.6192 19.0791 36.0879C20.2993 37.0526 21.6158 38.3179 22.4443 39.7031C22.9529 40.5531 23.8909 41.0507 24.8799 40.9961C25.8687 40.9415 26.7462 40.3429 27.1582 39.4424L27.4199 38.8945C27.6004 38.5254 27.8708 37.986 28.2227 37.3213C28.928 35.9888 29.9542 34.1663 31.2324 32.209C33.8545 28.1939 37.2885 24.0068 40.9453 22.0068C42.2375 21.3002 42.7125 19.6798 42.0059 18.3877Z" fill="#27AE60"/>
</svg>
