<svg width="20" height="18" viewBox="0 0 20 18" fill="none" xmlns="http://www.w3.org/2000/svg">
<path d="M1.66669 16.5156H17.5" stroke="white" stroke-width="1.5" stroke-linecap="round" stroke-linejoin="round"/>
<path d="M2.5 16.515C3.75 14.015 4.58333 10.6816 4.58333 5.68164H10.4167C10.4167 10.6816 11.25 14.015 12.5 16.515" stroke="white" stroke-width="1.5" stroke-linecap="round" stroke-linejoin="round"/>
<path d="M16.1363 17.046C16.4292 17.3388 16.9041 17.3388 17.197 17.046C17.4899 16.7531 17.4899 16.2782 17.197 15.9853L16.1363 17.046ZM13.75 9.01562H14.5C14.5 8.60141 14.1642 8.26562 13.75 8.26562V9.01562ZM13.75 9.01562H13C13 12.5501 14.3306 15.2402 16.1363 17.046L16.6667 16.5156L17.197 15.9853C15.6694 14.4577 14.5 12.1478 14.5 9.01562H13.75ZM13.75 9.01562V8.26562H10V9.01562V9.76562H13.75V9.01562Z" fill="white"/>
<path d="M10 2.56975C10.9753 1.20558 12.2232 1.20558 13.1985 2.56975C13.7866 3.40685 14.5468 3.37585 15.1492 2.53875C16.1102 1.17458 17.358 1.17458 18.3333 2.53875" stroke="white" stroke-width="1.5" stroke-linecap="round"/>
</svg>
