<svg width="16" height="20" viewBox="0 0 16 20" fill="none" xmlns="http://www.w3.org/2000/svg">
<path d="M10.5 2.09863V3.34863C10.5 4.52714 10.5 5.1164 10.8661 5.48252C11.2322 5.84863 11.8215 5.84863 13 5.84863H14.25" stroke="white" stroke-width="1.5" stroke-linecap="round" stroke-linejoin="round"/>
<path d="M1.33331 13.3493V6.68262C1.33331 4.32559 1.33331 3.14708 2.06555 2.41485C2.79778 1.68262 3.97629 1.68262 6.33331 1.68262H9.80962C10.1502 1.68262 10.3206 1.68262 10.4737 1.74605C10.6268 1.80948 10.7473 1.92991 10.9881 2.17077L14.1785 5.36113C14.4193 5.60199 14.5398 5.72242 14.6032 5.87556C14.6666 6.0287 14.6666 6.19901 14.6666 6.53964V13.3493C14.6666 15.7063 14.6666 16.8848 13.9344 17.6171C13.2022 18.3493 12.0237 18.3493 9.66665 18.3493H6.33331C3.97629 18.3493 2.79778 18.3493 2.06555 17.6171C1.33331 16.8848 1.33331 15.7063 1.33331 13.3493Z" stroke="white" stroke-width="1.5" stroke-linecap="round" stroke-linejoin="round"/>
<path d="M4.66669 9.18262H11.3334M4.66669 11.6826H11.3334M4.66669 14.1826H10.0834" stroke="white" stroke-width="1.5" stroke-linecap="round" stroke-linejoin="round"/>
</svg>
