<svg width="24" height="25" viewBox="0 0 24 25" fill="none" xmlns="http://www.w3.org/2000/svg">
<path d="M4.53767 5.75H20.477C21.4269 5.75 22.1449 6.59757 21.975 7.51833L20.7259 14.2867C20.4626 15.7131 19.2015 16.75 17.7298 16.75H9.10926C7.63756 16.75 6.37644 15.7131 6.11318 14.2867L4.53767 5.75ZM4.53767 5.75L4.04646 3.33039C4.03697 3.28365 3.99531 3.25 3.94692 3.25H2M9.61301 9.25H13.1657M10.6281 20.25C10.6281 21.0784 9.94639 21.75 9.10548 21.75C8.26457 21.75 7.58287 21.0784 7.58287 20.25C7.58287 19.4216 8.26457 18.75 9.10548 18.75C9.94639 18.75 10.6281 19.4216 10.6281 20.25ZM18.7486 20.25C18.7486 21.0784 18.0669 21.75 17.226 21.75C16.3851 21.75 15.7034 21.0784 15.7034 20.25C15.7034 19.4216 16.3851 18.75 17.226 18.75C18.0669 18.75 18.7486 19.4216 18.7486 20.25Z" stroke="black" stroke-width="1.5" stroke-linecap="round"/>
</svg>
