<svg width="30" height="16" viewBox="0 0 30 16" fill="none" xmlns="http://www.w3.org/2000/svg">
<path d="M26.8509 3.89938C26.5882 3.56924 26.2541 3.3028 25.8738 3.12C25.4935 2.93719 25.0768 2.84275 24.6548 2.84375H21.5625V0.96875C21.5625 0.451719 21.142 0.03125 20.625 0.03125H4.6875C4.17047 0.03125 3.75 0.451719 3.75 0.96875V2.84375H1.40625C1.28193 2.84375 1.1627 2.89314 1.07479 2.98104C0.986886 3.06895 0.9375 3.18818 0.9375 3.3125C0.9375 3.43682 0.986886 3.55605 1.07479 3.64396C1.1627 3.73186 1.28193 3.78125 1.40625 3.78125H3.75V9.40625H0.9375C0.81318 9.40625 0.693951 9.45564 0.606044 9.54354C0.518136 9.63145 0.46875 9.75068 0.46875 9.875C0.46875 9.99932 0.518136 10.1185 0.606044 10.2065C0.693951 10.2944 0.81318 10.3438 0.9375 10.3438H3.75V13.1562C3.75 13.6733 4.17047 14.0938 4.6875 14.0938H6.14109C6.35906 15.162 7.30547 15.9688 8.4375 15.9688C9.56953 15.9688 10.5159 15.162 10.7339 14.0938H23.0161C23.2341 15.162 24.1805 15.9688 25.3125 15.9688C26.4445 15.9688 27.3909 15.162 27.6089 14.0938H28.5938C29.3691 14.0938 30 13.4628 30 12.6875V8.82219C29.9992 8.1837 29.7819 7.56435 29.3836 7.06531L26.8509 3.89938ZM8.4375 15.0312C7.66219 15.0312 7.03125 14.4003 7.03125 13.625C7.03125 12.8497 7.66219 12.2188 8.4375 12.2188C9.21281 12.2188 9.84375 12.8497 9.84375 13.625C9.84375 14.4003 9.21281 15.0312 8.4375 15.0312ZM25.3125 15.0312C24.5372 15.0312 23.9062 14.4003 23.9062 13.625C23.9062 12.8497 24.5372 12.2188 25.3125 12.2188C26.0878 12.2188 26.7188 12.8497 26.7188 13.625C26.7188 14.4003 26.0878 15.0312 25.3125 15.0312ZM29.0625 12.6875C29.0625 12.9458 28.852 13.1562 28.5938 13.1562H27.6089C27.3909 12.088 26.4445 11.2812 25.3125 11.2812C24.1805 11.2812 23.2341 12.088 23.0161 13.1562H21.5625V7.0625C21.5625 6.93818 21.5131 6.81895 21.4252 6.73104C21.3373 6.64314 21.2181 6.59375 21.0938 6.59375C20.9694 6.59375 20.8502 6.64314 20.7623 6.73104C20.6744 6.81895 20.625 6.93818 20.625 7.0625V13.1562H10.7339C10.5159 12.088 9.56953 11.2812 8.4375 11.2812C7.30547 11.2812 6.35906 12.088 6.14109 13.1562H4.6875V10.3438H6.09375C6.21807 10.3438 6.3373 10.2944 6.42521 10.2065C6.51311 10.1185 6.5625 9.99932 6.5625 9.875C6.5625 9.75068 6.51311 9.63145 6.42521 9.54354C6.3373 9.45564 6.21807 9.40625 6.09375 9.40625H4.6875V3.78125H11.25C11.3743 3.78125 11.4935 3.73186 11.5815 3.64396C11.6694 3.55605 11.7188 3.43682 11.7188 3.3125C11.7188 3.18818 11.6694 3.06895 11.5815 2.98104C11.4935 2.89314 11.3743 2.84375 11.25 2.84375H4.6875V0.96875H20.625V5.65625C20.625 5.78057 20.6744 5.8998 20.7623 5.98771C20.8502 6.07561 20.9694 6.125 21.0938 6.125C21.2181 6.125 21.3373 6.07561 21.4252 5.98771C21.5131 5.8998 21.5625 5.78057 21.5625 5.65625V3.78125H24.6548C25.2277 3.78125 25.7611 4.03766 26.1192 4.48484L28.6519 7.65078C28.9171 7.98367 29.0619 8.39655 29.0625 8.82219V12.6875Z" fill="white"/>
<path d="M10.3125 6.125H6.09375C5.96943 6.125 5.8502 6.17439 5.76229 6.26229C5.67439 6.3502 5.625 6.46943 5.625 6.59375C5.625 6.71807 5.67439 6.8373 5.76229 6.92521C5.8502 7.01312 5.96943 7.0625 6.09375 7.0625H10.3125C10.4368 7.0625 10.556 7.01312 10.644 6.92521C10.7319 6.8373 10.7812 6.71807 10.7812 6.59375C10.7812 6.46943 10.7319 6.3502 10.644 6.26229C10.556 6.17439 10.4368 6.125 10.3125 6.125ZM0.46875 7.53125H1.875C1.99932 7.53125 2.11855 7.48187 2.20646 7.39396C2.29436 7.30605 2.34375 7.18682 2.34375 7.0625C2.34375 6.93818 2.29436 6.81895 2.20646 6.73105C2.11855 6.64314 1.99932 6.59375 1.875 6.59375H0.46875C0.34443 6.59375 0.225201 6.64314 0.137294 6.73105C0.049386 6.81895 0 6.93818 0 7.0625C0 7.18682 0.049386 7.30605 0.137294 7.39396C0.225201 7.48187 0.34443 7.53125 0.46875 7.53125ZM25.3439 5.05578C25.2562 4.95012 25.1462 4.86513 25.0218 4.80687C24.8974 4.74861 24.7617 4.71852 24.6244 4.71875H23.437C23.1886 4.71912 22.9505 4.81797 22.7749 4.99361C22.5992 5.16926 22.5004 5.40738 22.5 5.65578V7.53172C22.5 8.04828 22.9205 8.46875 23.437 8.46875H26.1877C26.5552 8.46875 26.8805 8.26203 27.0366 7.92922C27.1927 7.59641 27.143 7.21438 26.9077 6.93219L25.3439 5.05578ZM23.4375 7.53172L23.437 5.65625H24.6244L26.1914 7.53125L23.4375 7.53172Z" fill="white"/>
</svg>
