<svg width="16" height="17" viewBox="0 0 16 17" fill="none" xmlns="http://www.w3.org/2000/svg">
<path d="M8.00016 2.07324C7.63197 2.07324 7.3335 2.37172 7.3335 2.73991V4.73991C7.3335 5.1081 7.63197 5.40658 8.00016 5.40658C8.36835 5.40658 8.66683 5.1081 8.66683 4.73991V2.73991C8.66683 2.37172 8.36835 2.07324 8.00016 2.07324Z" fill="#23262F"/>
<path d="M8.00016 12.0732C7.63197 12.0732 7.3335 12.3717 7.3335 12.7399V14.7399C7.3335 15.1081 7.63197 15.4066 8.00016 15.4066C8.36835 15.4066 8.66683 15.1081 8.66683 14.7399V12.7399C8.66683 12.3717 8.36835 12.0732 8.00016 12.0732Z" fill="#23262F"/>
<path d="M14.0002 8.07324C14.3684 8.07324 14.6668 8.37172 14.6668 8.73991C14.6668 9.1081 14.3684 9.40658 14.0002 9.40658H12.0002C11.632 9.40658 11.3335 9.1081 11.3335 8.73991C11.3335 8.37172 11.632 8.07324 12.0002 8.07324H14.0002Z" fill="#23262F"/>
<path d="M4.66683 8.73991C4.66683 8.37172 4.36835 8.07324 4.00016 8.07324H2.00016C1.63197 8.07324 1.3335 8.37172 1.3335 8.73991C1.3335 9.1081 1.63197 9.40658 2.00016 9.40658H4.00016C4.36835 9.40658 4.66683 9.1081 4.66683 8.73991Z" fill="#23262F"/>
<path d="M11.7714 4.02593C12.0318 3.76558 12.4539 3.76558 12.7142 4.02593C12.9746 4.28628 12.9746 4.70839 12.7142 4.96874L11.3 6.38295C11.0397 6.6433 10.6176 6.6433 10.3572 6.38295C10.0969 6.1226 10.0969 5.70049 10.3572 5.44014L11.7714 4.02593Z" fill="#23262F"/>
<path d="M5.64312 11.0969C5.38277 10.8365 4.96066 10.8365 4.70031 11.0969L3.28609 12.5111C3.02574 12.7715 3.02574 13.1936 3.28609 13.4539C3.54644 13.7143 3.96855 13.7143 4.2289 13.4539L5.64312 12.0397C5.90347 11.7794 5.90347 11.3572 5.64312 11.0969Z" fill="#23262F"/>
<path d="M12.7142 12.5112C12.9746 12.7715 12.9746 13.1936 12.7142 13.454C12.4539 13.7143 12.0318 13.7143 11.7714 13.454L10.3572 12.0398C10.0969 11.7794 10.0969 11.3573 10.3572 11.097C10.6176 10.8366 11.0397 10.8366 11.3 11.097L12.7142 12.5112Z" fill="#23262F"/>
<path d="M5.64318 6.38286C5.90353 6.12251 5.90353 5.7004 5.64318 5.44005L4.22897 4.02584C3.96862 3.76549 3.54651 3.76549 3.28616 4.02584C3.02581 4.28619 3.02581 4.7083 3.28616 4.96865L4.70037 6.38286C4.96072 6.64321 5.38283 6.64321 5.64318 6.38286Z" fill="#23262F"/>
</svg>
