<svg width="186" height="50" viewBox="0 0 186 50" fill="none" xmlns="http://www.w3.org/2000/svg">
<g clip-path="url(#clip0_1188_5863)">
<path fill-rule="evenodd" clip-rule="evenodd" d="M182.801 6.65918C181.035 6.65918 179.602 8.10378 179.602 9.88298C179.602 11.6622 181.034 13.1068 182.801 13.1068C184.569 13.1068 186 11.6629 186 9.88298C186 8.10378 184.569 6.65918 182.801 6.65918ZM182.801 12.576C181.326 12.576 180.129 11.3699 180.129 9.88298C180.129 8.39605 181.325 7.19066 182.801 7.19066C184.278 7.19066 185.473 8.39673 185.473 9.88298C185.473 11.3692 184.278 12.576 182.801 12.576Z" fill="white"/>
<path fill-rule="evenodd" clip-rule="evenodd" d="M183.835 9.80441C184.004 9.63643 184.089 9.3979 184.089 9.0848C184.089 8.71794 183.985 8.44985 183.775 8.28187C183.565 8.11457 183.242 8.03125 182.8 8.03125H181.414V11.7355H181.968V10.139H182.601L183.571 11.7355H184.187L183.151 10.1054C183.437 10.0725 183.664 9.97171 183.835 9.80441ZM181.968 9.66129V8.50897H182.72C182.958 8.50897 183.152 8.5466 183.3 8.62253C183.448 8.69912 183.523 8.84291 183.523 9.05255C183.523 9.26218 183.469 9.41806 183.36 9.51482C183.251 9.61291 183.01 9.66129 182.635 9.66129H181.969H181.968Z" fill="white"/>
<path d="M65.6053 33.9753C65.396 34.111 65.2581 34.2541 65.1907 34.4046C65.1234 34.5551 65.0901 34.795 65.0901 35.1229V40.7212C64.6176 40.564 64.1737 40.2213 63.7585 39.6912L60.3602 35.3534V39.2565C60.3602 39.5796 60.3956 39.8188 60.4655 39.9754C60.5362 40.1319 60.6695 40.2751 60.8668 40.4047H59.1406C59.3492 40.269 59.4879 40.1266 59.5552 39.9754C59.6218 39.8249 59.6565 39.585 59.6565 39.2565V35.1222C59.6565 34.8004 59.6211 34.5605 59.5512 34.404C59.4805 34.2481 59.3472 34.1043 59.15 33.9746H60.5622C60.5768 34.0109 60.6548 34.1312 60.7954 34.3361L64.3817 38.9407V35.1222C64.3817 34.8004 64.3463 34.5619 64.2764 34.4087C64.2057 34.2555 64.0711 34.1103 63.8705 33.9746H65.6053V33.9753Z" fill="white"/>
<path d="M71.3891 38.1185C71.3891 38.7958 71.1419 39.3682 70.6474 39.8359C70.1528 40.3029 69.5404 40.5367 68.8113 40.5367C68.0821 40.5367 67.509 40.3123 67.0378 39.8648C66.5673 39.418 66.332 38.8536 66.332 38.1729C66.332 37.3955 66.6353 36.774 67.2417 36.307C67.7049 35.9489 68.2774 35.7689 68.9592 35.7689C69.641 35.7689 70.1862 35.9785 70.6407 36.3971C71.1399 36.8674 71.3891 37.4412 71.3891 38.1185ZM70.3981 38.2589C70.3981 37.71 70.2515 37.2679 69.9589 36.9306C69.6663 36.5933 69.2804 36.4246 68.8026 36.4246C68.3687 36.4246 68.0142 36.5765 67.7376 36.8788C67.461 37.1812 67.3231 37.5736 67.3231 38.0553C67.3231 38.5794 67.4717 39.0142 67.7696 39.3588C68.0668 39.7035 68.4414 39.8755 68.8919 39.8755C69.3424 39.8755 69.7036 39.727 69.9816 39.428C70.2588 39.1297 70.3981 38.74 70.3981 38.2583M70.3354 35.2851C69.9082 35.2488 69.4211 35.0251 68.8739 34.6118C68.3541 35.0251 67.8589 35.2488 67.3897 35.2851L68.8739 33.7988L70.3354 35.2851ZM69.4437 41.7327C69.4437 41.8926 69.3864 42.031 69.2738 42.1479C69.1598 42.2662 69.0239 42.3246 68.8652 42.3246C68.7066 42.3246 68.562 42.2675 68.4487 42.1526C68.3354 42.0384 68.2781 41.8986 68.2781 41.7327C68.2781 41.5667 68.3367 41.4357 68.4527 41.3215C68.5693 41.2073 68.71 41.1495 68.8739 41.1495C69.0265 41.1495 69.1591 41.2066 69.2731 41.3215C69.3864 41.4357 69.4431 41.5728 69.4431 41.7327" fill="white"/>
<path d="M73.7533 40.404H72.1484C72.3184 40.2682 72.4223 40.152 72.4597 40.0559C72.497 39.9598 72.5157 39.7542 72.5157 39.4411V36.8617C72.5157 36.5452 72.497 36.3396 72.4597 36.2449C72.4217 36.1501 72.3184 36.0353 72.1484 35.8995H72.8209C73.0841 35.8995 73.2721 35.8377 73.386 35.7148V39.4418C73.386 39.7549 73.4047 39.9605 73.442 40.0566C73.4794 40.1527 73.5833 40.2689 73.7539 40.4046M73.534 34.6935C73.534 34.8688 73.4754 35.0146 73.3587 35.1315C73.2421 35.2491 73.0988 35.3076 72.9289 35.3076C72.7589 35.3076 72.6243 35.2491 72.5077 35.1315C72.391 35.0146 72.3324 34.8682 72.3324 34.6935C72.3324 34.5282 72.3924 34.3871 72.5117 34.2695C72.631 34.1519 72.7762 34.0928 72.9469 34.0928C73.1048 34.0928 73.2421 34.1532 73.3587 34.2735C73.4754 34.3938 73.534 34.5342 73.534 34.6935Z" fill="white"/>
<path d="M83.3735 33.9753C83.1643 34.111 83.0263 34.2541 82.959 34.4046C82.8923 34.5551 82.8583 34.795 82.8583 35.1229V40.7212C82.3858 40.564 81.942 40.2213 81.5268 39.6912L78.1285 35.3534V39.2565C78.1285 39.5796 78.1638 39.8188 78.2338 39.9754C78.3038 40.1319 78.4377 40.2751 78.6343 40.4047H76.9082C77.1168 40.269 77.2561 40.1266 77.3227 39.9754C77.3901 39.8249 77.424 39.585 77.424 39.2565V35.1222C77.424 34.8004 77.3887 34.5605 77.3187 34.404C77.2481 34.2481 77.1148 34.1043 76.9175 33.9746H78.3298C78.3444 34.0109 78.4224 34.1312 78.563 34.3361L82.1492 38.9407V35.1222C82.1492 34.8004 82.1139 34.5619 82.0439 34.4087C81.9733 34.2555 81.8387 34.1103 81.6381 33.9746H83.3729L83.3735 33.9753Z" fill="white"/>
<path d="M89.3899 35.7689L89.1113 36.3965C89.0693 36.4778 88.9786 36.5188 88.838 36.5188C88.6614 36.5188 88.3062 36.4724 87.771 36.379C88.2489 36.7197 88.4881 37.1228 88.4881 37.5898C88.4881 38.2073 88.1203 38.6521 87.3851 38.9228C87.1399 39.0109 86.8187 39.0754 86.4208 39.117C86.1635 39.1674 86.0349 39.2521 86.0349 39.3697C86.0349 39.4933 86.1689 39.5551 86.4381 39.5551C87.1792 39.5612 87.7184 39.6122 88.0569 39.7083C88.4481 39.8259 88.7487 40.0234 88.958 40.3002C89.0986 40.487 89.1686 40.7256 89.1686 41.0138C89.1686 41.5957 88.8567 42.0405 88.2315 42.3475C87.735 42.5948 87.1652 42.7178 86.5234 42.7178C85.7763 42.7178 85.1472 42.5814 84.636 42.3113C84.1248 42.0405 83.8689 41.7072 83.8689 41.3128C83.8689 41.0716 83.9482 40.8814 84.1075 40.743C84.2661 40.6039 84.4861 40.5347 84.7706 40.5347C84.9346 40.5347 85.1085 40.5744 85.2911 40.6523C85.0039 40.7094 84.8606 40.8586 84.8606 41.0998C84.8606 41.4257 85.0092 41.6817 85.3065 41.8698C85.6044 42.0586 86.0069 42.1527 86.5148 42.1527C87.0226 42.1527 87.4365 42.0539 87.7544 41.8571C88.0729 41.6595 88.2322 41.4049 88.2322 41.0911C88.2322 40.4676 87.5771 40.1558 86.2682 40.1558C86.0409 40.1558 85.8843 40.1591 85.7976 40.1645C85.7103 40.1706 85.6377 40.1733 85.5777 40.1733C85.3924 40.1733 85.2405 40.1175 85.1205 40.006C84.9652 39.8642 84.8873 39.6881 84.8873 39.4778C84.8873 39.3844 84.9346 39.3058 85.0312 39.2407C85.1265 39.1755 85.3358 39.0781 85.659 38.949C85.3724 38.8704 85.1405 38.7549 84.9639 38.6003C84.608 38.2845 84.4301 37.8962 84.4301 37.4352C84.4301 36.9743 84.6213 36.5624 85.0039 36.244C85.3864 35.9268 85.859 35.7676 86.4208 35.7676C86.5554 35.7676 86.838 35.783 87.2685 35.8126C87.6091 35.8368 87.9183 35.8489 88.1962 35.8489C88.5614 35.8489 88.9587 35.822 89.3892 35.7676M87.5418 37.5165C87.5418 37.1819 87.4245 36.9018 87.1899 36.674C86.9553 36.4469 86.666 36.3327 86.3221 36.3327C86.0409 36.3327 85.8056 36.4207 85.6164 36.5974C85.4264 36.7727 85.3318 36.9938 85.3318 37.2592C85.3318 37.5965 85.4537 37.8881 85.697 38.136C85.9409 38.3833 86.2308 38.5063 86.5694 38.5063C86.856 38.5063 87.0899 38.4149 87.2712 38.2328C87.4518 38.0507 87.5424 37.8115 87.5424 37.5165" fill="white"/>
<path d="M94.8364 38.1175C94.8364 38.7948 94.5891 39.3679 94.0946 39.8349C93.6001 40.3019 92.9876 40.5357 92.2585 40.5357C91.5294 40.5357 90.9563 40.312 90.4857 39.8652C90.0152 39.4177 89.7793 38.8533 89.7793 38.1726C89.7793 37.3952 90.0825 36.7737 90.6897 36.3068C91.1529 35.9486 91.7254 35.7686 92.4058 35.7686C93.0863 35.7686 93.6328 35.9782 94.088 36.3968C94.5871 36.8671 94.8364 37.4403 94.8364 38.1182M93.846 38.2586C93.846 37.7097 93.6994 37.2676 93.4068 36.9303C93.1136 36.593 92.7277 36.4243 92.2499 36.4243C91.8173 36.4243 91.4614 36.5755 91.1855 36.8785C90.9089 37.1809 90.7703 37.5733 90.7703 38.0557C90.7703 38.5798 90.9196 39.0145 91.2169 39.3592C91.5141 39.7032 91.8886 39.8759 92.3392 39.8759C92.7897 39.8759 93.1509 39.7274 93.4288 39.4284C93.7061 39.1301 93.846 38.7397 93.846 38.2586Z" fill="white"/>
<path d="M100.155 39.8312L99.7334 40.4682C99.3055 40.4379 99.0049 40.3667 98.8297 40.2518C98.655 40.1376 98.5471 39.9884 98.5051 39.8043C98.4724 39.6928 98.4558 39.4993 98.4558 39.2218V37.9613C98.2378 38.0674 97.8253 38.1904 97.2181 38.3322C96.7516 38.4437 96.5184 38.6937 96.5184 39.0827C96.5184 39.3293 96.6097 39.5235 96.7896 39.6652C96.9702 39.8063 97.2235 39.8769 97.5494 39.8769C97.7553 39.8769 97.9959 39.8346 98.2712 39.7506L97.702 40.4782C97.5314 40.5172 97.3548 40.5374 97.1728 40.5374C96.6883 40.5374 96.3058 40.4104 96.0252 40.1577C95.6933 39.8587 95.5273 39.4979 95.5273 39.0733C95.5273 38.6238 95.708 38.2972 96.0698 38.0923C96.3151 37.9566 96.7416 37.8303 97.3481 37.7127C97.7753 37.6314 98.0639 37.5447 98.2132 37.4533C98.3625 37.3613 98.4378 37.2269 98.4378 37.0488C98.4378 36.862 98.3525 36.7115 98.1825 36.5966C98.0119 36.4824 97.788 36.4253 97.5101 36.4253C97.1688 36.4253 96.7283 36.555 96.1871 36.8137L96.8323 35.8327C97.0442 35.7904 97.2675 35.7695 97.5001 35.7695C98.3218 35.7695 98.8676 35.9886 99.1362 36.4253C99.2655 36.6356 99.3295 37.0246 99.3295 37.5904V38.8509C99.3295 39.1102 99.3382 39.2769 99.3562 39.3521C99.3921 39.506 99.4874 39.6283 99.6427 39.7183C99.756 39.7875 99.9266 39.8251 100.153 39.8312M98.3778 41.7334C98.3778 41.8933 98.3205 42.0317 98.2072 42.1486C98.0939 42.2669 97.9579 42.3253 97.7993 42.3253C97.6407 42.3253 97.4961 42.2682 97.3828 42.1533C97.2688 42.0391 97.2122 41.8993 97.2122 41.7334C97.2122 41.5674 97.2708 41.4364 97.3874 41.3221C97.5034 41.2079 97.644 41.1501 97.8086 41.1501C97.9606 41.1501 98.0939 41.2073 98.2072 41.3221C98.3205 41.4364 98.3778 41.5734 98.3778 41.7334Z" fill="white"/>
<path d="M102.202 40.404H100.598C100.768 40.2682 100.872 40.152 100.909 40.0559C100.946 39.9598 100.965 39.7542 100.965 39.4411V36.8617C100.965 36.5452 100.946 36.3396 100.909 36.2449C100.872 36.1501 100.768 36.0353 100.598 35.8995H101.27C101.533 35.8995 101.721 35.8377 101.835 35.7148V39.4418C101.835 39.7549 101.854 39.9605 101.891 40.0566C101.928 40.1527 102.032 40.2689 102.202 40.4046M101.983 34.6935C101.983 34.8688 101.925 35.0146 101.809 35.1315C101.692 35.2491 101.548 35.3076 101.378 35.3076C101.208 35.3076 101.073 35.2491 100.957 35.1315C100.841 35.0146 100.782 34.8682 100.782 34.6935C100.782 34.5282 100.842 34.3871 100.961 34.2695C101.08 34.1519 101.225 34.0928 101.395 34.0928C101.554 34.0928 101.692 34.1532 101.809 34.2735C101.925 34.3938 101.983 34.5342 101.983 34.6935Z" fill="white"/>
<path d="M109.958 33.9072L109.649 35.073C109.562 34.907 109.434 34.8009 109.264 34.7525C109.159 34.7189 108.984 34.7028 108.739 34.7028C108.691 34.7028 108.61 34.7081 108.497 34.7182C108.383 34.7283 108.238 34.7343 108.062 34.7343H107.905V39.2576C107.905 39.5801 107.938 39.8166 108.006 39.9671C108.073 40.1176 108.21 40.2641 108.416 40.4052H106.497C106.707 40.2937 106.838 40.1116 106.892 39.8583C106.919 39.7414 106.933 39.5076 106.933 39.1582V34.735C106.741 34.7142 106.481 34.7041 106.152 34.7041C105.856 34.7041 105.635 34.7236 105.489 34.7632C105.3 34.8109 105.102 34.9151 104.893 35.075L105.252 33.9092C105.38 33.9543 105.544 33.9764 105.745 33.9764H109.395C109.472 33.9764 109.596 33.9711 109.766 33.959C109.799 33.9502 109.864 33.9334 109.959 33.9092" fill="white"/>
<path d="M114.94 40.404H113.321C113.491 40.2743 113.597 40.1594 113.637 40.0606C113.677 39.9612 113.697 39.7542 113.697 39.4411V37.711C113.697 37.3166 113.636 37.0397 113.513 36.8798C113.307 36.6023 112.995 36.4639 112.576 36.4639C112.158 36.4639 111.863 36.5936 111.649 36.8523C111.571 36.943 111.523 37.033 111.503 37.1244C111.484 37.2144 111.474 37.3925 111.474 37.6572V39.4418C111.474 39.7549 111.493 39.9605 111.53 40.0566C111.568 40.1527 111.674 40.2689 111.85 40.4046H110.236C110.407 40.2689 110.511 40.1527 110.548 40.0566C110.586 39.9605 110.604 39.7549 110.604 39.4418V34.9373C110.604 34.6148 110.587 34.4092 110.553 34.3205C110.518 34.2312 110.414 34.1163 110.236 33.9745H110.909C111.172 33.9745 111.36 33.9127 111.474 33.7891V36.3873C111.788 35.9748 112.272 35.7678 112.927 35.7678C113.582 35.7678 114.031 35.9808 114.33 36.4055C114.492 36.6279 114.572 36.9645 114.572 37.4133V39.4418C114.572 39.7495 114.59 39.9524 114.626 40.0519C114.662 40.1507 114.766 40.2682 114.94 40.404Z" fill="white"/>
<path d="M120.244 39.8305L119.823 40.4682C119.396 40.4373 119.095 40.366 118.919 40.2511C118.745 40.1369 118.636 39.9878 118.594 39.8037C118.562 39.6921 118.545 39.4986 118.545 39.2211V37.9606C118.327 38.0661 117.914 38.1897 117.308 38.3308C116.841 38.4424 116.608 38.693 116.608 39.0814C116.608 39.3279 116.699 39.5221 116.879 39.6639C117.06 39.8057 117.313 39.8755 117.639 39.8755C117.845 39.8755 118.086 39.8332 118.361 39.7499L117.791 40.4776C117.621 40.5165 117.445 40.5367 117.263 40.5367C116.778 40.5367 116.396 40.4097 116.115 40.1571C115.783 39.8587 115.617 39.4973 115.617 39.0726C115.617 38.6231 115.798 38.2966 116.16 38.0916C116.405 37.9559 116.831 37.8296 117.437 37.712C117.864 37.6307 118.153 37.544 118.302 37.4527C118.452 37.3606 118.526 37.2262 118.526 37.0475C118.526 36.8688 118.442 36.7102 118.271 36.5953C118.1 36.4811 117.876 36.424 117.599 36.424C117.257 36.424 116.817 36.5536 116.276 36.8123L116.921 35.8314C117.133 35.789 117.356 35.7682 117.589 35.7682C118.411 35.7682 118.956 35.9866 119.225 36.424C119.354 36.6349 119.419 37.0233 119.419 37.5891V38.8502C119.419 39.1096 119.427 39.2762 119.445 39.3515C119.481 39.5053 119.577 39.6276 119.733 39.7176C119.846 39.7875 120.016 39.8252 120.243 39.8305M119.27 35.2851C118.844 35.2488 118.356 35.0244 117.809 34.6118C117.289 35.0251 116.793 35.2495 116.324 35.2851L117.809 33.7988L119.27 35.2851ZM118.871 33.1296L116.477 34.1959L118.292 32.5195L118.871 33.1289V33.1296Z" fill="white"/>
<path d="M123.403 39.7856L122.897 40.477C122.786 40.516 122.67 40.5361 122.547 40.5361C122.156 40.5361 121.825 40.393 121.556 40.1068C121.392 39.9287 121.286 39.7104 121.238 39.4517C121.217 39.322 121.206 39.072 121.206 38.7018V36.5464H120.547V36.1943C120.879 36.1399 121.145 35.9981 121.345 35.769C121.584 35.5036 121.704 35.1038 121.704 34.5676V34.4453H122.08V35.9H122.833C123.114 35.9 123.303 35.8805 123.403 35.8409V36.7224C123.268 36.6048 123.066 36.5457 122.798 36.5457H122.08V38.6192C122.08 39.0862 122.138 39.3905 122.255 39.5323C122.431 39.7554 122.68 39.8669 122.999 39.8669C123.128 39.8669 123.263 39.8394 123.403 39.7856" fill="white"/>
<path d="M128.194 40.4041H126.355C126.565 40.2925 126.696 40.1104 126.75 39.8571C126.774 39.7456 126.786 39.5118 126.786 39.157V35.2217C126.786 34.8635 126.774 34.6284 126.75 34.5168C126.696 34.2669 126.565 34.0855 126.355 33.9746H128.194C127.984 34.0861 127.853 34.2669 127.8 34.5168C127.772 34.6284 127.759 34.8635 127.759 35.2217V39.157C127.759 39.5118 127.772 39.7463 127.8 39.8571C127.854 40.1104 127.984 40.2925 128.194 40.4041Z" fill="white"/>
<path d="M133.765 40.4044H132.146C132.32 40.2686 132.426 40.1511 132.464 40.0523C132.504 39.9529 132.523 39.7499 132.523 39.4422V37.8881C132.523 37.4184 132.453 37.0912 132.312 36.9078C132.097 36.6303 131.773 36.4919 131.339 36.4919C131.142 36.4919 130.949 36.5382 130.76 36.6296C130.569 36.7217 130.436 36.8507 130.358 37.0166C130.313 37.1161 130.29 37.2679 130.29 37.4729V39.4422C130.29 39.7553 130.309 39.9609 130.346 40.057C130.384 40.1531 130.488 40.2693 130.658 40.405H129.053C129.223 40.2693 129.327 40.1531 129.364 40.057C129.402 39.9609 129.421 39.7553 129.421 39.4422V36.8628C129.421 36.5463 129.402 36.3407 129.364 36.246C129.327 36.1512 129.223 36.0363 129.053 35.9006H129.676C129.939 35.9006 130.129 35.8388 130.246 35.7158V36.5288C130.676 36.0229 131.154 35.7696 131.68 35.7696C132.014 35.7696 132.327 35.8435 132.617 35.9913C132.94 36.1566 133.159 36.3857 133.276 36.6787C133.357 36.8802 133.398 37.2491 133.398 37.7853V39.4436C133.398 39.7567 133.415 39.9623 133.451 40.0583C133.487 40.1544 133.592 40.2707 133.765 40.4064" fill="white"/>
<path d="M139.53 38.1175C139.53 38.7948 139.283 39.3679 138.788 39.8349C138.293 40.3019 137.682 40.5357 136.952 40.5357C136.222 40.5357 135.65 40.312 135.178 39.8652C134.708 39.4177 134.473 38.8533 134.473 38.1726C134.473 37.3952 134.776 36.7737 135.383 36.3068C135.846 35.9486 136.419 35.7686 137.1 35.7686C137.781 35.7686 138.327 35.9782 138.781 36.3968C139.281 36.8671 139.53 37.4403 139.53 38.1182M138.539 38.2586C138.539 37.7097 138.393 37.2676 138.1 36.9303C137.807 36.593 137.422 36.4243 136.943 36.4243C136.51 36.4243 136.155 36.5755 135.879 36.8785C135.602 37.1809 135.464 37.5733 135.464 38.0557C135.464 38.5798 135.613 39.0145 135.91 39.3592C136.207 39.7032 136.581 39.8759 137.033 39.8759C137.485 39.8759 137.844 39.7274 138.123 39.4284C138.401 39.1301 138.54 38.7397 138.54 38.2586" fill="white"/>
<path d="M145.02 40.4041L144.154 40.4579H144.011C143.855 40.4579 143.751 40.4418 143.697 40.4088C143.643 40.3766 143.555 40.2745 143.432 40.1058L142.357 38.629L141.374 39.7853C141.264 39.915 141.208 40.0299 141.208 40.1293C141.208 40.22 141.279 40.3114 141.42 40.4048H139.859L141.935 38.0646L141.052 36.8988C140.696 36.4292 140.381 36.0966 140.107 35.9004L141.079 35.8594C141.213 35.8594 141.305 35.8768 141.355 35.9111C141.404 35.9461 141.496 36.0522 141.631 36.2303L142.532 37.4457L143.24 36.5911C143.362 36.4439 143.424 36.3203 143.424 36.2209C143.424 36.0972 143.336 35.9904 143.163 35.8997H144.782L142.962 38.0014L144.101 39.5145C144.439 39.9661 144.745 40.263 145.02 40.4048" fill="white"/>
<path d="M150.657 37.4639L150.132 38.1647C150.045 38.2822 149.908 38.34 149.719 38.34H148.563C148.207 38.34 147.912 38.381 147.68 38.4623L148.231 37.7669C148.318 37.6554 148.458 37.5996 148.652 37.5996H149.679C150.098 37.5996 150.423 37.5546 150.656 37.4639" fill="white"/>
<path d="M160.231 33.9753C160.022 34.111 159.884 34.2541 159.816 34.4046C159.75 34.5551 159.715 34.795 159.715 35.1229V40.7212C159.243 40.564 158.799 40.2213 158.384 39.6912L154.985 35.3534V39.2565C154.985 39.5796 155.02 39.8188 155.091 39.9754C155.161 40.1319 155.294 40.2751 155.492 40.4047H153.766C153.975 40.269 154.113 40.1266 154.18 39.9754C154.247 39.8249 154.281 39.585 154.281 39.2565V35.1222C154.281 34.8004 154.246 34.5605 154.176 34.404C154.106 34.2481 153.972 34.1043 153.775 33.9746H155.187C155.202 34.0109 155.28 34.1312 155.42 34.3361L159.007 38.9407V35.1222C159.007 34.8004 158.971 34.5619 158.901 34.4087C158.831 34.2555 158.696 34.1103 158.495 33.9746H160.23L160.231 33.9753Z" fill="white"/>
<path d="M165.641 40.404H164.023C164.193 40.2743 164.298 40.1594 164.338 40.0606C164.378 39.9612 164.399 39.7542 164.399 39.4411V37.711C164.399 37.3166 164.337 37.0397 164.215 36.8798C164.009 36.6023 163.696 36.4639 163.278 36.4639C162.86 36.4639 162.565 36.5936 162.35 36.8523C162.272 36.943 162.224 37.033 162.204 37.1244C162.185 37.2144 162.175 37.3925 162.175 37.6572V39.4418C162.175 39.7549 162.194 39.9605 162.231 40.0566C162.269 40.1527 162.376 40.2689 162.552 40.4046H160.938C161.108 40.2689 161.212 40.1527 161.249 40.0566C161.286 39.9605 161.305 39.7549 161.305 39.4418V34.9373C161.305 34.6148 161.288 34.4092 161.254 34.3205C161.219 34.2312 161.115 34.1163 160.938 33.9745H161.611C161.873 33.9745 162.061 33.9127 162.175 33.7891V36.3873C162.489 35.9748 162.973 35.7678 163.628 35.7678C164.283 35.7678 164.732 35.9808 165.032 36.4055C165.193 36.6279 165.273 36.9645 165.273 37.4133V39.4418C165.273 39.7495 165.291 39.9524 165.327 40.0519C165.362 40.1507 165.467 40.2682 165.641 40.404" fill="white"/>
<path d="M170.677 36.8124V39.4422C170.677 39.7553 170.695 39.9603 170.732 40.057C170.77 40.1531 170.873 40.2694 171.044 40.4044H169.842V39.7674C169.609 40.0631 169.395 40.264 169.199 40.3728C169.003 40.4817 168.75 40.5361 168.439 40.5361C167.773 40.5361 167.288 40.307 166.986 39.8487C166.804 39.5712 166.714 39.1587 166.714 38.6104V36.8615C166.714 36.545 166.694 36.3394 166.657 36.2446C166.62 36.1499 166.516 36.035 166.346 35.8993H167.005C167.274 35.8993 167.467 35.8381 167.583 35.7145V38.4344C167.583 38.8832 167.664 39.2071 167.826 39.406C168.02 39.6532 168.307 39.7762 168.686 39.7762C169.024 39.7762 169.296 39.6687 169.5 39.4557C169.705 39.242 169.807 38.9598 169.807 38.6104V36.8615C169.807 36.545 169.789 36.338 169.751 36.2399C169.714 36.1425 169.61 36.029 169.44 35.8986H170.121C170.379 35.8986 170.564 35.8375 170.677 35.7138V36.4502C170.874 36.3636 170.991 36.2635 171.027 36.1526C171.045 36.1129 171.002 36.0484 170.897 35.9584C170.694 35.7837 170.651 35.5714 170.767 35.3208C170.833 35.183 170.941 35.0876 171.09 35.0366C171.24 34.9855 171.388 34.9942 171.534 35.0634C171.692 35.1387 171.795 35.2576 171.843 35.4229C171.891 35.5868 171.873 35.7575 171.79 35.9356C171.608 36.3239 171.236 36.6162 170.678 36.8117M169.476 41.7321C169.476 41.892 169.42 42.0304 169.306 42.1473C169.193 42.2656 169.057 42.324 168.898 42.324C168.738 42.324 168.594 42.2669 168.481 42.152C168.367 42.0378 168.311 41.8981 168.311 41.7321C168.311 41.5661 168.369 41.4351 168.485 41.3209C168.602 41.2067 168.742 41.1489 168.906 41.1489C169.059 41.1489 169.192 41.206 169.306 41.3209C169.419 41.4351 169.476 41.5722 169.476 41.7321" fill="white"/>
<path d="M176.353 39.8316L175.932 40.4685C175.505 40.4383 175.203 40.3671 175.028 40.2522C174.854 40.1379 174.745 39.9888 174.704 39.8047C174.67 39.6932 174.654 39.4996 174.654 39.2221V37.9617C174.436 38.0678 174.024 38.1908 173.417 38.3325C172.95 38.4441 172.718 38.694 172.718 39.0824C172.718 39.3297 172.808 39.5232 172.989 39.6649C173.169 39.8067 173.423 39.8773 173.749 39.8773C173.955 39.8773 174.195 39.8349 174.47 39.7503L173.901 40.4779C173.731 40.5169 173.554 40.5371 173.372 40.5371C172.888 40.5371 172.505 40.4101 172.224 40.1574C171.893 39.8591 171.727 39.4976 171.727 39.073C171.727 38.6235 171.907 38.2969 172.269 38.092C172.514 37.9563 172.941 37.83 173.547 37.7124C173.975 37.6311 174.263 37.5444 174.412 37.453C174.562 37.361 174.636 37.2266 174.636 37.0485C174.636 36.8617 174.552 36.7112 174.381 36.5963C174.211 36.4821 173.987 36.4243 173.709 36.4243C173.368 36.4243 172.927 36.5547 172.386 36.8127L173.031 35.8317C173.243 35.7894 173.466 35.7686 173.699 35.7686C174.521 35.7686 175.067 35.9869 175.335 36.4237C175.464 36.6346 175.529 37.0237 175.529 37.5894V38.8499C175.529 39.1093 175.537 39.2759 175.556 39.3512C175.591 39.505 175.687 39.6273 175.843 39.7173C175.957 39.7865 176.127 39.8242 176.354 39.8302" fill="white"/>
<path fill-rule="evenodd" clip-rule="evenodd" d="M160.174 6.34375C159.902 6.50165 159.712 6.75966 159.604 7.12518C159.498 7.48868 159.443 7.95632 159.443 8.52542V20.7984C159.443 21.9796 159.253 23.0056 158.872 23.8825C158.493 24.7573 157.972 25.489 157.304 26.0796C156.643 26.6689 155.872 27.1063 154.992 27.3925C154.114 27.6774 153.177 27.8192 152.182 27.8192C151.188 27.8192 150.25 27.6774 149.371 27.3925C148.494 27.1056 147.722 26.6682 147.059 26.0796C146.395 25.4883 145.872 24.7566 145.494 23.8825C145.111 23.0056 144.921 21.9796 144.921 20.7984V8.52542C144.922 7.95632 144.869 7.48868 144.761 7.12518C144.651 6.75899 144.463 6.50165 144.189 6.34375H150.483C150.211 6.50165 150.021 6.75966 149.914 7.12518C149.806 7.48868 149.752 7.95632 149.752 8.52542V20.3577C149.752 21.1633 149.996 21.7982 150.483 22.2612C150.972 22.7208 151.537 22.9539 152.182 22.9539C152.827 22.9539 153.392 22.7208 153.878 22.2612C154.368 21.7982 154.611 21.1633 154.611 20.3577V8.52542C154.611 7.95632 154.558 7.48868 154.452 7.12518C154.344 6.75899 154.153 6.50165 153.879 6.34375H160.174Z" fill="white"/>
<path fill-rule="evenodd" clip-rule="evenodd" d="M82.8594 6.34375C83.1353 6.50165 83.3252 6.75966 83.4319 7.12518C83.5392 7.48868 83.5925 7.95632 83.5925 8.52542V20.7984C83.5925 21.9796 83.7831 23.0063 84.1623 23.8825C84.5449 24.7573 85.0673 25.489 85.7298 26.0796C86.3929 26.6689 87.1647 27.1063 88.0431 27.3925C88.9208 27.6774 89.8559 27.8192 90.8529 27.8192C91.8499 27.8192 92.7849 27.6774 93.6647 27.3925C94.5417 27.1056 95.3128 26.6682 95.9753 26.0796C96.6411 25.4883 97.1622 24.7566 97.5421 23.8825C97.9213 23.0056 98.1126 21.9796 98.1126 20.7984V8.52542C98.1126 7.95632 98.1686 7.48868 98.2746 7.12518C98.3812 6.75899 98.5725 6.50165 98.8437 6.34375H92.5517C92.8236 6.50165 93.0155 6.75966 93.1242 7.12518C93.2301 7.48868 93.2828 7.95632 93.2828 8.52542V20.3577C93.2828 21.1633 93.0395 21.7982 92.5517 22.2612C92.0632 22.7208 91.4993 22.9539 90.8535 22.9539C90.2077 22.9539 89.6439 22.7208 89.1554 22.2612C88.6669 21.7982 88.4243 21.1633 88.4243 20.3577V8.52542C88.4243 7.95632 88.4776 7.48868 88.5856 7.12518C88.6922 6.75899 88.8822 6.50165 89.1547 6.34375H82.8594Z" fill="white"/>
<path fill-rule="evenodd" clip-rule="evenodd" d="M73.9621 17.1718V17.2276C73.8088 17.321 73.6901 17.4197 73.6042 17.5319C73.5189 17.6428 73.4755 17.7805 73.4755 17.9458C73.4755 18.0607 73.5255 18.2186 73.6248 18.4195C73.6848 18.5411 73.7641 18.6782 73.8607 18.8314C74.1513 19.2856 74.5772 19.8534 75.0777 20.4735C75.7648 19.4979 76.1694 18.3113 76.1694 17.0307C76.1694 13.7108 73.4589 11.0198 70.1146 11.0198C66.7703 11.0198 64.0598 13.7108 64.0598 17.0307C64.0598 20.3506 66.7703 23.0422 70.1146 23.0422C70.5858 23.0422 71.045 22.9885 71.4855 22.8877C71.3569 22.7231 71.2369 22.5679 71.1316 22.4274C70.4105 21.4686 69.5034 20.4836 68.669 19.6028C68.0246 18.9087 67.5161 18.3785 67.4807 18.3423L67.4787 18.3409C67.1082 17.9411 66.7503 17.5528 66.4071 17.1731H73.9607L73.9621 17.1718ZM81.1158 17.0764C81.1158 11.1495 76.196 6.34473 70.1272 6.34473C64.0585 6.34473 59.1387 11.1495 59.1387 17.0764C59.1387 23.0033 64.0585 27.8081 70.1272 27.8081C71.7441 27.8081 73.2803 27.4674 74.6632 26.8546C74.7072 26.9359 74.7351 27.0024 74.7351 27.036C74.7351 27.2013 74.6918 27.3391 74.6059 27.4513C74.5205 27.5608 74.3999 27.6622 74.2486 27.755V27.8087H82.2608C81.8329 27.4398 81.3384 27.0071 80.7746 26.5113C80.6086 26.3648 80.436 26.2129 80.2581 26.0551C79.7816 25.6351 79.1044 24.9659 78.36 24.1858C80.0755 22.2924 81.1172 19.8037 81.1172 17.0771" fill="white"/>
<path fill-rule="evenodd" clip-rule="evenodd" d="M112.613 27.8209C112.888 27.6643 113.078 27.403 113.183 27.0388C113.291 26.676 113.346 26.2083 113.346 25.6385V6.34344C113.775 6.7177 114.251 6.90247 114.781 6.90247C115.013 6.90247 115.296 6.87559 115.627 6.81579C115.96 6.75667 116.315 6.69149 116.697 6.62229C117.079 6.55375 117.468 6.49059 117.868 6.43146C118.269 6.37502 118.643 6.34277 118.995 6.34277C120.301 6.34277 121.45 6.56988 122.434 7.02341C123.421 7.47493 124.25 8.05949 124.924 8.77708C125.598 9.49401 126.103 10.3117 126.446 11.2242C126.786 12.1406 126.957 13.0598 126.957 13.9843C126.957 15.0063 126.776 15.9752 126.416 16.891C126.056 17.8048 125.537 18.6118 124.865 19.3085C124.192 20.0066 123.382 20.5583 122.434 20.9607C121.489 21.3645 120.439 21.5661 119.289 21.5661C118.899 21.5661 118.527 21.5366 118.174 21.4788V25.6372C118.174 26.207 118.228 26.6746 118.337 27.0374C118.444 27.4016 118.633 27.663 118.907 27.8195H112.613V27.8209ZM118.174 16.5228C118.292 16.5819 118.439 16.6256 118.614 16.6545C118.791 16.6847 118.955 16.6988 119.113 16.6988C119.932 16.6988 120.604 16.4677 121.133 16.0061C121.66 15.5432 121.922 14.8612 121.922 13.9548C121.922 13.0484 121.66 12.3664 121.133 11.9055C120.605 11.4419 119.933 11.2107 119.113 11.2107C118.956 11.2107 118.79 11.2248 118.614 11.2551C118.439 11.286 118.292 11.329 118.174 11.3881V16.5221V16.5228Z" fill="white"/>
<path fill-rule="evenodd" clip-rule="evenodd" d="M142.848 25.5891C142.848 26.1717 142.904 26.6501 143.015 27.0216C143.127 27.3932 143.318 27.6606 143.597 27.8212H137.163C137.442 27.6613 137.636 27.3932 137.747 27.0216C137.855 26.6501 137.911 26.1723 137.911 25.5891V19.1959H133.24V25.5891C133.24 26.1717 133.298 26.6501 133.406 27.0216C133.515 27.3932 133.711 27.6606 133.988 27.8212H127.555C127.834 27.6613 128.029 27.3932 128.137 27.0216C128.246 26.6501 128.301 26.1723 128.301 25.5891V8.57447C128.301 7.99193 128.246 7.51488 128.137 7.14332C128.029 6.76839 127.833 6.50501 127.555 6.34375H133.988C133.711 6.50501 133.515 6.76907 133.406 7.14332C133.298 7.51488 133.24 7.9926 133.24 8.57447V14.5484H137.911V8.57447C137.911 7.99193 137.855 7.51488 137.747 7.14332C137.636 6.76839 137.442 6.50501 137.163 6.34375H143.598C143.319 6.50501 143.127 6.76907 143.015 7.14332C142.905 7.51488 142.848 7.9926 142.848 8.57447V25.5891Z" fill="white"/>
<path fill-rule="evenodd" clip-rule="evenodd" d="M176.351 27.8205C176.275 27.7836 176.15 27.7083 175.978 27.6048C175.807 27.498 175.643 27.4449 175.492 27.4449C175.358 27.4449 175.156 27.4657 174.889 27.5027C174.623 27.543 174.312 27.5853 173.961 27.6331C173.606 27.6808 173.234 27.7238 172.842 27.7634C172.452 27.801 172.054 27.8198 171.653 27.8198C170.051 27.8198 168.584 27.5511 167.257 27.0115C165.93 26.4727 164.783 25.7215 163.82 24.7607C162.856 23.7978 162.106 22.6623 161.57 21.3548C161.037 20.0446 160.77 18.6228 160.77 17.0821C160.77 15.5415 161.036 14.1177 161.57 12.8102C162.106 11.5013 162.855 10.3651 163.82 9.4036C164.783 8.44076 165.93 7.69025 167.257 7.15071C168.584 6.61251 170.051 6.34375 171.653 6.34375C172.016 6.34375 172.375 6.37533 172.727 6.43043C173.081 6.48821 173.406 6.55607 173.703 6.632C173.998 6.70994 174.271 6.77646 174.518 6.83491C174.765 6.89135 174.968 6.92092 175.12 6.92092C175.388 6.92092 175.621 6.86448 175.821 6.74824C176.021 6.632 176.198 6.49762 176.351 6.34375V13.0406C175.702 12.4641 175.014 11.9978 174.288 11.6397C173.563 11.2843 172.685 11.1055 171.653 11.1055C170.814 11.1055 170.03 11.2413 169.304 11.5107C168.578 11.7815 167.949 12.1705 167.414 12.6805C166.879 13.1905 166.458 13.816 166.154 14.5571C165.848 15.2955 165.695 16.1388 165.695 17.0815C165.695 17.9281 165.848 18.7169 166.154 19.4479C166.458 20.1789 166.879 20.8146 167.414 21.3541C167.949 21.8923 168.578 22.3096 169.304 22.6085C170.029 22.9055 170.814 23.0574 171.653 23.0574C172.646 23.0574 173.505 22.9055 174.23 22.6085C174.957 22.3096 175.663 21.8822 176.35 21.3266V27.8192L176.351 27.8205Z" fill="white"/>
<path fill-rule="evenodd" clip-rule="evenodd" d="M105.127 8.57478C105.127 7.99291 105.183 7.51518 105.294 7.14362C105.402 6.76937 105.596 6.50598 105.875 6.34473H99.4394C99.72 6.50598 99.914 6.77004 100.025 7.14362C100.134 7.51518 100.188 7.99291 100.188 8.57478V25.5894C100.188 26.172 100.135 26.6504 100.025 27.0219C99.914 27.3942 99.72 27.6616 99.4394 27.8215H105.875C105.596 27.6616 105.402 27.3942 105.294 27.0219C105.183 26.6504 105.128 26.1726 105.128 25.5894V8.57478H105.127Z" fill="white"/>
<path d="M0 24.5309C0 11.0001 10.8846 0.03125 24.3104 0.03125C37.7362 0.03125 48.6215 11.0001 48.6215 24.5309C48.6215 38.0617 37.7376 49.0306 24.3104 49.0306C10.8833 49.0306 0 38.0617 0 24.5309Z" fill="#055CA5"/>
<path d="M4.08984 24.5305C4.08984 13.2761 13.143 4.15234 24.3109 4.15234C35.4787 4.15234 44.5319 13.2761 44.5319 24.5305C44.5319 35.7849 35.4787 44.9081 24.3109 44.9081C13.143 44.9081 4.08984 35.7849 4.08984 24.5305Z" fill="white"/>
<path d="M24.3361 46.8366C12.0426 46.8366 2.07642 36.6465 2.07642 24.0772C2.07642 17.0249 5.21344 10.7224 10.1386 6.54785C4.58764 10.7379 0.996094 17.4206 0.996094 24.9473C0.996094 37.6376 11.2042 47.9251 23.7956 47.9251C34.6303 47.9251 43.6994 40.3091 46.0207 30.1008C46.2 29.3113 46.1773 28.5796 46.1773 28.5796C46.1773 28.5796 46.0594 29.1514 45.8114 30.082C43.2349 39.7379 34.5963 46.8359 24.3361 46.8359" fill="white"/>
<path d="M28.3047 15.9589C28.32 16.0287 28.3327 16.0973 28.3427 16.1625C28.436 15.9824 28.4926 15.8789 28.4926 15.8789C28.4926 15.8789 28.4227 15.9065 28.3047 15.9595" fill="#EF8621"/>
<path d="M17.9153 40.382C17.6567 40.4371 17.3814 40.4667 17.0982 40.4694C14.9628 40.4989 14.5843 38.7956 14.3577 37.7784C14.2937 37.4901 14.2331 37.218 14.1538 37.0379C13.8659 36.3828 12.7995 35.6162 12.4483 35.3992L11.6719 34.9194L12.357 34.3147C12.357 34.3147 12.6409 34.0614 12.8195 33.7866C12.8302 33.7698 12.8902 33.4466 12.9182 33.2061C13.3833 32.9118 13.8832 32.5133 14.2191 32.2822C14.7836 31.8938 14.7229 31.2938 14.7223 31.2871L14.6563 30.7845L15.1168 30.5809C15.1575 30.5628 15.2274 30.5366 15.3307 30.5151C15.6613 30.4452 16.4017 30.3175 17.5367 30.2981C19.1455 30.2705 19.1995 30.3565 19.2795 30.5137L20.4931 32.2009L21.3629 33.9935L22.0813 35.2157C22.0813 35.2157 21.6201 38.8675 21.6141 38.8978L20.4411 39.3446L20.1806 38.7305C19.814 39.4064 19.1069 40.1307 17.9153 40.3813" fill="#055CA5"/>
<path d="M15.3867 31.1993C15.3867 31.1993 15.5186 32.2065 14.5969 32.8401C13.6752 33.4744 13.4979 33.4858 13.4979 33.4858C13.4979 33.4858 13.6139 33.7976 13.38 34.1571C13.1461 34.5165 12.7988 34.8229 12.7988 34.8229C12.7988 34.8229 14.3297 35.7683 14.7669 36.764C15.2041 37.7585 14.9895 39.8225 17.0895 39.7943C19.1895 39.7668 19.826 38.132 19.8326 37.6651C19.838 37.1974 19.7273 36.9105 19.7273 36.9105C19.7273 36.9105 20.0999 37.2203 20.3405 37.7652C20.5824 38.3094 20.6244 38.6373 20.6244 38.6373C20.6244 38.6373 20.7617 37.9358 20.8297 37.274C20.8983 36.6129 20.863 35.4874 20.863 35.4874C20.863 35.4874 20.0019 35.5203 19.2501 35.601C18.7736 35.6514 17.3801 36.0182 17.3801 36.0182L18.4917 34.7087L17.6586 34.3761L18.8529 34.3499L19.696 33.299C19.696 33.299 18.5617 31.7738 17.1975 31.3881C15.8339 31.0025 15.3867 31.2 15.3867 31.2" fill="#EF8621"/>
<path d="M16.0803 31.6152C16.0803 31.6152 16.0969 32.8153 15.3685 33.2009C14.6394 33.5873 14.3362 33.6115 14.3362 33.6115C14.3362 33.6115 14.724 33.9965 14.3875 34.4164C14.0509 34.8363 13.7637 34.9358 13.7637 34.9358C13.7637 34.9358 15.1666 35.5721 15.4391 36.3307C15.7117 37.0879 15.5524 39.2958 17.3492 39.2272C19.146 39.1607 19.4966 36.9515 19.4966 36.9515C19.4966 36.9515 18.5022 39.2178 16.832 38.4048C15.8957 37.9493 16.4408 36.7022 15.4638 35.7038C14.4874 34.7067 14.5101 34.8182 14.5101 34.8182C14.5101 34.8182 14.9973 34.7537 15.0306 34.3586C15.0646 33.9635 15.1079 33.7996 15.1079 33.7996C15.1079 33.7996 15.6624 33.8769 16.0196 33.1808C16.3762 32.4847 16.0809 31.6152 16.0809 31.6152" fill="#055CA5"/>
<path d="M55.9783 40.7985C55.4798 39.1106 55.1333 38.3413 53.855 37.9523C51.9049 37.3583 48.1228 38.1995 47.6623 38.3494C46.5933 38.6954 44.4346 37.6721 44.4326 37.6714V37.6728C44.2387 37.5794 41.0257 36.036 38.8597 35.2311C38.2159 34.6042 35.2195 30.947 31.5599 26.1187C26.5408 19.4964 25.2559 17.2475 24.94 16.6025L26.2156 15.135L23.795 15.3138C22.3528 15.4206 20.9672 15.2889 20.692 15.1008C18.2701 13.4418 11.9854 12.4286 8.43582 11.918C5.716 15.387 4.08984 19.7672 4.08984 24.5323C4.08984 28.3044 5.10753 31.8352 6.88031 34.8635C7.94064 34.4012 8.97165 33.8248 9.98134 33.2563C11.3482 32.487 12.7791 31.7324 13.9854 31.4234C14.164 31.3777 14.3386 31.3374 14.5113 31.3011C16.9712 30.7837 18.7579 31.2016 19.1705 31.3152C22.0123 35.0577 21.3791 37.3422 21.1399 38.2062L21.0965 38.3655C20.9499 38.9265 20.4261 39.6602 20.2548 39.8726L18.7739 41.6961L21.1032 41.508C21.1339 41.5053 24.1849 41.2789 26.3776 42.2686C28.5595 43.2529 30.0804 45.1672 30.0937 45.1847L30.3277 45.4863L30.7022 45.5542C30.7575 45.5643 32.0858 45.7961 33.8659 45.4218C34.5257 45.2827 35.1735 45.0771 35.7906 44.8097C36.5697 44.4724 37.2688 44.2373 37.8693 44.1109C38.941 43.8859 39.6614 43.994 40.072 44.4415C40.6325 45.0516 40.1199 46.1831 40.1173 46.1891L39.6248 47.2071L40.6864 47.5766C40.7997 47.6156 43.4809 48.5307 46.0747 47.9851C46.3353 47.9301 46.5913 47.8615 46.8345 47.7802C48.2181 47.3179 49.5703 47.1251 49.8269 47.0707C49.8896 47.0573 49.9542 47.0505 50.0242 47.0485C50.3288 47.0411 50.5027 47.0821 50.584 47.1103L50.9432 48.1645L52.0222 47.4207C52.1309 47.3455 52.6714 46.9383 53.0006 46.0588C53.7384 45.4662 53.9763 45.182 54.0663 45.0483L54.904 44.4926C55.6371 44.0055 56.5975 42.8955 55.9783 40.8005" fill="#055CA5"/>
<path d="M55.1248 40.8521C54.437 39.0178 53.4507 38.7195 53.4507 38.7195C53.4507 38.7195 51.6359 38.1376 49.4659 38.8209C46.3735 39.7945 42.3701 37.5692 38.3727 36.1199C37.6629 35.8619 23.0915 17.2064 23.8679 16.3135C23.8679 16.3135 21.0041 16.5265 20.1331 15.9291C17.7705 14.3105 11.0186 13.2946 7.75691 12.833C5.44763 16.1435 4.09006 20.1763 4.09006 24.5309C4.09006 27.9421 4.92513 31.1552 6.39601 33.9792C9.01852 32.8558 11.5511 30.9079 13.7704 30.4436C17.0427 29.7596 18.3263 30.0781 18.3263 30.0781C18.3263 30.0781 17.036 28.4964 14.5548 27.117C12.2842 25.8538 11.2878 25.9157 11.1352 25.9351C11.4504 25.8888 15.5458 25.3822 19.3846 29.982C23.3807 34.7707 22.2957 37.7157 22.0591 38.6187C21.8232 39.5224 21.0248 40.5061 21.0248 40.5061C21.0248 40.5061 24.3204 40.2393 26.785 41.352C29.2495 42.4633 30.879 44.5664 30.879 44.5664C30.879 44.5664 32.9597 44.9433 35.3983 43.8871C37.8375 42.8309 39.7589 42.6212 40.8026 43.7594C41.8476 44.8983 41.0119 46.6271 41.0119 46.6271C41.0119 46.6271 44.0009 47.6672 46.5228 46.8267C49.0447 45.9855 48.7355 46.0775 49.9997 46.0453C51.2633 46.0117 51.4613 46.5915 51.4613 46.5915C51.4613 46.5915 52.2697 46.0332 52.2644 44.5207C52.2597 43.0076 51.7792 42.2026 51.1414 41.8848C50.4596 41.5448 48.1277 41.4703 48.1277 41.4703C48.1277 41.4703 50.7935 41.2425 51.5819 41.5972C52.1237 41.8418 52.6636 42.7287 52.8482 43.6217C53.0328 44.5147 52.9262 44.9252 52.9262 44.9252C52.9262 44.9252 54.0192 43.8797 53.3967 41.9917C52.7749 40.1043 49.326 39.8207 49.326 39.8207C49.326 39.8207 52.2204 39.2893 53.444 40.5457C54.667 41.8022 54.357 43.6533 54.357 43.6533C54.357 43.6533 55.8133 42.6871 55.1248 40.8521Z" fill="#EF8621"/>
<path d="M44.8947 17.4342C44.7994 17.3146 44.7034 17.2018 44.6081 17.097L44.6881 17.0795L44.6388 15.862C44.4629 15.8385 44.2323 15.7592 43.9957 15.6423L43.929 15.6067C43.5258 15.3937 43.4378 15.1545 43.4038 15.0812C43.3632 14.8588 43.1733 14.6626 43.0826 14.4691L43.7058 14.2447L43.0473 13.5553C42.8334 13.3309 42.6128 13.1462 42.3688 12.9869C42.0609 12.7887 42.0283 12.618 41.7477 12.5542C41.7504 12.5508 41.9663 11.9576 42.1609 11.5672L42.4008 11.0451L41.4065 10.3517C41.4065 10.3517 41.4045 10.3537 41.4018 10.3564C41.3931 10.2697 41.3758 10.2005 41.3571 10.1407L41.1426 9.41305L40.4854 9.77924C40.4854 9.77924 40.4554 9.79402 40.4081 9.80813C40.2515 9.85382 40.1075 9.83769 39.9809 9.75908C39.9769 9.75706 39.9736 9.75505 39.9709 9.75236C40.0176 9.6939 40.1162 9.59715 40.3141 9.48024L41.1552 8.97967L42.2002 8.93868L41.7057 8.65245L41.7344 8.63565L41.6497 8.6202L40.3515 7.86834C40.2588 7.81459 39.4078 7.355 38.0735 7.74538C37.7316 7.84482 37.3837 7.99466 37.0405 8.18884C36.7666 8.34338 36.4927 8.52815 36.2208 8.74047L35.5996 8.35749C35.4857 8.4959 35.3524 8.6417 35.2371 8.75794C35.2164 8.72031 35.1937 8.67731 35.1691 8.62759L34.3993 7.08691L34.0874 8.48044C33.8248 8.15323 33.4549 7.91672 32.9444 7.84953L32.9218 7.84617L32.8991 7.84482C32.8418 7.84213 31.4742 7.77091 29.8761 8.23789C29.6221 8.3118 29.3729 8.39713 29.1356 8.48985L27.2156 9.21752L28.9344 9.60387C28.7531 9.72616 28.4518 9.86927 28.0606 9.98349C27.1942 10.2368 26.2825 10.2502 25.6807 10.0178L23.4761 9.16579L24.9896 10.9914C25.0262 11.0357 25.5801 11.6874 26.5338 12.0321C25.4628 12.446 22.8616 13.984 21.8979 14.9737L22.7696 15.5496C22.4064 15.6423 23.2168 15.0974 22.8809 15.1619L22.7923 14.6022L22.3298 14.5901C22.3891 14.5511 22.4251 14.5262 22.4304 14.5215L23.4901 13.7502L19.7979 12.7914L19.558 12.9896C17.6126 14.5914 15.0747 15.8459 15.0547 15.8512C15.0547 15.8512 16.8008 16.333 17.1614 16.3236L15.9078 16.8524C16.6282 16.9028 19.0274 17.0674 19.7925 17.023L18.403 17.701C18.7029 17.6983 19.9178 18.385 20.1524 18.4569C19.1967 19.0589 18.1111 20.5532 18.0684 20.5909L19.518 20.4303C19.6659 20.3476 17.5559 22.964 17.5559 22.964L19.7899 22.7383L20.1544 24.6579C20.2044 24.4832 21.0668 23.4713 21.1648 23.304C21.4827 24.9744 23.1295 27.7003 23.2575 27.9811C23.2575 27.9811 23.3008 24.8669 23.3468 24.3199C24.1172 26.5782 26.781 28.8983 26.893 29.0239C26.893 29.0239 25.9899 26.9269 26.0273 26.5292C26.5191 26.9975 28.7271 27.3731 28.7271 27.3731C29.6968 28.4951 31.3283 29.2672 31.3283 29.2672C31.5702 30.3436 33.0151 32.5259 34.212 33.482C34.0921 32.9028 34.2747 32.3781 34.2747 32.3781C34.2747 32.3781 34.516 33.3134 34.6766 33.7488C34.8299 34.16 35.0205 34.5235 35.2404 34.8258C35.5016 35.1913 36.7346 36.2402 36.7766 36.2731L36.6699 34.6014C36.656 34.5779 36.6333 34.5282 36.6033 34.4307C36.582 34.3595 36.564 34.2789 36.55 34.1969C36.4807 33.7683 36.5033 33.1965 36.5653 32.6227C37.8916 34.9878 39.725 34.5564 39.8196 34.5329L41.2752 34.1606L39.9776 33.3987C39.6144 33.1857 39.3025 32.9196 39.0405 32.6435C39.1818 32.6643 40.5621 33.0607 40.5621 33.0607C40.5481 33.0533 38.8313 31.082 38.1102 30.1595C38.1102 30.1595 39.1072 30.9684 39.1378 30.9906L40.2882 31.7384C39.9729 31.0605 39.743 29.0501 39.8463 28.7001C40.0216 29.9989 41.9136 31.5254 41.9136 31.5254C41.8283 31.3185 41.6804 29.6905 41.6351 29.5017L41.7677 29.3068C42.4655 28.2734 42.8154 27.2703 42.97 26.386C43.058 26.5076 44.0823 26.976 44.1036 26.9981C44.1036 26.9981 43.7424 24.1607 44.3842 22.7967C44.6041 22.3284 45.5485 21.0256 45.5485 21.0256C45.6771 20.7595 45.7598 20.48 45.8004 20.1723C45.9184 19.288 45.6038 18.342 44.8907 17.4342" fill="#055CA5"/>
<path d="M41.2305 16.4857C41.5677 16.7094 41.4477 17.0998 41.4477 17.0998C41.8329 16.7383 41.8043 16.1914 41.8043 16.1914C41.647 16.3459 41.2305 16.4857 41.2305 16.4857Z" fill="white"/>
<path d="M34.4723 18.1281C34.2284 18.0051 34.3117 17.6752 34.3117 17.6752L33.7719 17.5361C33.5706 17.6806 33.7192 18.5635 34.6549 18.5064C35.59 18.4493 35.6746 17.9326 35.6746 17.9326L34.9182 17.8721C34.9528 17.9729 34.7163 18.2524 34.4723 18.1288" fill="white"/>
<path d="M37.5336 20.0895C37.397 20.5927 38.2534 21.3298 38.2534 21.3298C37.391 20.9643 36.9345 20.0068 36.9345 20.0068C36.8952 20.8857 37.7656 21.5052 37.7656 21.5052C36.8259 21.143 36.6266 20.1896 36.6266 20.1896C36.4746 21.0133 37.2917 21.6752 37.2917 21.6752C36.7219 21.5079 36.4453 20.8172 36.4453 20.8172C36.5859 21.7 37.4443 22.1065 37.4443 22.1065C39.4084 23.1124 40.494 22.6582 41.1618 21.6846C41.831 20.711 40.2341 20.7755 39.1345 20.6297C38.0355 20.4839 37.5343 20.0888 37.5343 20.0888" fill="white"/>
<path d="M41.9207 23.1181C41.4228 23.1006 40.9316 23.3398 40.9316 23.3398C41.1869 23.6005 41.1083 23.8404 41.1083 23.8404C41.6894 23.5139 41.92 23.1188 41.92 23.1188" fill="white"/>
<path d="M32.8047 18.3223C33.6638 19.615 35.0993 19.9214 35.4492 19.5243C35.7964 19.1299 35.5272 18.5937 35.5272 18.5937C34.1143 19.7702 32.8047 18.3223 32.8047 18.3223Z" fill="white"/>
<path d="M41.1205 24.7964C41.1005 24.406 40.9072 24.1943 40.9072 24.1943C40.4014 24.748 39.7656 25.0497 39.7656 25.0497C40.4261 25.0698 41.1205 24.7964 41.1205 24.7964Z" fill="white"/>
<path d="M38.4469 24.2236C37.8318 24.3882 37.5039 24.8485 37.5039 24.8485C37.9924 25.0427 38.5089 25.0568 38.5089 25.0568C38.6042 24.5986 38.4469 24.2236 38.4469 24.2236Z" fill="white"/>
<path d="M41.1289 25.5331C41.4335 24.7315 39.666 25.3215 39.666 25.3215C40.2298 25.9631 40.3558 26.7157 40.3558 26.7157C40.9423 26.1997 41.1289 25.5331 41.1289 25.5331Z" fill="white"/>
<path d="M38.5761 23.9869C39.4159 23.6019 39.5225 23.3076 39.5225 23.3076C38.9127 23.3613 38.1836 23.2041 38.1836 23.2041C38.4755 23.5743 38.5761 23.9869 38.5761 23.9869Z" fill="white"/>
<path d="M40.7883 26.82C40.1499 27.3528 39.8706 26.8899 39.8706 26.8899C39.2768 27.6834 38.4124 27.4133 38.4124 27.4133C39.1895 27.2393 39.678 26.5586 39.678 26.5586C40.3718 25.7947 39.3288 25.5716 39.3288 25.5716C38.601 25.245 37.7906 25.1953 37.1235 24.9165C36.4517 24.6363 36.4264 24.9575 36.4264 24.9575C36.2231 25.8303 38.2591 26.9819 38.2591 26.9819C37.1215 26.7609 36.547 26.1582 36.547 26.1582C36.5117 28.6227 38.2358 29.8812 38.2358 29.8812C37.4447 28.6274 37.6373 27.891 37.6373 27.891C38.3058 29.6111 39.5008 30.4899 39.5008 30.4899C38.5544 28.4541 39.9379 27.5329 39.9379 27.5329L39.872 28.2438L40.7877 26.8193L40.7883 26.82Z" fill="white"/>
<path d="M41.4785 22.5809C41.8617 22.6763 42.99 22.5762 43.6179 22.0454C44.2457 21.5139 44.4023 20.0498 44.4023 20.0498C44.0844 20.1398 43.4559 20.5316 42.8128 21.2814C42.1683 22.0292 41.4792 22.5809 41.4792 22.5809" fill="white"/>
<path d="M32.3535 16.6016C32.4468 16.6728 35.6298 18.3103 36.4096 17.0101C37.1887 15.7073 34.1296 14.7129 34.1296 14.7129C34.4209 16.2274 32.3535 16.6009 32.3535 16.6009" fill="white"/>
<path d="M40.6294 16.354C41.5091 16.0738 41.7943 15.6901 41.7943 15.6901C40.1688 14.4082 39.0898 14.0742 39.0898 14.0742C40.3455 14.9067 40.63 16.354 40.63 16.354" fill="white"/>
<path d="M30.3869 13.0474C31.5698 14.0237 32.213 14.8044 32.213 14.8044C31.6545 14.7319 30.7921 14.1251 30.7921 14.1251C30.4955 14.7157 30.5495 15.215 30.5495 15.215L30.928 15.3695L30.9427 14.4665C32.0704 15.4394 32.8981 15.3191 32.8981 15.3191C32.9474 14.6022 30.2489 12.7686 30.2489 12.7686C29.2113 14.1876 29.4219 15.565 29.4219 15.565C29.4992 14.2333 30.3869 13.0467 30.3869 13.0467" fill="white"/>
<path d="M35.6247 18.1563L35.8893 19.0963L36.655 19.5485C36.4757 18.98 36.6843 17.989 36.6843 17.989C37.1782 17.7417 37.4948 17.9574 37.4948 17.9574C37.0182 18.5345 37.2088 19.0277 37.2088 19.0277C37.6574 20.0974 38.4898 19.4833 38.4898 19.4833C36.659 19.1003 37.9626 17.7538 37.9626 17.7538L37.1415 17.4514C36.9576 17.4299 36.8103 16.9186 36.8103 16.9186C36.599 17.4528 35.9926 17.6154 35.9926 17.6154C34.9482 17.9211 32.2617 16.793 32.2617 16.793C34.0292 20.1989 35.6247 18.1569 35.6247 18.1569M33.7712 17.5354L34.3111 17.6745C34.3111 17.6745 34.2278 18.0044 34.471 18.1274C34.715 18.251 34.9509 17.9715 34.9169 17.8714L35.6733 17.9312C35.6733 17.9312 35.5893 18.4479 34.6543 18.505C33.7179 18.5621 33.5693 17.6792 33.7706 17.5348" fill="#055CA5"/>
<path d="M30.907 16.0072C31.6821 16.2209 32.4739 15.7008 32.4739 15.7008L31.0423 14.6782L31.033 15.6793L30.4152 15.3447C30.2866 14.7857 30.7291 13.8632 30.7291 13.8632L31.8707 14.5902L30.4418 13.2168C29.3875 14.91 29.7974 15.5369 29.946 16.059C30.0953 16.5797 30.6458 17.1098 30.6458 17.1098L30.907 16.0079V16.0072Z" fill="#055CA5"/>
<path d="M31.1211 28.5229C31.1211 28.5229 27.3276 24.7099 28.8811 22.3911C30.4367 20.073 29.7882 18.8354 29.7882 18.8354C29.6482 20.5165 28.2627 21.1353 28.2627 21.1353C29.7109 19.5288 29.5863 18.2656 29.5863 18.2656C28.2087 19.8809 28.1254 20.4775 27.9181 20.9902C27.8775 21.0816 27.8328 21.1736 27.7815 21.2711C27.6729 21.4552 27.5182 21.6487 27.2463 21.8966C26.6705 22.4193 26.4359 23.0852 26.4426 23.5522C26.4432 23.5636 26.4379 23.5764 26.4399 23.5858C26.5539 26.3271 27.9574 26.5946 27.9574 26.5946C27.4289 24.6044 27.8728 24.2839 27.8728 24.2839C28.4073 27.1737 31.1204 28.5229 31.1204 28.5229" fill="#EF8621"/>
<path d="M21.6871 15.1904L16.8633 16.7358C19.1572 16.8971 22.2983 16.379 22.2983 16.379C21.8297 16.4509 19.3412 17.7188 19.3412 17.7188C20.6054 17.7081 21.4492 18.4431 21.4492 18.4431C20.1296 19.0586 18.7973 20.2243 18.7973 20.2243C20.8987 19.0525 22.137 19.1352 22.137 19.1352C21.3079 19.6223 18.3402 22.5189 18.3402 22.5189L20.4615 21.8974L20.3462 23.649C20.6428 22.6109 21.6984 21.7435 21.6984 21.7435C21.3812 23.3111 23.0174 26.8869 23.0174 26.8869C22.3482 24.3431 22.9954 23.1303 22.9954 23.1303C22.5555 21.4882 23.3733 19.9542 23.3733 19.9542C21.6225 21.2342 20.2422 21.376 20.2422 21.376C22.9554 19.2709 24.6768 16.9313 24.6768 16.9313L22.8647 17.3378C23.1567 16.3878 24.4582 15.4263 24.4582 15.4263C22.2663 16.039 20.3309 16.0995 20.3309 16.0995L22.7788 15.2193L21.6878 15.1911L21.6871 15.1904Z" fill="#EF8621"/>
<path d="M43.8475 22.5026C43.0684 22.9938 42.4199 23.1342 42.4199 23.1342C42.8538 25.418 43.5816 26.1618 43.5816 26.1618C42.8231 24.4142 43.8475 22.502 43.8475 22.502" fill="#EF8621"/>
<path d="M42.2023 23.446C41.064 24.1058 41.322 24.5486 41.322 24.5486C42.1744 24.9114 41.6845 25.7506 41.6845 25.7506C41.1047 26.6315 40.6975 27.208 40.4709 28.1097C40.2423 29.012 41.2626 30.3317 41.2626 30.3317C40.4222 28.2864 41.4546 26.9258 41.4546 26.9258C41.1767 28.6432 41.262 28.9576 41.262 28.9576C43.2087 26.0772 42.2017 23.4453 42.2017 23.4453" fill="#EF8621"/>
<path d="M21.1299 15.0874C20.2642 15.3515 18.9826 14.9732 18.9826 14.9732C21.0819 15.1103 23.5618 14.2523 23.5618 14.2523L19.9463 13.4668C17.8709 15.1755 15.7402 15.8003 15.7402 15.8003C17.681 16.0892 21.1292 15.0868 21.1292 15.0868" fill="#EF8621"/>
<path d="M41.094 17.2616C41.094 17.2616 41.4633 16.718 40.7295 16.4895C40.7295 16.4895 41.9264 16.1193 42.2297 15.692C42.2297 15.692 40.099 14.0163 38.5168 13.6219L38.7114 14.0458C38.7114 14.0458 37.3579 13.3296 35.8797 13.7502C35.8797 13.7502 37.3559 14.1567 37.6285 14.5995C37.6285 14.5995 35.933 13.8422 34.74 14.2958C35.6424 14.6425 36.7494 15.1437 36.992 15.6013C36.992 15.6013 35.6811 14.6304 33.6437 14.2716L33.3851 14.9811C33.3851 14.9811 31.8902 12.9318 30.0668 12.3184C30.0668 12.3184 28.4013 14.3253 28.6333 15.9668C28.6333 15.9668 28.6832 16.4069 29.7096 16.1442C29.7096 16.1442 27.2404 17.5606 27.5716 20.9624C27.5716 20.9624 28.2727 18.7035 29.6736 17.7238C29.6736 17.7238 31.2531 19.4258 29.5783 21.895C29.5783 21.895 30.2434 22.8874 31.2751 22.9385C31.9722 22.9728 32.9313 23.3524 33.5224 24.3797C33.9909 24.2171 35.3238 23.8603 36.0056 24.7936C36.0056 24.7936 36.5795 24.5766 35.7404 23.2355C35.7404 23.2355 36.1309 22.6959 36.99 22.317C36.99 22.317 34.3795 20.5566 36.4868 19.8686C36.4868 19.8686 34.9186 21.8191 38.4835 22.8115C38.4835 22.8115 40.6768 23.5734 41.6332 21.3293C41.6332 21.3293 41.8378 20.5754 40.4349 20.4928C39.0307 20.4101 38.938 20.2784 38.9181 19.9579C38.9181 19.9579 39.016 19.8135 39.4159 19.9861C39.8191 20.1581 42.3976 20.443 43.7366 19.8208C43.7366 19.8208 44.9215 19.2531 42.5349 17.789C42.5349 17.789 41.7498 17.185 41.0927 17.2622M34.1269 14.7144C34.1269 14.7144 37.1859 15.7095 36.4068 17.0116C35.6271 18.3118 32.4447 16.6743 32.3514 16.6031C32.3514 16.6031 34.4188 16.2295 34.1275 14.715M30.6453 17.1111C30.6453 17.1111 30.0948 16.5809 29.9455 16.0602C29.7962 15.5388 29.387 14.9112 30.4414 13.218L31.8703 14.5914L30.7286 13.8651C30.7286 13.8651 30.2861 14.7876 30.414 15.3466L31.0325 15.6806L31.0412 14.6801L32.4727 15.7021C32.4727 15.7021 31.6803 16.2228 30.9059 16.0091L30.6453 17.1117V17.1111ZM35.4471 19.5266C35.0972 19.9236 33.6624 19.6173 32.8026 18.3245C32.8026 18.3245 34.1122 19.7725 35.5251 18.596C35.5251 18.596 35.7944 19.1321 35.4471 19.5272M35.8883 19.0992L35.6237 18.1586C35.6237 18.1586 34.0289 20.1998 32.2608 16.7939C32.2608 16.7939 34.9473 17.9227 35.9916 17.617C35.9916 17.617 36.5974 17.4544 36.8094 16.9202C36.8094 16.9202 36.9567 17.4316 37.1406 17.4531L37.9617 17.7561C37.9617 17.7561 36.6581 19.1033 38.4882 19.4856C38.4882 19.4856 37.6564 20.0997 37.2079 19.0293C37.2079 19.0293 37.0166 18.5368 37.4938 17.9597C37.4938 17.9597 37.1773 17.744 36.6834 17.9906C36.6834 17.9906 36.4755 18.981 36.6541 19.5507L35.8883 19.0986V19.0992ZM39.1313 20.6325C40.231 20.7783 41.8278 20.7138 41.1587 21.6867C40.4909 22.6603 39.4059 23.1145 37.4418 22.1094C37.4418 22.1094 36.5834 21.7029 36.4422 20.8206C36.4422 20.8206 36.7194 21.5114 37.2886 21.678C37.2886 21.678 36.4715 21.0155 36.6234 20.1917C36.6234 20.1917 36.8227 21.1458 37.7624 21.5073C37.7624 21.5073 36.892 20.8885 36.9313 20.0097C36.9313 20.0097 37.3879 20.9664 38.2503 21.332C38.2503 21.332 37.3945 20.5949 37.5312 20.0916C37.5312 20.0916 38.0323 20.486 39.1313 20.6325ZM39.0887 14.0761C39.0887 14.0761 40.1677 14.4107 41.7932 15.6927C41.7932 15.6927 41.5072 16.0757 40.6282 16.3558C40.6282 16.3558 40.3436 14.9086 39.088 14.0761" fill="#EF8621"/>
<path d="M44.4149 17.8204C43.897 17.1673 43.3252 16.7453 43.3252 16.7453L43.8797 16.6237L44.5588 16.4752C44.2796 16.4382 43.9503 16.3166 43.6444 16.1547V16.1534C43.1666 15.9007 42.7487 15.5439 42.6934 15.2208C42.5994 14.6906 42.1702 14.139 42.1702 14.139L42.4182 14.0503L42.6054 13.9831C42.4108 13.7795 42.2222 13.627 42.0383 13.5067C40.8933 12.7683 39.9336 13.4429 39.9336 13.4429C40.5541 13.965 41.8143 14.1168 42.1962 15.1542C42.5821 16.1917 43.3012 16.4087 43.3012 16.4087C42.5848 16.1285 42.1616 16.3341 42.1616 16.3341L41.9036 17.0074C45.1953 18.4056 45.0013 20.7539 45.0013 20.7539C45.1093 20.5322 45.1673 20.3098 45.196 20.0901C45.3113 19.226 44.8907 18.4257 44.4155 17.8204" fill="#EF8621"/>
<path d="M36.9922 12.9805C38.0472 13.0356 39.4414 13.4065 39.4414 13.4065C39.5354 12.7588 39.1495 11.7637 39.1495 11.7637C38.3118 12.5935 36.9922 12.9805 36.9922 12.9805Z" fill="#EF8621"/>
<path d="M28.6864 11.4757C30.6711 10.8676 32.2539 11.4622 32.9697 12.366C32.9697 12.366 31.3829 11.5456 29.9313 11.8392L31.986 13.0533L33.215 14.4079L33.5829 14.1001L34.4046 14.344L34.4692 14.3091L34.6012 14.2433C34.5519 14.2251 34.5039 14.2063 34.4566 14.1895C34.5606 14.08 34.7978 13.9046 35.3316 13.7716C35.3316 13.7716 35.369 13.3866 36.3267 13.1313C36.3267 13.1313 36.5953 12.5601 37.2777 12.2618C37.9582 11.9648 38.31 11.6799 38.3807 11.5314C38.3807 11.5314 36.6246 11.4387 35.2103 13.1689L35.2037 12.6905C35.2037 12.6905 34.4659 13.2354 34.5126 12.7093C34.5126 12.7093 34.5159 11.7989 34.7725 11.471C34.7725 11.471 34.5272 12.6871 34.9124 12.5239C34.9124 12.5239 35.4209 12.2484 35.7995 11.6416L35.4676 12.5843C35.4676 12.5843 36.194 11.6652 37.331 11.3265C38.4687 10.9892 38.3507 11.3124 39.3677 10.83C39.3677 10.83 39.8422 12.3015 39.9255 12.9297C39.9255 12.9297 40.4361 12.8853 41.0245 12.1926C41.2165 11.9682 41.4191 11.6739 41.6117 11.2889L41.8429 10.785C41.8429 10.785 41.3744 11.264 40.6706 11.7854C40.5307 11.8862 40.3881 11.989 40.2328 12.0898C40.2328 12.0898 40.3554 11.8667 40.4847 11.5711C40.6666 11.1646 40.8626 10.619 40.7713 10.3254C40.7713 10.3254 40.2201 10.6331 39.6596 10.2857C39.0991 9.93836 39.2471 9.39546 40.0015 8.94663C40.0015 8.94663 39.2611 8.81158 38.1688 9.3706C37.7596 9.57688 37.303 9.87923 36.8152 10.3281C36.8152 10.3281 37.1118 9.67498 37.8609 9.12805C38.3674 8.75917 39.0745 8.44136 40.0455 8.40306C40.0455 8.40306 38.9912 7.7923 37.341 8.72692C36.7512 9.05951 36.0874 9.58494 35.3656 10.4141L36.0727 8.75178C36.0727 8.75178 35.411 9.55336 35.1817 9.54731C34.9524 9.54127 34.7425 9.1435 34.6232 8.90363C34.6232 8.90363 34.3186 10.2636 34.0241 10.9657C34.0241 10.9657 34.3026 8.64898 32.8664 8.46017C32.8664 8.46017 31.1469 8.36342 29.3595 9.06489C29.3595 9.06489 30.1186 9.2725 29.5281 9.90678C28.939 10.5411 26.8323 11.1229 25.4627 10.5935C25.4627 10.5935 26.7003 12.0864 28.6864 11.4764" fill="#EF8621"/>
<path d="M39.3211 32.0497C39.3211 32.0497 36.6052 30.6078 36.2513 27.0548C36.2513 27.0548 36.2333 25.8998 35.8995 25.1472C35.8995 25.1472 35.8481 26.5441 34.124 28.3213C34.124 28.3213 35.2217 26.311 35.1743 25.2689C35.129 24.2872 34.5312 24.4854 33.7288 24.7999C33.9014 25.2245 34.0187 25.7311 34.052 26.3412C34.052 26.3412 33.4595 24.3712 32.1406 24.001C32.1406 24.001 33.4869 25.7338 33.3189 27.6246C33.1496 29.516 32.5652 30.081 33.8301 32.4959C33.8301 32.4959 33.7015 31.9819 33.6881 31.8072C33.6382 31.1736 33.8174 30.2181 33.8174 30.2181C34.0474 31.4383 34.5852 32.1525 34.5852 32.1525C34.224 29.7471 35.3763 28.5054 35.3763 28.5054C34.6818 30.9182 34.8844 32.5274 35.2537 33.5293C35.4063 33.9378 35.5816 34.2428 35.7415 34.4625C35.9634 34.7723 36.1447 34.9134 36.1447 34.9134C36.0934 34.8254 36.0541 34.7199 36.0188 34.6057C35.9901 34.5082 35.9668 34.4034 35.9481 34.2939C35.7168 32.8567 36.352 30.3364 36.352 30.3364C37.4103 34.5089 39.6723 33.9311 39.6723 33.9311C38.0861 32.9991 37.397 31.2461 37.397 31.2461C38.408 32.0275 39.3231 32.0491 39.3231 32.0491" fill="#EF8621"/>
<path d="M26.1768 20.3716C26.1768 20.3716 26.1508 19.6063 26.4314 18.6246C26.4314 18.6246 26.2821 20.473 26.9292 21.5091C26.9292 21.5091 26.3467 18.585 28.5814 16.7077C28.5814 16.7077 27.9289 16.5384 27.8623 16.3502C27.8256 16.2468 27.8023 15.5083 28.1582 14.5166C24.6166 14.8606 23.8055 16.8374 23.8055 16.8374C25.7063 15.5527 26.5933 15.9269 26.5933 15.9269C25.8242 16.1681 24.8878 17.0322 24.2207 18.0112C23.5516 18.9908 21.7715 20.5637 21.7715 20.5637C23.0304 19.9664 24.5513 18.5487 24.5513 18.5487C21.5042 22.7676 26.1781 27.9816 26.1781 27.9816C23.0051 23.3575 24.9312 20.0188 24.9312 20.0188C24.0201 26.2346 26.9339 26.3663 26.9339 26.3663C26.9339 26.3663 26.0901 25.3665 26.0162 23.7741C25.9429 22.181 26.6193 23.2043 26.1761 20.3723" fill="#EF8621"/>
<path d="M23.7186 14.5137C23.7186 14.5137 26.2578 13.0073 27.6347 13.0396C27.6347 13.0396 26.6737 13.651 26.3365 13.823C25.728 14.1368 25.2628 14.7845 25.2628 14.7845C26.5111 14.1133 27.8833 13.9218 28.3911 13.954C28.3911 13.954 29.0309 12.8434 29.932 11.8389C29.932 11.8389 26.0159 12.1553 23.7193 14.5137" fill="#EF8621"/>
<path d="M31.4184 23.4261C30.8426 23.6102 30.4787 23.5551 30.1228 23.2911C30.1228 23.2911 29.7163 25.8315 31.4164 28.0542C31.4164 28.0542 29.1058 25.5715 29.8822 23.0499C29.571 22.7898 29.3897 22.5137 29.3897 22.5137C28.0341 25.3935 31.655 28.9008 31.655 28.9008C31.6183 27.9937 31.4097 26.9805 31.3024 26.3167C31.2238 25.8295 31.0512 24.309 31.0512 24.309C31.8856 25.7469 31.8789 27.4401 31.8789 27.4401C31.9702 29.9409 32.9692 31.1779 32.9692 31.1779C32.5027 30.1243 32.7067 29.2535 32.8053 27.344C32.9006 25.4338 31.4184 23.4254 31.4184 23.4254" fill="#EF8621"/>
<path d="M18.7559 18.3389C18.7918 18.3557 18.8272 18.3725 18.8625 18.3899C18.8305 18.3731 18.7945 18.3563 18.7559 18.3389Z" fill="#055CA5"/>
<path d="M9.30313 17.859C12.4202 16.1416 14.5595 16.6744 14.5595 16.6744C12.5928 15.5591 7.46304 15.2412 4.65524 15.9622C4.53395 16.2034 4.41665 16.446 4.30469 16.6919C4.74588 16.5884 5.27505 16.4843 5.89353 16.3996C9.18716 15.9467 12.003 16.3862 12.003 16.3862C12.003 16.3862 9.64902 17.1165 8.06751 17.9215C6.62063 18.6586 6.20476 19.1 6.20476 19.1C13.4485 17.3107 17.6419 17.8509 18.7562 18.3394C14.3262 16.2175 8.28545 18.4194 9.30313 17.859Z" fill="#055CA5"/>
<path d="M37.7596 41.443C35.405 41.4134 33.0444 42.1081 33.0444 42.1081C32.3073 40.7314 30.8924 39.7404 29.5462 39.0584C27.866 38.2118 25.1489 38.1923 25.1489 38.1923C26.4298 32.1982 23.2568 28.6674 23.2568 28.6674C22.8263 27.9854 21.9586 27.0306 21.3494 26.4198C16.6322 22.2695 11.0066 23.1208 8.1362 23.8632C8.1362 23.8632 9.59775 23.7235 10.7161 23.9244C11.9883 24.1555 13.1866 24.2724 13.1866 24.2724C10.6954 24.1743 6.05618 26.3137 2.30469 26.0295C2.30602 26.2384 2.31002 26.4474 2.31735 26.657C4.89121 26.9379 8.63805 26.2203 11.0246 25.6169C16.8781 24.1354 20.4124 27.1065 21.9392 29.5953C25.2869 35.0437 23.3095 39.1988 23.3095 39.1988C25.3755 39.0886 27.019 39.5374 28.3059 40.1865C30.9098 41.4974 32.0194 43.6287 32.0194 43.6287C32.7752 43.6824 33.7715 43.5527 34.6766 43.3868C35.9389 43.153 37.0219 42.8452 37.0219 42.8452C39.2985 42.264 40.6201 42.6934 41.3905 43.323C42.2882 44.0594 42.4355 45.0672 42.4355 45.0672C42.4295 44.1669 42.1922 43.4788 41.7977 42.9541C40.9446 41.8212 39.3531 41.4665 37.7596 41.443Z" fill="#055CA5"/>
<path d="M30.0363 22.7236C30.2089 22.731 29.9283 23.0891 29.9283 23.0891C29.9283 23.0891 29.8643 23.7516 29.885 24.265" fill="#055CA5"/>
<path d="M47.3799 42.1387C47.3799 42.1387 48.0244 42.8576 49.4306 43.0538C50.8361 43.2487 51.0068 43.1828 51.2827 43.9582C51.5619 44.743 50.9521 45.0594 50.9521 45.0594C50.9521 45.0594 50.3303 44.5374 49.3726 44.786C48.4142 45.0339 47.4672 46.2097 45.0426 46.3031C42.6174 46.3965 41.793 45.8321 41.793 45.8321C41.793 45.8321 44.8307 46.461 46.3262 45.7502C47.8224 45.0386 48.7308 44.1 49.6119 44.0274C50.4923 43.9535 50.7542 44.2209 50.7542 44.2209C50.7542 44.2209 50.5602 43.5087 49.036 43.3326C47.961 43.209 47.3799 42.1387 47.3799 42.1387Z" fill="#055CA5"/>
</g>
<defs>
<clipPath id="clip0_1188_5863">
<rect width="186" height="49" fill="white" transform="translate(0 0.015625)"/>
</clipPath>
</defs>
</svg>
