<svg width="186" height="49" viewBox="0 0 186 49" fill="none" xmlns="http://www.w3.org/2000/svg">
<g clip-path="url(#clip0_1188_5189)">
<path fill-rule="evenodd" clip-rule="evenodd" d="M182.801 6.62834C181.035 6.62834 179.602 8.07294 179.602 9.85214C179.602 11.6313 181.034 13.0759 182.801 13.0759C184.569 13.0759 186 11.632 186 9.85214C186 8.07294 184.569 6.62834 182.801 6.62834ZM182.801 12.5451C181.326 12.5451 180.129 11.3391 180.129 9.85214C180.129 8.36522 181.325 7.15982 182.801 7.15982C184.278 7.15982 185.473 8.36589 185.473 9.85214C185.473 11.3384 184.278 12.5451 182.801 12.5451Z" fill="#015AAB"/>
<path fill-rule="evenodd" clip-rule="evenodd" d="M183.835 9.77353C184.004 9.60555 184.089 9.36703 184.089 9.05392C184.089 8.68706 183.985 8.41897 183.775 8.25099C183.565 8.08369 183.242 8.00037 182.8 8.00037H181.414V11.7046H181.968V10.1081H182.601L183.571 11.7046H184.187L183.151 10.0745C183.437 10.0416 183.664 9.94084 183.835 9.77353ZM181.968 9.63041V8.4781H182.72C182.958 8.4781 183.152 8.51573 183.3 8.59165C183.448 8.66825 183.523 8.81204 183.523 9.02167C183.523 9.2313 183.469 9.38718 183.36 9.48394C183.251 9.58204 183.01 9.63041 182.635 9.63041H181.969H181.968Z" fill="#015AAB"/>
<path d="M65.6033 33.944C65.3941 34.0797 65.2561 34.2228 65.1888 34.3733C65.1215 34.5238 65.0882 34.7637 65.0882 35.0916V40.6899C64.6156 40.5327 64.1718 40.19 63.7566 39.6599L60.3583 35.322V39.2251C60.3583 39.5483 60.3936 39.7875 60.4636 39.9441C60.5342 40.1006 60.6675 40.2437 60.8648 40.3734H59.1387C59.3473 40.2377 59.4859 40.0953 59.5532 39.9441C59.6199 39.7936 59.6545 39.5537 59.6545 39.2251V35.0909C59.6545 34.7691 59.6192 34.5292 59.5492 34.3726C59.4786 34.2168 59.3453 34.073 59.148 33.9433H60.5602C60.5749 33.9796 60.6529 34.0998 60.7935 34.3048L64.3797 38.9093V35.0909C64.3797 34.7691 64.3444 34.5305 64.2744 34.3773C64.2038 34.2241 64.0691 34.079 63.8685 33.9433H65.6033V33.944Z" fill="#015AAB"/>
<path d="M71.3872 38.0876C71.3872 38.7649 71.1399 39.3373 70.6454 39.805C70.1509 40.272 69.5384 40.5058 68.8093 40.5058C68.0802 40.5058 67.507 40.2814 67.0359 39.8339C66.5653 39.3871 66.3301 38.8227 66.3301 38.142C66.3301 37.3646 66.6333 36.7431 67.2398 36.2761C67.703 35.918 68.2755 35.7379 68.9573 35.7379C69.639 35.7379 70.1842 35.9476 70.6387 36.3662C71.1379 36.8365 71.3872 37.4103 71.3872 38.0876ZM70.3961 38.228C70.3961 37.6791 70.2495 37.237 69.9569 36.8997C69.6644 36.5624 69.2785 36.3937 68.8006 36.3937C68.3668 36.3937 68.0122 36.5456 67.7356 36.8479C67.4591 37.1503 67.3211 37.5427 67.3211 38.0244C67.3211 38.5485 67.4697 38.9832 67.7676 39.3279C68.0649 39.6726 68.4394 39.8446 68.8899 39.8446C69.3405 39.8446 69.7017 39.6961 69.9796 39.3971C70.2569 39.0988 70.3961 38.7091 70.3961 38.2274M70.3335 35.2542C69.9063 35.2179 69.4191 34.9941 68.872 34.5809C68.3521 34.9941 67.8569 35.2179 67.3877 35.2542L68.872 33.7679L70.3335 35.2542ZM69.4418 41.7018C69.4418 41.8617 69.3845 42.0001 69.2718 42.117C69.1579 42.2353 69.0219 42.2937 68.8633 42.2937C68.7047 42.2937 68.5601 42.2366 68.4468 42.1217C68.3335 42.0075 68.2761 41.8677 68.2761 41.7018C68.2761 41.5358 68.3348 41.4048 68.4507 41.2906C68.5674 41.1763 68.708 41.1186 68.872 41.1186C69.0246 41.1186 69.1572 41.1757 69.2712 41.2906C69.3845 41.4048 69.4411 41.5419 69.4411 41.7018" fill="#015AAB"/>
<path d="M73.7494 40.3734H72.1445C72.3145 40.2377 72.4184 40.1215 72.4558 40.0254C72.4931 39.9293 72.5118 39.7237 72.5118 39.4106V36.8311C72.5118 36.5147 72.4931 36.3091 72.4558 36.2143C72.4178 36.1196 72.3145 36.0047 72.1445 35.869H72.817C73.0802 35.869 73.2682 35.8072 73.3821 35.6842V39.4113C73.3821 39.7244 73.4008 39.93 73.4381 40.026C73.4755 40.1221 73.5794 40.2384 73.75 40.3741M73.5301 34.6629C73.5301 34.8383 73.4715 34.9841 73.3548 35.101C73.2382 35.2186 73.0949 35.277 72.925 35.277C72.755 35.277 72.6204 35.2186 72.5038 35.101C72.3871 34.9841 72.3285 34.8376 72.3285 34.6629C72.3285 34.4976 72.3885 34.3565 72.5077 34.2389C72.627 34.1213 72.7723 34.0622 72.9429 34.0622C73.1009 34.0622 73.2382 34.1227 73.3548 34.243C73.4715 34.3632 73.5301 34.5037 73.5301 34.6629Z" fill="#015AAB"/>
<path d="M83.3716 33.944C83.1623 34.0797 83.0243 34.2228 82.957 34.3733C82.8904 34.5238 82.8564 34.7637 82.8564 35.0916V40.6899C82.3839 40.5327 81.94 40.19 81.5248 39.6599L78.1265 35.322V39.2251C78.1265 39.5483 78.1619 39.7875 78.2318 39.9441C78.3018 40.1006 78.4358 40.2437 78.6324 40.3734H76.9062C77.1149 40.2377 77.2541 40.0953 77.3208 39.9441C77.3881 39.7936 77.4221 39.5537 77.4221 39.2251V35.0909C77.4221 34.7691 77.3868 34.5292 77.3168 34.3726C77.2461 34.2168 77.1129 34.073 76.9156 33.9433H78.3278C78.3425 33.9796 78.4204 34.0998 78.5611 34.3048L82.1473 38.9093V35.0909C82.1473 34.7691 82.112 34.5305 82.042 34.3773C81.9713 34.2241 81.8367 34.079 81.6361 33.9433H83.3709L83.3716 33.944Z" fill="#015AAB"/>
<path d="M89.3879 35.7379L89.1093 36.3655C89.0673 36.4468 88.9767 36.4878 88.8361 36.4878C88.6595 36.4878 88.3042 36.4414 87.7691 36.348C88.2469 36.6887 88.4862 37.0918 88.4862 37.5588C88.4862 38.1763 88.1183 38.6211 87.3832 38.8919C87.1379 38.9799 86.8167 39.0444 86.4188 39.086C86.1616 39.1364 86.0329 39.2211 86.0329 39.3387C86.0329 39.4623 86.1669 39.5241 86.4362 39.5241C87.1773 39.5302 87.7164 39.5812 88.055 39.6773C88.4462 39.7949 88.7468 39.9924 88.956 40.2693C89.0967 40.4561 89.1666 40.6946 89.1666 40.9828C89.1666 41.5647 88.8547 42.0095 88.2296 42.3166C87.7331 42.5638 87.1633 42.6868 86.5215 42.6868C85.7744 42.6868 85.1452 42.5504 84.6341 42.2803C84.1229 42.0095 83.867 41.6762 83.867 41.2818C83.867 41.0406 83.9463 40.8505 84.1055 40.7121C84.2642 40.573 84.4841 40.5038 84.7687 40.5038C84.9326 40.5038 85.1066 40.5434 85.2892 40.6214C85.0019 40.6785 84.8586 40.8276 84.8586 41.0688C84.8586 41.3947 85.0073 41.6507 85.3045 41.8388C85.6024 42.0276 86.005 42.1217 86.5128 42.1217C87.0206 42.1217 87.4345 42.0229 87.7524 41.8261C88.071 41.6285 88.2303 41.3739 88.2303 41.0601C88.2303 40.4366 87.5751 40.1248 86.2662 40.1248C86.0389 40.1248 85.8823 40.1282 85.7957 40.1335C85.7084 40.1396 85.6357 40.1423 85.5758 40.1423C85.3905 40.1423 85.2385 40.0865 85.1186 39.975C84.9633 39.8332 84.8853 39.6572 84.8853 39.4469C84.8853 39.3535 84.9326 39.2749 85.0293 39.2097C85.1246 39.1445 85.3338 39.0471 85.6571 38.9181C85.3705 38.8395 85.1386 38.7239 84.9619 38.5694C84.6061 38.2536 84.4281 37.8652 84.4281 37.4043C84.4281 36.9433 84.6194 36.5315 85.0019 36.213C85.3845 35.8958 85.857 35.7366 86.4188 35.7366C86.5534 35.7366 86.836 35.7521 87.2666 35.7816C87.6071 35.8058 87.9164 35.8179 88.1943 35.8179C88.5595 35.8179 88.9567 35.791 89.3872 35.7366M87.5398 37.4856C87.5398 37.151 87.4225 36.8708 87.1879 36.643C86.9533 36.4159 86.6641 36.3017 86.3202 36.3017C86.0389 36.3017 85.8037 36.3897 85.6144 36.5664C85.4245 36.7418 85.3298 36.9628 85.3298 37.2282C85.3298 37.5655 85.4518 37.8571 85.6951 38.1051C85.939 38.3523 86.2289 38.4753 86.5675 38.4753C86.854 38.4753 87.0879 38.3839 87.2692 38.2018C87.4498 38.0197 87.5405 37.7805 87.5405 37.4856" fill="#015AAB"/>
<path d="M94.8344 38.0869C94.8344 38.7642 94.5872 39.3373 94.0927 39.8043C93.5982 40.2713 92.9857 40.5051 92.2566 40.5051C91.5275 40.5051 90.9543 40.2814 90.4838 39.8345C90.0133 39.3871 89.7773 38.8227 89.7773 38.142C89.7773 37.3646 90.0806 36.7431 90.6877 36.2761C91.1509 35.918 91.7234 35.7379 92.4039 35.7379C93.0843 35.7379 93.6308 35.9476 94.086 36.3662C94.5852 36.8365 94.8344 37.4096 94.8344 38.0876M93.8441 38.228C93.8441 37.6791 93.6975 37.237 93.4049 36.8997C93.1116 36.5624 92.7258 36.3937 92.2479 36.3937C91.8154 36.3937 91.4595 36.5449 91.1836 36.8479C90.907 37.1503 90.7684 37.5427 90.7684 38.0251C90.7684 38.5492 90.9177 38.9839 91.2149 39.3286C91.5121 39.6726 91.8867 39.8453 92.3372 39.8453C92.7877 39.8453 93.149 39.6968 93.4269 39.3978C93.7041 39.0995 93.8441 38.7091 93.8441 38.228Z" fill="#015AAB"/>
<path d="M100.153 39.8003L99.7314 40.4372C99.3036 40.407 99.003 40.3358 98.8277 40.2209C98.6531 40.1067 98.5451 39.9575 98.5031 39.7734C98.4705 39.6619 98.4538 39.4684 98.4538 39.1909V37.9304C98.2359 38.0365 97.8233 38.1595 97.2162 38.3013C96.7497 38.4128 96.5164 38.6627 96.5164 39.0518C96.5164 39.2984 96.6077 39.4925 96.7877 39.6343C96.9683 39.7754 97.2215 39.846 97.5474 39.846C97.7534 39.846 97.994 39.8036 98.2692 39.7197L97.7 40.4473C97.5294 40.4863 97.3528 40.5065 97.1709 40.5065C96.6864 40.5065 96.3038 40.3795 96.0232 40.1268C95.6913 39.8278 95.5254 39.467 95.5254 39.0424C95.5254 38.5929 95.706 38.2663 96.0679 38.0614C96.3131 37.9257 96.7397 37.7993 97.3462 37.6818C97.7734 37.6005 98.0619 37.5138 98.2112 37.4224C98.3605 37.3304 98.4358 37.196 98.4358 37.0179C98.4358 36.8311 98.3505 36.6806 98.1806 36.5657C98.01 36.4515 97.786 36.3944 97.5081 36.3944C97.1669 36.3944 96.7264 36.5241 96.1852 36.7828L96.8303 35.8018C97.0423 35.7594 97.2655 35.7386 97.4981 35.7386C98.3199 35.7386 98.8657 35.9577 99.1343 36.3944C99.2636 36.6047 99.3275 36.9937 99.3275 37.5595V38.82C99.3275 39.0793 99.3362 39.246 99.3542 39.3212C99.3902 39.4751 99.4855 39.5974 99.6408 39.6874C99.7541 39.7566 99.9247 39.7942 100.151 39.8003M98.3758 41.7024C98.3758 41.8624 98.3185 42.0008 98.2052 42.1177C98.0919 42.2359 97.956 42.2944 97.7974 42.2944C97.6387 42.2944 97.4941 42.2373 97.3808 42.1224C97.2669 42.0082 97.2102 41.8684 97.2102 41.7024C97.2102 41.5365 97.2688 41.4055 97.3855 41.2912C97.5014 41.177 97.6421 41.1192 97.8067 41.1192C97.9586 41.1192 98.0919 41.1763 98.2052 41.2912C98.3185 41.4055 98.3758 41.5425 98.3758 41.7024Z" fill="#015AAB"/>
<path d="M102.201 40.3734H100.596C100.766 40.2377 100.87 40.1215 100.907 40.0254C100.944 39.9293 100.963 39.7237 100.963 39.4106V36.8311C100.963 36.5147 100.944 36.3091 100.907 36.2143C100.87 36.1196 100.766 36.0047 100.596 35.869H101.268C101.531 35.869 101.719 35.8072 101.833 35.6842V39.4113C101.833 39.7244 101.852 39.93 101.889 40.026C101.926 40.1221 102.03 40.2384 102.201 40.3741M101.981 34.6629C101.981 34.8383 101.923 34.9841 101.807 35.101C101.69 35.2186 101.546 35.277 101.376 35.277C101.206 35.277 101.071 35.2186 100.955 35.101C100.839 34.9841 100.78 34.8376 100.78 34.6629C100.78 34.4976 100.84 34.3565 100.959 34.2389C101.078 34.1213 101.224 34.0622 101.393 34.0622C101.552 34.0622 101.69 34.1227 101.807 34.243C101.923 34.3632 101.981 34.5037 101.981 34.6629Z" fill="#015AAB"/>
<path d="M109.956 33.8768L109.647 35.0425C109.561 34.8766 109.432 34.7704 109.262 34.722C109.157 34.6884 108.982 34.6723 108.737 34.6723C108.689 34.6723 108.608 34.6777 108.495 34.6878C108.381 34.6978 108.236 34.7039 108.06 34.7039H107.903V39.2271C107.903 39.5497 107.936 39.7862 108.004 39.9367C108.071 40.0872 108.208 40.2337 108.414 40.3748H106.495C106.705 40.2632 106.836 40.0811 106.89 39.8278C106.917 39.7109 106.931 39.4771 106.931 39.1277V34.7046C106.739 34.6837 106.479 34.6736 106.15 34.6736C105.854 34.6736 105.633 34.6931 105.487 34.7328C105.299 34.7805 105.1 34.8846 104.891 35.0445L105.25 33.8788C105.378 33.9238 105.542 33.946 105.743 33.946H109.393C109.471 33.946 109.594 33.9406 109.764 33.9285C109.797 33.9198 109.862 33.903 109.957 33.8788" fill="#015AAB"/>
<path d="M114.938 40.3734H113.319C113.489 40.2437 113.595 40.1288 113.635 40.0301C113.675 39.9306 113.695 39.7237 113.695 39.4106V37.6804C113.695 37.286 113.634 37.0092 113.511 36.8493C113.305 36.5718 112.993 36.4334 112.574 36.4334C112.156 36.4334 111.861 36.563 111.647 36.8217C111.569 36.9124 111.521 37.0025 111.501 37.0939C111.482 37.1839 111.472 37.3619 111.472 37.6267V39.4112C111.472 39.7244 111.491 39.93 111.528 40.026C111.566 40.1221 111.672 40.2384 111.849 40.3741H110.234C110.405 40.2384 110.509 40.1221 110.546 40.026C110.584 39.93 110.602 39.7244 110.602 39.4112V34.9068C110.602 34.5843 110.585 34.3787 110.551 34.29C110.516 34.2006 110.412 34.0857 110.234 33.944H110.907C111.17 33.944 111.358 33.8821 111.472 33.7585V36.3568C111.786 35.9442 112.27 35.7373 112.925 35.7373C113.58 35.7373 114.029 35.9503 114.328 36.3749C114.49 36.5973 114.57 36.9339 114.57 37.3828V39.4112C114.57 39.719 114.588 39.9219 114.624 40.0213C114.66 40.1201 114.764 40.2377 114.938 40.3734Z" fill="#015AAB"/>
<path d="M120.242 39.7996L119.821 40.4373C119.394 40.4063 119.093 40.3351 118.918 40.2202C118.743 40.106 118.634 39.9568 118.592 39.7727C118.56 39.6612 118.543 39.4677 118.543 39.1902V37.9297C118.325 38.0352 117.913 38.1588 117.306 38.2999C116.84 38.4115 116.606 38.6621 116.606 39.0504C116.606 39.297 116.697 39.4912 116.878 39.633C117.058 39.7748 117.311 39.8446 117.637 39.8446C117.843 39.8446 118.084 39.8023 118.359 39.719L117.789 40.4467C117.619 40.4856 117.443 40.5058 117.261 40.5058C116.776 40.5058 116.394 40.3788 116.113 40.1262C115.781 39.8278 115.615 39.4663 115.615 39.0417C115.615 38.5922 115.796 38.2657 116.158 38.0607C116.403 37.925 116.829 37.7987 117.435 37.6811C117.863 37.5998 118.151 37.5131 118.3 37.4217C118.45 37.3297 118.524 37.1953 118.524 37.0166C118.524 36.8379 118.44 36.6793 118.269 36.5644C118.098 36.4502 117.875 36.3931 117.597 36.3931C117.255 36.3931 116.815 36.5227 116.274 36.7814L116.919 35.8004C117.131 35.7581 117.354 35.7373 117.587 35.7373C118.409 35.7373 118.954 35.9556 119.223 36.3931C119.352 36.604 119.417 36.9924 119.417 37.5581V38.8193C119.417 39.0787 119.425 39.2453 119.443 39.3205C119.479 39.4744 119.575 39.5967 119.731 39.6867C119.844 39.7566 120.015 39.7942 120.241 39.7996M119.268 35.2542C118.842 35.2179 118.354 34.9935 117.807 34.5809C117.287 34.9941 116.792 35.2186 116.322 35.2542L117.807 33.7679L119.268 35.2542ZM118.869 33.0987L116.475 34.165L118.29 32.4886L118.869 33.098V33.0987Z" fill="#015AAB"/>
<path d="M123.403 39.7546L122.897 40.446C122.786 40.485 122.67 40.5051 122.547 40.5051C122.156 40.5051 121.825 40.362 121.556 40.0758C121.392 39.8977 121.286 39.6793 121.238 39.4207C121.217 39.291 121.206 39.041 121.206 38.6708V36.5153H120.547V36.1633C120.879 36.1088 121.145 35.9671 121.345 35.7379C121.584 35.4725 121.704 35.0728 121.704 34.5366V34.4143H122.08V35.869H122.833C123.114 35.869 123.303 35.8495 123.403 35.8098V36.6914C123.268 36.5738 123.066 36.5147 122.798 36.5147H122.08V38.5882C122.08 39.0551 122.138 39.3595 122.255 39.5013C122.431 39.7244 122.68 39.8359 122.999 39.8359C123.128 39.8359 123.263 39.8083 123.403 39.7546" fill="#015AAB"/>
<path d="M128.19 40.3734H126.352C126.561 40.2619 126.692 40.0798 126.746 39.8265C126.77 39.715 126.782 39.4811 126.782 39.1264V35.191C126.782 34.8329 126.77 34.5977 126.746 34.4862C126.692 34.2362 126.561 34.0548 126.352 33.944H128.19C127.98 34.0555 127.849 34.2362 127.796 34.4862C127.768 34.5977 127.755 34.8329 127.755 35.191V39.1264C127.755 39.4811 127.768 39.7156 127.796 39.8265C127.85 40.0798 127.98 40.2619 128.19 40.3734Z" fill="#015AAB"/>
<path d="M133.763 40.3734H132.144C132.318 40.2377 132.424 40.1201 132.462 40.0213C132.502 39.9219 132.521 39.719 132.521 39.4113V37.8571C132.521 37.3875 132.451 37.0603 132.31 36.8768C132.095 36.5993 131.771 36.4609 131.337 36.4609C131.14 36.4609 130.947 36.5073 130.758 36.5987C130.567 36.6907 130.434 36.8197 130.356 36.9857C130.311 37.0851 130.288 37.237 130.288 37.4419V39.4113C130.288 39.7244 130.307 39.93 130.344 40.026C130.382 40.1221 130.486 40.2384 130.656 40.3741H129.051C129.221 40.2384 129.325 40.1221 129.362 40.026C129.4 39.93 129.419 39.7244 129.419 39.4113V36.8318C129.419 36.5153 129.4 36.3097 129.362 36.215C129.325 36.1203 129.221 36.0054 129.051 35.8696H129.674C129.937 35.8696 130.127 35.8078 130.244 35.6849V36.4979C130.674 35.9919 131.152 35.7386 131.678 35.7386C132.013 35.7386 132.325 35.8125 132.615 35.9604C132.938 36.1256 133.158 36.3548 133.274 36.6477C133.355 36.8493 133.396 37.2182 133.396 37.7543V39.4126C133.396 39.7257 133.413 39.9313 133.449 40.0274C133.485 40.1235 133.59 40.2397 133.763 40.3754" fill="#015AAB"/>
<path d="M139.53 38.0869C139.53 38.7642 139.283 39.3373 138.788 39.8043C138.293 40.2713 137.682 40.5051 136.952 40.5051C136.222 40.5051 135.65 40.2814 135.178 39.8345C134.708 39.3871 134.473 38.8227 134.473 38.142C134.473 37.3646 134.776 36.7431 135.383 36.2761C135.846 35.918 136.419 35.7379 137.1 35.7379C137.781 35.7379 138.327 35.9476 138.781 36.3662C139.281 36.8365 139.53 37.4096 139.53 38.0876M138.539 38.228C138.539 37.6791 138.393 37.237 138.1 36.8997C137.807 36.5624 137.422 36.3937 136.943 36.3937C136.51 36.3937 136.155 36.5449 135.879 36.8479C135.602 37.1503 135.464 37.5427 135.464 38.0251C135.464 38.5492 135.613 38.9839 135.91 39.3286C136.207 39.6726 136.581 39.8453 137.033 39.8453C137.485 39.8453 137.844 39.6968 138.123 39.3978C138.401 39.0995 138.54 38.7091 138.54 38.228" fill="#015AAB"/>
<path d="M145.016 40.3734L144.15 40.4272H144.007C143.852 40.4272 143.747 40.411 143.693 40.3781C143.639 40.3459 143.551 40.2437 143.428 40.0751L142.353 38.5982L141.37 39.7546C141.26 39.8843 141.204 39.9992 141.204 40.0986C141.204 40.1893 141.275 40.2807 141.416 40.3741H139.855L141.931 38.0338L141.048 36.8681C140.693 36.3984 140.377 36.0658 140.103 35.8696L141.075 35.8287C141.209 35.8287 141.301 35.8461 141.351 35.8804C141.4 35.9153 141.492 36.0215 141.627 36.1995L142.528 37.415L143.236 36.5604C143.358 36.4132 143.42 36.2896 143.42 36.1901C143.42 36.0665 143.332 35.9597 143.159 35.869H144.778L142.958 37.9707L144.097 39.4838C144.435 39.9353 144.741 40.2323 145.016 40.3741" fill="#015AAB"/>
<path d="M150.657 37.4325L150.132 38.1333C150.045 38.2509 149.908 38.3087 149.719 38.3087H148.563C148.207 38.3087 147.912 38.3496 147.68 38.4309L148.231 37.7355C148.318 37.624 148.458 37.5682 148.652 37.5682H149.679C150.098 37.5682 150.423 37.5232 150.656 37.4325" fill="#015AAB"/>
<path d="M160.229 33.944C160.02 34.0797 159.882 34.2228 159.814 34.3733C159.748 34.5238 159.713 34.7637 159.713 35.0916V40.6899C159.241 40.5327 158.797 40.19 158.382 39.6599L154.983 35.322V39.2251C154.983 39.5483 155.018 39.7875 155.089 39.9441C155.159 40.1006 155.293 40.2437 155.49 40.3734H153.764C153.973 40.2377 154.111 40.0953 154.178 39.9441C154.246 39.7936 154.28 39.5537 154.28 39.2251V35.0909C154.28 34.7691 154.244 34.5292 154.174 34.3726C154.104 34.2168 153.97 34.073 153.773 33.9433H155.185C155.2 33.9796 155.278 34.0998 155.418 34.3048L159.005 38.9093V35.0909C159.005 34.7691 158.969 34.5305 158.899 34.3773C158.829 34.2241 158.694 34.079 158.493 33.9433H160.228L160.229 33.944Z" fill="#015AAB"/>
<path d="M165.639 40.3734H164.021C164.191 40.2437 164.297 40.1288 164.336 40.0301C164.376 39.9306 164.397 39.7237 164.397 39.4106V37.6804C164.397 37.286 164.335 37.0092 164.213 36.8493C164.007 36.5718 163.694 36.4334 163.276 36.4334C162.858 36.4334 162.563 36.563 162.348 36.8217C162.27 36.9124 162.222 37.0025 162.202 37.0939C162.183 37.1839 162.173 37.3619 162.173 37.6267V39.4112C162.173 39.7244 162.192 39.93 162.229 40.026C162.267 40.1221 162.374 40.2384 162.55 40.3741H160.936C161.106 40.2384 161.21 40.1221 161.247 40.026C161.284 39.93 161.303 39.7244 161.303 39.4112V34.9068C161.303 34.5843 161.286 34.3787 161.252 34.29C161.217 34.2006 161.113 34.0857 160.936 33.944H161.609C161.871 33.944 162.059 33.8821 162.173 33.7585V36.3568C162.487 35.9442 162.971 35.7373 163.626 35.7373C164.281 35.7373 164.73 35.9503 165.03 36.3749C165.191 36.5973 165.271 36.9339 165.271 37.3828V39.4112C165.271 39.719 165.29 39.9219 165.325 40.0213C165.36 40.1201 165.465 40.2377 165.639 40.3734" fill="#015AAB"/>
<path d="M170.675 36.7814V39.4112C170.675 39.7244 170.693 39.9293 170.731 40.026C170.768 40.1221 170.871 40.2384 171.042 40.3734H169.84V39.7365C169.607 40.0321 169.393 40.233 169.197 40.3418C169.001 40.4507 168.748 40.5051 168.437 40.5051C167.771 40.5051 167.286 40.276 166.984 39.8177C166.802 39.5403 166.712 39.1277 166.712 38.5794V36.8305C166.712 36.514 166.692 36.3084 166.655 36.2137C166.618 36.1189 166.515 36.004 166.344 35.8683H167.003C167.272 35.8683 167.465 35.8072 167.582 35.6835V38.4034C167.582 38.8522 167.662 39.1761 167.824 39.375C168.018 39.6222 168.305 39.7452 168.685 39.7452C169.022 39.7452 169.294 39.6377 169.498 39.4247C169.703 39.211 169.805 38.9288 169.805 38.5794V36.8305C169.805 36.514 169.787 36.307 169.75 36.209C169.712 36.1115 169.608 35.998 169.438 35.8676H170.119C170.377 35.8676 170.562 35.8065 170.675 35.6828V36.4193C170.872 36.3326 170.989 36.2325 171.025 36.1216C171.043 36.082 171 36.0175 170.895 35.9274C170.692 35.7527 170.649 35.5404 170.765 35.2898C170.831 35.152 170.939 35.0566 171.088 35.0056C171.238 34.9545 171.386 34.9632 171.532 35.0324C171.69 35.1077 171.794 35.2266 171.842 35.3919C171.889 35.5559 171.871 35.7265 171.788 35.9046C171.606 36.2929 171.234 36.5852 170.676 36.7807M169.474 41.7011C169.474 41.861 169.418 41.9994 169.304 42.1163C169.191 42.2346 169.055 42.293 168.896 42.293C168.736 42.293 168.593 42.2359 168.479 42.121C168.365 42.0068 168.309 41.8671 168.309 41.7011C168.309 41.5351 168.367 41.4041 168.483 41.2899C168.601 41.1757 168.74 41.1179 168.904 41.1179C169.057 41.1179 169.19 41.175 169.304 41.2899C169.417 41.4041 169.474 41.5412 169.474 41.7011" fill="#015AAB"/>
<path d="M176.349 39.8003L175.928 40.4372C175.501 40.407 175.2 40.3358 175.024 40.2209C174.85 40.1067 174.741 39.9575 174.7 39.7734C174.666 39.6619 174.65 39.4684 174.65 39.1909V37.9304C174.432 38.0365 174.02 38.1595 173.413 38.3013C172.946 38.4128 172.714 38.6627 172.714 39.0511C172.714 39.2984 172.804 39.4919 172.985 39.6336C173.166 39.7754 173.419 39.846 173.745 39.846C173.951 39.846 174.191 39.8036 174.466 39.719L173.897 40.4467C173.727 40.4856 173.55 40.5058 173.368 40.5058C172.884 40.5058 172.501 40.3788 172.22 40.1262C171.889 39.8278 171.723 39.4663 171.723 39.0417C171.723 38.5922 171.903 38.2657 172.265 38.0607C172.51 37.925 172.937 37.7987 173.543 37.6811C173.971 37.5998 174.259 37.5131 174.408 37.4217C174.558 37.3297 174.632 37.1953 174.632 37.0173C174.632 36.8305 174.548 36.68 174.377 36.5651C174.207 36.4508 173.983 36.3931 173.705 36.3931C173.364 36.3931 172.923 36.5234 172.382 36.7814L173.028 35.8004C173.24 35.7581 173.462 35.7373 173.695 35.7373C174.517 35.7373 175.063 35.9556 175.332 36.3924C175.46 36.6034 175.525 36.9924 175.525 37.5581V38.8186C175.525 39.078 175.533 39.2446 175.552 39.3199C175.587 39.4737 175.683 39.596 175.839 39.6861C175.953 39.7553 176.123 39.7929 176.35 39.7989" fill="#015AAB"/>
<path fill-rule="evenodd" clip-rule="evenodd" d="M160.175 6.31322C159.902 6.47111 159.712 6.72913 159.604 7.09464C159.498 7.45814 159.443 7.92579 159.443 8.49489V20.7679C159.443 21.9491 159.253 22.9751 158.872 23.8519C158.493 24.7268 157.972 25.4585 157.304 26.0491C156.643 26.6383 155.873 27.0758 154.992 27.362C154.114 27.6469 153.177 27.7886 152.182 27.7886C151.188 27.7886 150.25 27.6469 149.371 27.362C148.494 27.0751 147.722 26.6377 147.059 26.0491C146.395 25.4578 145.872 24.7261 145.494 23.8519C145.111 22.9751 144.921 21.9491 144.921 20.7679V8.49489C144.922 7.92579 144.869 7.45814 144.761 7.09464C144.651 6.72845 144.463 6.47111 144.189 6.31322H150.484C150.211 6.47111 150.021 6.72913 149.914 7.09464C149.806 7.45814 149.752 7.92579 149.752 8.49489V20.3271C149.752 21.1328 149.996 21.7677 150.484 22.2306C150.972 22.6902 151.537 22.9234 152.182 22.9234C152.827 22.9234 153.392 22.6902 153.878 22.2306C154.368 21.7677 154.611 21.1328 154.611 20.3271V8.49489C154.611 7.92579 154.558 7.45814 154.452 7.09464C154.344 6.72845 154.153 6.47111 153.879 6.31322H160.175Z" fill="#015AAB"/>
<path fill-rule="evenodd" clip-rule="evenodd" d="M82.8594 6.31322C83.1353 6.47111 83.3252 6.72913 83.4319 7.09464C83.5392 7.45814 83.5925 7.92579 83.5925 8.49489V20.7679C83.5925 21.9491 83.7831 22.9758 84.1623 23.8519C84.5449 24.7268 85.0673 25.4585 85.7298 26.0491C86.3929 26.6383 87.1647 27.0758 88.0431 27.362C88.9208 27.6469 89.8559 27.7886 90.8529 27.7886C91.8499 27.7886 92.7849 27.6469 93.6647 27.362C94.5417 27.0751 95.3128 26.6377 95.9753 26.0491C96.6411 25.4578 97.1622 24.7261 97.5421 23.8519C97.9213 22.9751 98.1126 21.9491 98.1126 20.7679V8.49489C98.1126 7.92579 98.1686 7.45814 98.2746 7.09464C98.3812 6.72845 98.5725 6.47111 98.8437 6.31322H92.5517C92.8236 6.47111 93.0155 6.72913 93.1242 7.09464C93.2301 7.45814 93.2828 7.92579 93.2828 8.49489V20.3271C93.2828 21.1328 93.0395 21.7677 92.5517 22.2306C92.0632 22.6902 91.4993 22.9234 90.8535 22.9234C90.2077 22.9234 89.6439 22.6902 89.1554 22.2306C88.6669 21.7677 88.4243 21.1328 88.4243 20.3271V8.49489C88.4243 7.92579 88.4776 7.45814 88.5856 7.09464C88.6922 6.72845 88.8822 6.47111 89.1547 6.31322H82.8594Z" fill="#015AAB"/>
<path fill-rule="evenodd" clip-rule="evenodd" d="M73.9621 17.1411V17.1969C73.8088 17.2903 73.6901 17.389 73.6042 17.5013C73.5189 17.6121 73.4755 17.7499 73.4755 17.9151C73.4755 18.03 73.5255 18.1879 73.6248 18.3888C73.6848 18.5105 73.7641 18.6475 73.8607 18.8007C74.1513 19.2549 74.5772 19.8227 75.0777 20.4429C75.7648 19.4672 76.1694 18.2807 76.1694 17C76.1694 13.6801 73.4589 10.9892 70.1146 10.9892C66.7703 10.9892 64.0598 13.6801 64.0598 17C64.0598 20.3199 66.7703 23.0115 70.1146 23.0115C70.5858 23.0115 71.045 22.9578 71.4855 22.857C71.3569 22.6924 71.2369 22.5372 71.1316 22.3967C70.4105 21.4379 69.5034 20.4529 68.669 19.5721C68.0246 18.878 67.5161 18.3479 67.4807 18.3116L67.4787 18.3102C67.1082 17.9104 66.7503 17.5221 66.4071 17.1425H73.9607L73.9621 17.1411ZM81.1158 17.0457C81.1158 11.1188 76.196 6.31404 70.1272 6.31404C64.0585 6.31404 59.1387 11.1188 59.1387 17.0457C59.1387 22.9726 64.0585 27.7774 70.1272 27.7774C71.7441 27.7774 73.2803 27.4367 74.6632 26.8239C74.7072 26.9052 74.7351 26.9718 74.7351 27.0053C74.7351 27.1706 74.6918 27.3084 74.6059 27.4206C74.5205 27.5301 74.3999 27.6316 74.2486 27.7243V27.778H82.2608C81.8329 27.4092 81.3384 26.9765 80.7746 26.4806C80.6086 26.3341 80.436 26.1823 80.2581 26.0244C79.7816 25.6044 79.1044 24.9352 78.36 24.1551C80.0755 22.2617 81.1172 19.773 81.1172 17.0464" fill="#015AAB"/>
<path fill-rule="evenodd" clip-rule="evenodd" d="M112.615 27.79C112.89 27.6334 113.08 27.3721 113.185 27.0079C113.293 26.6451 113.348 26.1774 113.348 25.6076V6.31255C113.777 6.6868 114.253 6.87157 114.783 6.87157C115.014 6.87157 115.298 6.84469 115.629 6.7849C115.962 6.72577 116.317 6.66059 116.699 6.59139C117.081 6.52285 117.47 6.45969 117.87 6.40057C118.271 6.34413 118.645 6.31187 118.997 6.31187C120.303 6.31187 121.452 6.53898 122.436 6.99251C123.423 7.44403 124.252 8.02859 124.926 8.74619C125.6 9.46311 126.105 10.2808 126.448 11.1933C126.787 12.1097 126.959 13.0289 126.959 13.9534C126.959 14.9754 126.778 15.9443 126.418 16.8601C126.058 17.7739 125.539 18.5809 124.867 19.2776C124.194 19.9757 123.384 20.5274 122.436 20.9298C121.491 21.3336 120.441 21.5352 119.29 21.5352C118.901 21.5352 118.529 21.5057 118.176 21.4479V25.6063C118.176 26.1761 118.23 26.6437 118.339 27.0065C118.446 27.3707 118.635 27.6321 118.909 27.7886H112.615V27.79ZM118.176 16.4919C118.294 16.551 118.441 16.5947 118.616 16.6236C118.793 16.6538 118.957 16.6679 119.115 16.6679C119.934 16.6679 120.606 16.4368 121.135 15.9752C121.662 15.5123 121.924 14.8303 121.924 13.9239C121.924 13.0175 121.662 12.3355 121.135 11.8746C120.607 11.411 119.935 11.1798 119.115 11.1798C118.958 11.1798 118.792 11.1939 118.616 11.2242C118.441 11.2551 118.294 11.2981 118.176 11.3572V16.4912V16.4919Z" fill="#015AAB"/>
<path fill-rule="evenodd" clip-rule="evenodd" d="M142.846 25.5586C142.846 26.1411 142.902 26.6195 143.013 26.9911C143.125 27.3626 143.316 27.6301 143.595 27.7907H137.161C137.44 27.6307 137.634 27.3626 137.745 26.9911C137.854 26.6195 137.91 26.1418 137.91 25.5586V19.1654H133.238V25.5586C133.238 26.1411 133.296 26.6195 133.404 26.9911C133.514 27.3626 133.709 27.6301 133.986 27.7907H127.553C127.832 27.6307 128.027 27.3626 128.135 26.9911C128.245 26.6195 128.299 26.1418 128.299 25.5586V8.54394C128.299 7.9614 128.245 7.48435 128.135 7.11278C128.027 6.73786 127.831 6.47447 127.553 6.31322H133.986C133.709 6.47447 133.514 6.73853 133.404 7.11278C133.296 7.48435 133.238 7.96207 133.238 8.54394V14.5178H137.91V8.54394C137.91 7.9614 137.854 7.48435 137.745 7.11278C137.634 6.73786 137.44 6.47447 137.161 6.31322H143.596C143.317 6.47447 143.125 6.73853 143.013 7.11278C142.903 7.48435 142.846 7.96207 142.846 8.54394V25.5586Z" fill="#015AAB"/>
<path fill-rule="evenodd" clip-rule="evenodd" d="M176.351 27.79C176.275 27.753 176.15 27.6778 175.978 27.5743C175.807 27.4675 175.643 27.4144 175.492 27.4144C175.358 27.4144 175.156 27.4352 174.889 27.4722C174.623 27.5125 174.312 27.5548 173.961 27.6025C173.606 27.6502 173.234 27.6932 172.842 27.7329C172.452 27.7705 172.054 27.7893 171.654 27.7893C170.051 27.7893 168.584 27.5205 167.258 26.981C165.93 26.4421 164.783 25.691 163.82 24.7301C162.856 23.7673 162.106 22.6318 161.57 21.3242C161.037 20.014 160.77 18.5923 160.77 17.0516C160.77 15.5109 161.036 14.0872 161.57 12.7796C162.107 11.4708 162.855 10.3346 163.82 9.37307C164.783 8.41023 165.93 7.65971 167.258 7.12017C168.584 6.58198 170.051 6.31322 171.654 6.31322C172.016 6.31322 172.375 6.3448 172.727 6.39989C173.081 6.45768 173.406 6.52554 173.703 6.60146C173.998 6.67941 174.271 6.74592 174.518 6.80438C174.765 6.86082 174.968 6.89038 175.121 6.89038C175.388 6.89038 175.621 6.83394 175.822 6.7177C176.021 6.60146 176.198 6.46708 176.351 6.31322V13.0101C175.702 12.4336 175.015 11.9673 174.288 11.6092C173.563 11.2537 172.685 11.075 171.653 11.075C170.815 11.075 170.03 11.2107 169.304 11.4802C168.579 11.7509 167.949 12.14 167.414 12.65C166.879 13.1599 166.459 13.7855 166.154 14.5266C165.848 15.265 165.695 16.1082 165.695 17.0509C165.695 17.8975 165.848 18.6863 166.154 19.4174C166.459 20.1484 166.879 20.784 167.414 21.3236C167.949 21.8618 168.579 22.279 169.304 22.578C170.029 22.875 170.814 23.0268 171.653 23.0268C172.647 23.0268 173.505 22.875 174.23 22.578C174.957 22.279 175.663 21.8517 176.35 21.296V27.7886L176.351 27.79Z" fill="#015AAB"/>
<path fill-rule="evenodd" clip-rule="evenodd" d="M105.127 8.54394C105.127 7.96207 105.183 7.48435 105.294 7.11278C105.402 6.73853 105.596 6.47515 105.875 6.31389H99.4394C99.72 6.47515 99.914 6.7392 100.025 7.11278C100.134 7.48435 100.188 7.96207 100.188 8.54394V25.5586C100.188 26.1411 100.135 26.6195 100.025 26.9911C99.914 27.3633 99.72 27.6307 99.4394 27.7907H105.875C105.596 27.6307 105.402 27.3633 105.294 26.9911C105.183 26.6195 105.128 26.1418 105.128 25.5586V8.54394H105.127Z" fill="#015AAB"/>
<path d="M0 24.4997C0 10.9688 10.8846 0 24.3104 0C37.7362 0 48.6215 10.9688 48.6215 24.4997C48.6215 38.0305 37.7376 48.9993 24.3104 48.9993C10.8833 48.9993 0 38.0305 0 24.4997Z" fill="#055CA5"/>
<path d="M4.09006 24.4997C4.09006 13.2453 13.1432 4.12146 24.3111 4.12146C35.4789 4.12146 44.5321 13.2453 44.5321 24.4997C44.5321 35.7541 35.4789 44.8772 24.3111 44.8772C13.1432 44.8772 4.09006 35.7541 4.09006 24.4997Z" fill="white"/>
<path d="M24.3342 46.8049C12.0407 46.8049 2.07447 36.6148 2.07447 24.0455C2.07447 16.9931 5.21149 10.6907 10.1366 6.51613C4.58569 10.7061 0.994141 17.3889 0.994141 24.9156C0.994141 37.6058 11.2023 47.8934 23.7937 47.8934C34.6283 47.8934 43.6975 40.2773 46.0188 30.0691C46.198 29.2796 46.1754 28.5479 46.1754 28.5479C46.1754 28.5479 46.0574 29.1197 45.8095 30.0503C43.233 39.7062 34.5943 46.8042 24.3342 46.8042" fill="white"/>
<path d="M28.3047 15.9275C28.32 15.9974 28.3327 16.0659 28.3427 16.1311C28.436 15.951 28.4926 15.8475 28.4926 15.8475C28.4926 15.8475 28.4227 15.8751 28.3047 15.9282" fill="#EF8621"/>
<path d="M17.9153 40.3506C17.6567 40.4057 17.3814 40.4352 17.0982 40.4379C14.9628 40.4675 14.5843 38.7642 14.3577 37.7469C14.2937 37.4587 14.2331 37.1866 14.1538 37.0065C13.8659 36.3514 12.7995 35.5847 12.4483 35.3677L11.6719 34.888L12.357 34.2833C12.357 34.2833 12.6409 34.03 12.8195 33.7551C12.8302 33.7384 12.8902 33.4152 12.9182 33.1746C13.3833 32.8803 13.8832 32.4819 14.2191 32.2508C14.7836 31.8624 14.7229 31.2624 14.7223 31.2557L14.6563 30.7531L15.1168 30.5495C15.1575 30.5314 15.2274 30.5051 15.3307 30.4836C15.6613 30.4138 16.4017 30.2861 17.5367 30.2666C19.1455 30.2391 19.1995 30.3251 19.2795 30.4823L20.4931 32.1695L21.3629 33.9621L22.0813 35.1843C22.0813 35.1843 21.6201 38.8361 21.6141 38.8663L20.4411 39.3131L20.1806 38.699C19.814 39.375 19.1069 40.0993 17.9153 40.3499" fill="#055CA5"/>
<path d="M15.3865 31.1676C15.3865 31.1676 15.5185 32.1748 14.5968 32.8084C13.6751 33.4427 13.4978 33.4541 13.4978 33.4541C13.4978 33.4541 13.6138 33.7659 13.3798 34.1254C13.1459 34.4848 12.7987 34.7912 12.7987 34.7912C12.7987 34.7912 14.3295 35.7366 14.7667 36.7324C15.2039 37.7268 14.9893 39.7909 17.0893 39.7627C19.1894 39.7351 19.8258 38.1004 19.8325 37.6334C19.8378 37.1657 19.7272 36.8788 19.7272 36.8788C19.7272 36.8788 20.0997 37.1886 20.3403 37.7335C20.5822 38.2777 20.6242 38.6056 20.6242 38.6056C20.6242 38.6056 20.7615 37.9042 20.8295 37.2423C20.8982 36.5812 20.8628 35.4557 20.8628 35.4557C20.8628 35.4557 20.0018 35.4887 19.25 35.5693C18.7735 35.6197 17.3799 35.9865 17.3799 35.9865L18.4916 34.677L17.6585 34.3444L18.8528 34.3182L19.6959 33.2673C19.6959 33.2673 18.5615 31.7421 17.1973 31.3565C15.8337 30.9708 15.3865 31.1683 15.3865 31.1683" fill="#EF8621"/>
<path d="M16.0803 31.5836C16.0803 31.5836 16.097 32.7836 15.3685 33.1693C14.6394 33.5556 14.3362 33.5798 14.3362 33.5798C14.3362 33.5798 14.7241 33.9648 14.3875 34.3847C14.0509 34.8047 13.7637 34.9041 13.7637 34.9041C13.7637 34.9041 15.1666 35.5404 15.4392 36.299C15.7118 37.0562 15.5525 39.2641 17.3493 39.1956C19.146 39.129 19.4966 36.9198 19.4966 36.9198C19.4966 36.9198 18.5022 39.1862 16.8321 38.3732C15.8957 37.9176 16.4409 36.6705 15.4638 35.6721C14.4875 34.675 14.5101 34.7865 14.5101 34.7865C14.5101 34.7865 14.9973 34.722 15.0306 34.3269C15.0646 33.9319 15.108 33.7679 15.108 33.7679C15.108 33.7679 15.6624 33.8452 16.0197 33.1491C16.3762 32.453 16.081 31.5836 16.081 31.5836" fill="#055CA5"/>
<path d="M55.9783 40.7671C55.4798 39.0793 55.1333 38.31 53.855 37.921C51.9049 37.327 48.1228 38.1682 47.6623 38.3181C46.5933 38.6641 44.4346 37.6408 44.4326 37.6401V37.6414C44.2387 37.5481 41.0257 36.0047 38.8597 35.1997C38.2159 34.5729 35.2195 30.9157 31.5599 26.0874C26.5408 19.4651 25.2559 17.2162 24.94 16.5712L26.2156 15.1037L23.795 15.2825C22.3528 15.3893 20.9672 15.2576 20.692 15.0695C18.2701 13.4105 11.9854 12.3973 8.43582 11.8867C5.716 15.3557 4.08984 19.7359 4.08984 24.501C4.08984 28.2731 5.10753 31.8039 6.88031 34.8322C7.94064 34.3699 8.97165 33.7934 9.98134 33.225C11.3482 32.4557 12.7791 31.7011 13.9854 31.3921C14.164 31.3464 14.3386 31.3061 14.5113 31.2698C16.9712 30.7524 18.7579 31.1703 19.1705 31.2839C22.0123 35.0264 21.3791 37.3109 21.1399 38.1749L21.0965 38.3342C20.9499 38.8952 20.4261 39.6289 20.2548 39.8413L18.7739 41.6648L21.1032 41.4767C21.1339 41.474 24.1849 41.2476 26.3776 42.2373C28.5595 43.2216 30.0804 45.1359 30.0937 45.1533L30.3277 45.455L30.7022 45.5229C30.7575 45.533 32.0858 45.7648 33.8659 45.3905C34.5257 45.2514 35.1735 45.0458 35.7906 44.7784C36.5697 44.4411 37.2688 44.206 37.8693 44.0796C38.941 43.8546 39.6614 43.9627 40.072 44.4102C40.6325 45.0203 40.1199 46.1518 40.1173 46.1578L39.6248 47.1758L40.6864 47.5453C40.7997 47.5843 43.4809 48.4994 46.0747 47.9538C46.3353 47.8988 46.5913 47.8302 46.8345 47.7489C48.2181 47.2866 49.5703 47.0938 49.8269 47.0394C49.8896 47.0259 49.9542 47.0192 50.0242 47.0172C50.3288 47.0098 50.5027 47.0508 50.584 47.079L50.9432 48.1332L52.0222 47.3894C52.1309 47.3142 52.6714 46.907 53.0006 46.0275C53.7384 45.4349 53.9763 45.1507 54.0663 45.0169L54.904 44.4613C55.6371 43.9742 56.5975 42.8642 55.9783 40.7692" fill="#055CA5"/>
<path d="M55.1248 40.8209C54.437 38.9866 53.4507 38.6883 53.4507 38.6883C53.4507 38.6883 51.6359 38.1064 49.4659 38.7897C46.3735 39.7633 42.3701 37.538 38.3727 36.0887C37.6629 35.8307 23.0915 17.1752 23.8679 16.2823C23.8679 16.2823 21.0041 16.4953 20.1331 15.8979C17.7705 14.2793 11.0186 13.2634 7.75691 12.8018C5.44763 16.1123 4.09006 20.1451 4.09006 24.4997C4.09006 27.9109 4.92513 31.124 6.39601 33.948C9.01852 32.8246 11.5511 30.8767 13.7704 30.4124C17.0427 29.7284 18.3263 30.0469 18.3263 30.0469C18.3263 30.0469 17.036 28.4652 14.5548 27.0858C12.2842 25.8226 11.2878 25.8845 11.1352 25.9039C11.4504 25.8576 15.5458 25.351 19.3846 29.9508C23.3807 34.7395 22.2957 37.6844 22.0591 38.5875C21.8232 39.4912 21.0248 40.4749 21.0248 40.4749C21.0248 40.4749 24.3204 40.2081 26.785 41.3208C29.2495 42.4321 30.879 44.5352 30.879 44.5352C30.879 44.5352 32.9597 44.9121 35.3983 43.8559C37.8375 42.7997 39.7589 42.59 40.8026 43.7282C41.8476 44.8671 41.0119 46.5959 41.0119 46.5959C41.0119 46.5959 44.0009 47.636 46.5228 46.7955C49.0447 45.9543 48.7355 46.0463 49.9997 46.0141C51.2633 45.9805 51.4613 46.5603 51.4613 46.5603C51.4613 46.5603 52.2697 46.002 52.2644 44.4895C52.2597 42.9764 51.7792 42.1714 51.1414 41.8536C50.4596 41.5136 48.1277 41.4391 48.1277 41.4391C48.1277 41.4391 50.7935 41.2113 51.5819 41.566C52.1237 41.8106 52.6636 42.6975 52.8482 43.5905C53.0328 44.4835 52.9262 44.894 52.9262 44.894C52.9262 44.894 54.0192 43.8485 53.3967 41.9605C52.7749 40.0731 49.326 39.7895 49.326 39.7895C49.326 39.7895 52.2204 39.258 53.444 40.5145C54.667 41.771 54.357 43.6221 54.357 43.6221C54.357 43.6221 55.8133 42.6559 55.1248 40.8209Z" fill="#EF8621"/>
<path d="M44.8947 17.403C44.7994 17.2834 44.7034 17.1705 44.6081 17.0657L44.6881 17.0482L44.6388 15.8307C44.4629 15.8072 44.2323 15.7279 43.9957 15.611L43.929 15.5754C43.5258 15.3624 43.4378 15.1232 43.4038 15.05C43.3632 14.8276 43.1733 14.6314 43.0826 14.4379L43.7058 14.2135L43.0473 13.5241C42.8334 13.2997 42.6128 13.1149 42.3688 12.9557C42.0609 12.7575 42.0283 12.5868 41.7477 12.523C41.7504 12.5196 41.9663 11.9263 42.1609 11.5359L42.4008 11.0139L41.4065 10.3205C41.4065 10.3205 41.4045 10.3225 41.4018 10.3252C41.3931 10.2385 41.3758 10.1693 41.3571 10.1095L41.1426 9.38181L40.4854 9.74799C40.4854 9.74799 40.4554 9.76278 40.4081 9.77689C40.2515 9.82257 40.1075 9.80645 39.9809 9.72784C39.9769 9.72582 39.9736 9.7238 39.9709 9.72112C40.0176 9.66266 40.1162 9.56591 40.3141 9.449L41.1552 8.94843L42.2002 8.90744L41.7057 8.62121L41.7344 8.60441L41.6497 8.58896L40.3515 7.8371C40.2588 7.78334 39.4078 7.32376 38.0735 7.71414C37.7316 7.81358 37.3837 7.96342 37.0405 8.1576C36.7666 8.31213 36.4927 8.49691 36.2208 8.70923L35.5996 8.32624C35.4857 8.46466 35.3524 8.61046 35.2371 8.7267C35.2164 8.68907 35.1937 8.64607 35.1691 8.59635L34.3993 7.05567L34.0874 8.4492C33.8248 8.12198 33.4549 7.88547 32.9444 7.81828L32.9218 7.81492L32.8991 7.81358C32.8418 7.81089 31.4742 7.73967 29.8761 8.20664C29.6221 8.28055 29.3729 8.36589 29.1356 8.45861L27.2156 9.18628L28.9344 9.57263C28.7531 9.69491 28.4518 9.83803 28.0606 9.95225C27.1942 10.2056 26.2825 10.219 25.6807 9.98652L23.4761 9.13454L24.9896 10.9601C25.0262 11.0045 25.5801 11.6562 26.5338 12.0009C25.4628 12.4148 22.8616 13.9528 21.8979 14.9425L22.7696 15.5183C22.4064 15.611 23.2168 15.0661 22.8809 15.1306L22.7923 14.5709L22.3298 14.5588C22.3891 14.5199 22.4251 14.495 22.4304 14.4903L23.4901 13.719L19.7979 12.7601L19.558 12.9584C17.6126 14.5602 15.0747 15.8146 15.0547 15.82C15.0547 15.82 16.8008 16.3018 17.1614 16.2923L15.9078 16.8211C16.6282 16.8715 19.0274 17.0361 19.7925 16.9918L18.403 17.6698C18.7029 17.6671 19.9178 18.3538 20.1524 18.4256C19.1967 19.0277 18.1111 20.522 18.0684 20.5596L19.518 20.399C19.6659 20.3164 17.5559 22.9328 17.5559 22.9328L19.7899 22.707L20.1544 24.6267C20.2044 24.452 21.0668 23.4401 21.1648 23.2728C21.4827 24.9431 23.1295 27.669 23.2575 27.9499C23.2575 27.9499 23.3008 24.8356 23.3468 24.2887C24.1172 26.547 26.781 28.867 26.893 28.9927C26.893 28.9927 25.9899 26.8957 26.0273 26.4979C26.5191 26.9662 28.7271 27.3418 28.7271 27.3418C29.6968 28.4639 31.3283 29.2359 31.3283 29.2359C31.5702 30.3123 33.0151 32.4947 34.212 33.4508C34.0921 32.8716 34.2747 32.3468 34.2747 32.3468C34.2747 32.3468 34.516 33.2821 34.6766 33.7175C34.8299 34.1287 35.0205 34.4922 35.2404 34.7946C35.5016 35.1601 36.7346 36.2089 36.7766 36.2419L36.6699 34.5702C36.656 34.5467 36.6333 34.4969 36.6033 34.3995C36.582 34.3283 36.564 34.2477 36.55 34.1657C36.4807 33.737 36.5033 33.1652 36.5653 32.5914C37.8916 34.9565 39.725 34.5252 39.8196 34.5016L41.2752 34.1294L39.9776 33.3675C39.6144 33.1545 39.3025 32.8884 39.0405 32.6122C39.1818 32.6331 40.5621 33.0295 40.5621 33.0295C40.5481 33.0221 38.8313 31.0507 38.1102 30.1282C38.1102 30.1282 39.1072 30.9372 39.1378 30.9594L40.2882 31.7072C39.9729 31.0292 39.743 29.0189 39.8463 28.6688C40.0216 29.9676 41.9136 31.4942 41.9136 31.4942C41.8283 31.2872 41.6804 29.6592 41.6351 29.4704L41.7677 29.2756C42.4655 28.2422 42.8154 27.239 42.97 26.3548C43.058 26.4764 44.0823 26.9447 44.1036 26.9669C44.1036 26.9669 43.7424 24.1294 44.3842 22.7655C44.6041 22.2972 45.5485 20.9943 45.5485 20.9943C45.6771 20.7283 45.7598 20.4487 45.8004 20.141C45.9184 19.2568 45.6038 18.3107 44.8907 17.403" fill="#055CA5"/>
<path d="M41.2305 16.4543C41.5677 16.678 41.4477 17.0684 41.4477 17.0684C41.8329 16.7069 41.8043 16.16 41.8043 16.16C41.647 16.3145 41.2305 16.4543 41.2305 16.4543Z" fill="white"/>
<path d="M34.4723 18.0964C34.2284 17.9735 34.3117 17.6435 34.3117 17.6435L33.7719 17.5045C33.5706 17.6489 33.7192 18.5318 34.6549 18.4747C35.59 18.4176 35.6746 17.9009 35.6746 17.9009L34.9182 17.8404C34.9528 17.9412 34.7163 18.2207 34.4723 18.0971" fill="white"/>
<path d="M37.5336 20.0584C37.397 20.5616 38.2534 21.2987 38.2534 21.2987C37.391 20.9332 36.9345 19.9757 36.9345 19.9757C36.8952 20.8546 37.7656 21.4741 37.7656 21.4741C36.8259 21.1119 36.6266 20.1585 36.6266 20.1585C36.4746 20.9822 37.2917 21.6441 37.2917 21.6441C36.7219 21.4768 36.4453 20.786 36.4453 20.786C36.5859 21.6689 37.4443 22.0754 37.4443 22.0754C39.4084 23.0813 40.494 22.6271 41.1618 21.6535C41.831 20.6799 40.2341 20.7444 39.1345 20.5986C38.0355 20.4528 37.5343 20.0577 37.5343 20.0577" fill="white"/>
<path d="M41.9207 23.0867C41.4228 23.0692 40.9316 23.3084 40.9316 23.3084C41.1869 23.5691 41.1083 23.8089 41.1083 23.8089C41.6894 23.4824 41.92 23.0873 41.92 23.0873" fill="white"/>
<path d="M32.8047 18.2913C33.6638 19.584 35.0993 19.8904 35.4492 19.4933C35.7964 19.0989 35.5272 18.5627 35.5272 18.5627C34.1143 19.7392 32.8047 18.2913 32.8047 18.2913Z" fill="white"/>
<path d="M41.1205 24.7651C41.1005 24.3747 40.9072 24.163 40.9072 24.163C40.4014 24.7167 39.7656 25.0184 39.7656 25.0184C40.4261 25.0385 41.1205 24.7651 41.1205 24.7651Z" fill="white"/>
<path d="M38.4489 24.1919C37.8338 24.3565 37.5059 24.8168 37.5059 24.8168C37.9944 25.011 38.5109 25.0251 38.5109 25.0251C38.6062 24.5669 38.4489 24.1919 38.4489 24.1919Z" fill="white"/>
<path d="M41.1289 25.5022C41.4335 24.7006 39.666 25.2905 39.666 25.2905C40.2298 25.9322 40.3558 26.6847 40.3558 26.6847C40.9423 26.1687 41.1289 25.5022 41.1289 25.5022Z" fill="white"/>
<path d="M38.5761 23.9554C39.4159 23.5704 39.5225 23.2761 39.5225 23.2761C38.9127 23.3299 38.1836 23.1727 38.1836 23.1727C38.4755 23.5429 38.5761 23.9554 38.5761 23.9554Z" fill="white"/>
<path d="M40.7883 26.7888C40.1499 27.3217 39.8706 26.8587 39.8706 26.8587C39.2768 27.6522 38.4124 27.3821 38.4124 27.3821C39.1895 27.2081 39.678 26.5275 39.678 26.5275C40.3718 25.7635 39.3288 25.5404 39.3288 25.5404C38.601 25.2139 37.7906 25.1642 37.1235 24.8853C36.4517 24.6052 36.4264 24.9263 36.4264 24.9263C36.2231 25.7991 38.2591 26.9508 38.2591 26.9508C37.1215 26.7297 36.547 26.127 36.547 26.127C36.5117 28.5916 38.2358 29.85 38.2358 29.85C37.4447 28.5963 37.6373 27.8599 37.6373 27.8599C38.3058 29.5799 39.5008 30.4588 39.5008 30.4588C38.5544 28.4229 39.9379 27.5017 39.9379 27.5017L39.872 28.2126L40.7877 26.7882L40.7883 26.7888Z" fill="white"/>
<path d="M41.4785 22.5498C41.8617 22.6452 42.99 22.5451 43.6179 22.0143C44.2457 21.4828 44.4023 20.0187 44.4023 20.0187C44.0844 20.1088 43.4559 20.5005 42.8128 21.2503C42.1683 21.9982 41.4792 22.5498 41.4792 22.5498" fill="white"/>
<path d="M32.3535 16.5705C32.4468 16.6417 35.6298 18.2792 36.4096 16.979C37.1887 15.6762 34.1296 14.6818 34.1296 14.6818C34.4209 16.1963 32.3535 16.5698 32.3535 16.5698" fill="white"/>
<path d="M40.6294 16.3226C41.5091 16.0424 41.7943 15.6587 41.7943 15.6587C40.1688 14.3767 39.0898 14.0428 39.0898 14.0428C40.3455 14.8753 40.63 16.3226 40.63 16.3226" fill="white"/>
<path d="M30.3869 13.0161C31.5698 13.9924 32.213 14.7732 32.213 14.7732C31.6545 14.7006 30.7921 14.0939 30.7921 14.0939C30.4955 14.6845 30.5495 15.1837 30.5495 15.1837L30.928 15.3382L30.9427 14.4352C32.0704 15.4081 32.8981 15.2878 32.8981 15.2878C32.9474 14.5709 30.2489 12.7373 30.2489 12.7373C29.2113 14.1564 29.4219 15.5338 29.4219 15.5338C29.4992 14.202 30.3869 13.0155 30.3869 13.0155" fill="white"/>
<path d="M35.6247 18.1253L35.8893 19.0653L36.655 19.5175C36.4757 18.9491 36.6843 17.958 36.6843 17.958C37.1782 17.7107 37.4948 17.9264 37.4948 17.9264C37.0182 18.5036 37.2088 18.9968 37.2088 18.9968C37.6574 20.0664 38.4898 19.4523 38.4898 19.4523C36.659 19.0693 37.9626 17.7228 37.9626 17.7228L37.1415 17.4205C36.9576 17.399 36.8103 16.8877 36.8103 16.8877C36.599 17.4218 35.9926 17.5844 35.9926 17.5844C34.9482 17.8901 32.2617 16.762 32.2617 16.762C34.0292 20.1679 35.6247 18.126 35.6247 18.126M33.7712 17.5045L34.3111 17.6435C34.3111 17.6435 34.2278 17.9735 34.471 18.0964C34.715 18.22 34.9509 17.9405 34.9169 17.8404L35.6733 17.9002C35.6733 17.9002 35.5893 18.4169 34.6543 18.474C33.7179 18.5311 33.5693 17.6483 33.7706 17.5038" fill="#055CA5"/>
<path d="M30.907 15.9759C31.6821 16.1895 32.4739 15.6695 32.4739 15.6695L31.0423 14.6468L31.033 15.648L30.4152 15.3134C30.2866 14.7544 30.7291 13.8318 30.7291 13.8318L31.8707 14.5588L30.4418 13.1855C29.3875 14.8787 29.7974 15.5055 29.946 16.0276C30.0953 16.5483 30.6458 17.0785 30.6458 17.0785L30.907 15.9765V15.9759Z" fill="#055CA5"/>
<path d="M31.1211 28.4915C31.1211 28.4915 27.3276 24.6784 28.8811 22.3596C30.4367 20.0416 29.7882 18.8039 29.7882 18.8039C29.6482 20.485 28.2627 21.1039 28.2627 21.1039C29.7109 19.4973 29.5863 18.2342 29.5863 18.2342C28.2087 19.8494 28.1254 20.4461 27.9181 20.9587C27.8775 21.0501 27.8328 21.1422 27.7815 21.2396C27.6729 21.4237 27.5182 21.6172 27.2463 21.8651C26.6705 22.3879 26.4359 23.0537 26.4426 23.5207C26.4432 23.5321 26.4379 23.5449 26.4399 23.5543C26.5539 26.2957 27.9574 26.5631 27.9574 26.5631C27.4289 24.5729 27.8728 24.2524 27.8728 24.2524C28.4073 27.1423 31.1204 28.4915 31.1204 28.4915" fill="#EF8621"/>
<path d="M21.6871 15.1588L16.8633 16.7042C19.1572 16.8655 22.2983 16.3474 22.2983 16.3474C21.8297 16.4193 19.3412 17.6872 19.3412 17.6872C20.6054 17.6765 21.4492 18.4115 21.4492 18.4115C20.1296 19.027 18.7973 20.1928 18.7973 20.1928C20.8987 19.021 22.137 19.1036 22.137 19.1036C21.3079 19.5907 18.3402 22.4873 18.3402 22.4873L20.4615 21.8658L20.3462 23.6175C20.6428 22.5794 21.6984 21.7119 21.6984 21.7119C21.3812 23.2795 23.0174 26.8554 23.0174 26.8554C22.3482 24.3115 22.9954 23.0987 22.9954 23.0987C22.5555 21.4566 23.3733 19.9226 23.3733 19.9226C21.6225 21.2026 20.2422 21.3444 20.2422 21.3444C22.9554 19.2393 24.6768 16.8997 24.6768 16.8997L22.8647 17.3063C23.1567 16.3562 24.4582 15.3947 24.4582 15.3947C22.2663 16.0075 20.3309 16.0679 20.3309 16.0679L22.7788 15.1877L21.6878 15.1595L21.6871 15.1588Z" fill="#EF8621"/>
<path d="M43.8477 22.4719C43.0686 22.963 42.4201 23.1034 42.4201 23.1034C42.854 25.3873 43.5817 26.131 43.5817 26.131C42.8233 24.3834 43.8477 22.4712 43.8477 22.4712" fill="#EF8621"/>
<path d="M42.2023 23.4145C41.064 24.0743 41.322 24.5171 41.322 24.5171C42.1744 24.88 41.6845 25.7192 41.6845 25.7192C41.1047 26.6 40.6975 27.1765 40.4709 28.0782C40.2423 28.9806 41.2626 30.3002 41.2626 30.3002C40.4222 28.2549 41.4546 26.8943 41.4546 26.8943C41.1767 28.6117 41.262 28.9262 41.262 28.9262C43.2087 26.0457 42.2017 23.4139 42.2017 23.4139" fill="#EF8621"/>
<path d="M21.1299 15.056C20.2642 15.3201 18.9826 14.9418 18.9826 14.9418C21.0819 15.0789 23.5618 14.2209 23.5618 14.2209L19.9463 13.4354C17.8709 15.1441 15.7402 15.7689 15.7402 15.7689C17.681 16.0579 21.1292 15.0554 21.1292 15.0554" fill="#EF8621"/>
<path d="M41.094 17.2303C41.094 17.2303 41.4633 16.6868 40.7295 16.4583C40.7295 16.4583 41.9264 16.0881 42.2297 15.6608C42.2297 15.6608 40.099 13.985 38.5168 13.5906L38.7114 14.0146C38.7114 14.0146 37.3579 13.2983 35.8797 13.719C35.8797 13.719 37.3559 14.1255 37.6285 14.5682C37.6285 14.5682 35.933 13.811 34.74 14.2645C35.6424 14.6112 36.7494 15.1125 36.992 15.5701C36.992 15.5701 35.6811 14.5991 33.6437 14.2404L33.3851 14.9499C33.3851 14.9499 31.8902 12.9006 30.0668 12.2871C30.0668 12.2871 28.4013 14.2941 28.6333 15.9356C28.6333 15.9356 28.6832 16.3757 29.7096 16.113C29.7096 16.113 27.2404 17.5293 27.5716 20.9312C27.5716 20.9312 28.2727 18.6722 29.6736 17.6926C29.6736 17.6926 31.2531 19.3945 29.5783 21.8638C29.5783 21.8638 30.2434 22.8562 31.2751 22.9073C31.9722 22.9415 32.9313 23.3211 33.5224 24.3485C33.9909 24.1859 35.3238 23.8291 36.0056 24.7624C36.0056 24.7624 36.5795 24.5454 35.7404 23.2042C35.7404 23.2042 36.1309 22.6647 36.99 22.2857C36.99 22.2857 34.3795 20.5253 36.4868 19.8373C36.4868 19.8373 34.9186 21.7879 38.4835 22.7803C38.4835 22.7803 40.6768 23.5422 41.6332 21.298C41.6332 21.298 41.8378 20.5442 40.4349 20.4615C39.0307 20.3789 38.938 20.2472 38.9181 19.9267C38.9181 19.9267 39.016 19.7822 39.4159 19.9549C39.8191 20.1269 42.3976 20.4118 43.7366 19.7896C43.7366 19.7896 44.9215 19.2219 42.5349 17.7578C42.5349 17.7578 41.7498 17.1537 41.0927 17.231M34.1269 14.6831C34.1269 14.6831 37.1859 15.6782 36.4068 16.9804C35.6271 18.2805 32.4447 16.6431 32.3514 16.5719C32.3514 16.5719 34.4188 16.1983 34.1275 14.6838M30.6453 17.0798C30.6453 17.0798 30.0948 16.5497 29.9455 16.029C29.7962 15.5076 29.387 14.88 30.4414 13.1868L31.8703 14.5602L30.7286 13.8338C30.7286 13.8338 30.2861 14.7564 30.414 15.3154L31.0325 15.6493L31.0412 14.6489L32.4727 15.6708C32.4727 15.6708 31.6803 16.1916 30.9059 15.9779L30.6453 17.0805V17.0798ZM35.4471 19.4953C35.0972 19.8924 33.6624 19.586 32.8026 18.2933C32.8026 18.2933 34.1122 19.7412 35.5251 18.5647C35.5251 18.5647 35.7944 19.1009 35.4471 19.496M35.8883 19.068L35.6237 18.1273C35.6237 18.1273 34.0289 20.1686 32.2608 16.7627C32.2608 16.7627 34.9473 17.8915 35.9916 17.5858C35.9916 17.5858 36.5974 17.4232 36.8094 16.889C36.8094 16.889 36.9567 17.4003 37.1406 17.4218L37.9617 17.7248C37.9617 17.7248 36.6581 19.072 38.4882 19.4543C38.4882 19.4543 37.6564 20.0685 37.2079 18.9981C37.2079 18.9981 37.0166 18.5056 37.4938 17.9284C37.4938 17.9284 37.1773 17.7128 36.6834 17.9593C36.6834 17.9593 36.4755 18.9497 36.6541 19.5195L35.8883 19.0673V19.068ZM39.1313 20.6013C40.231 20.7471 41.8278 20.6826 41.1587 21.6555C40.4909 22.6291 39.4059 23.0833 37.4418 22.0781C37.4418 22.0781 36.5834 21.6716 36.4422 20.7894C36.4422 20.7894 36.7194 21.4801 37.2886 21.6468C37.2886 21.6468 36.4715 20.9843 36.6234 20.1605C36.6234 20.1605 36.8227 21.1146 37.7624 21.4761C37.7624 21.4761 36.892 20.8573 36.9313 19.9784C36.9313 19.9784 37.3879 20.9352 38.2503 21.3007C38.2503 21.3007 37.3945 20.5636 37.5312 20.0604C37.5312 20.0604 38.0323 20.4548 39.1313 20.6013ZM39.0887 14.0448C39.0887 14.0448 40.1677 14.3794 41.7932 15.6614C41.7932 15.6614 41.5072 16.0444 40.6282 16.3246C40.6282 16.3246 40.3436 14.8773 39.088 14.0448" fill="#EF8621"/>
<path d="M44.4148 17.7887C43.897 17.1356 43.3252 16.7136 43.3252 16.7136L43.8797 16.592L44.5588 16.4435C44.2795 16.4066 43.9503 16.285 43.6444 16.123V16.1217C43.1665 15.869 42.7487 15.5123 42.6934 15.1891C42.5994 14.6589 42.1702 14.1073 42.1702 14.1073L42.4181 14.0186L42.6054 13.9514C42.4108 13.7478 42.2222 13.5953 42.0382 13.4751C40.8932 12.7366 39.9335 13.4112 39.9335 13.4112C40.554 13.9333 41.8143 14.0851 42.1962 15.1226C42.5821 16.16 43.3012 16.377 43.3012 16.377C42.5847 16.0968 42.1615 16.3024 42.1615 16.3024L41.9036 16.9757C45.1952 18.3739 45.0013 20.7222 45.0013 20.7222C45.1093 20.5005 45.1673 20.2781 45.1959 20.0584C45.3112 19.1943 44.8907 18.3941 44.4155 17.7887" fill="#EF8621"/>
<path d="M36.9902 12.9496C38.0452 13.0047 39.4395 13.3756 39.4395 13.3756C39.5334 12.7279 39.1476 11.7328 39.1476 11.7328C38.3098 12.5626 36.9902 12.9496 36.9902 12.9496Z" fill="#EF8621"/>
<path d="M28.6864 11.4446C30.6711 10.8365 32.2539 11.4311 32.9697 12.3348C32.9697 12.3348 31.3829 11.5144 29.9313 11.8081L31.986 13.0222L33.215 14.3767L33.5829 14.069L34.4046 14.3129L34.4692 14.278L34.6012 14.2121C34.5519 14.194 34.5039 14.1752 34.4566 14.1584C34.5606 14.0489 34.7978 13.8735 35.3316 13.7405C35.3316 13.7405 35.369 13.3555 36.3267 13.1001C36.3267 13.1001 36.5953 12.529 37.2777 12.2307C37.9582 11.9337 38.31 11.6488 38.3807 11.5003C38.3807 11.5003 36.6246 11.4076 35.2103 13.1378L35.2037 12.6594C35.2037 12.6594 34.4659 13.2043 34.5126 12.6782C34.5126 12.6782 34.5159 11.7677 34.7725 11.4398C34.7725 11.4398 34.5272 12.656 34.9124 12.4927C34.9124 12.4927 35.4209 12.2172 35.7995 11.6105L35.4676 12.5532C35.4676 12.5532 36.194 11.634 37.331 11.2954C38.4687 10.9581 38.3507 11.2813 39.3677 10.7989C39.3677 10.7989 39.8422 12.2703 39.9255 12.8986C39.9255 12.8986 40.4361 12.8542 41.0245 12.1615C41.2165 11.9371 41.4191 11.6428 41.6117 11.2578L41.8429 10.7538C41.8429 10.7538 41.3744 11.2329 40.6706 11.7543C40.5307 11.8551 40.3881 11.9579 40.2328 12.0587C40.2328 12.0587 40.3554 11.8356 40.4847 11.54C40.6666 11.1335 40.8626 10.5879 40.7713 10.2943C40.7713 10.2943 40.2201 10.602 39.6596 10.2546C39.0991 9.90723 39.2471 9.36434 40.0015 8.9155C40.0015 8.9155 39.2611 8.78045 38.1688 9.33948C37.7596 9.54575 37.303 9.84811 36.8152 10.2969C36.8152 10.2969 37.1118 9.64385 37.8609 9.09692C38.3674 8.72804 39.0745 8.41023 40.0455 8.37193C40.0455 8.37193 38.9912 7.76117 37.341 8.69579C36.7512 9.02838 36.0874 9.55381 35.3656 10.3829L36.0727 8.72065C36.0727 8.72065 35.411 9.52223 35.1817 9.51619C34.9524 9.51014 34.7425 9.11237 34.6232 8.8725C34.6232 8.8725 34.3186 10.2324 34.0241 10.9346C34.0241 10.9346 34.3026 8.61785 32.8664 8.42904C32.8664 8.42904 31.1469 8.33229 29.3595 9.03376C29.3595 9.03376 30.1186 9.24138 29.5281 9.87565C28.939 10.5099 26.8323 11.0918 25.4627 10.5623C25.4627 10.5623 26.7003 12.0553 28.6864 11.4452" fill="#EF8621"/>
<path d="M39.3211 32.0189C39.3211 32.0189 36.6052 30.577 36.2513 27.024C36.2513 27.024 36.2333 25.869 35.8995 25.1165C35.8995 25.1165 35.8481 26.5134 34.124 28.2905C34.124 28.2905 35.2217 26.2802 35.1743 25.2381C35.129 24.2564 34.5312 24.4546 33.7288 24.7691C33.9014 25.1937 34.0187 25.7004 34.052 26.3104C34.052 26.3104 33.4595 24.3404 32.1406 23.9702C32.1406 23.9702 33.4869 25.703 33.3189 27.5938C33.1496 29.4852 32.5652 30.0503 33.8301 32.4651C33.8301 32.4651 33.7015 31.9511 33.6881 31.7764C33.6382 31.1428 33.8174 30.1873 33.8174 30.1873C34.0474 31.4075 34.5852 32.1217 34.5852 32.1217C34.224 29.7163 35.3763 28.4746 35.3763 28.4746C34.6818 30.8875 34.8844 32.4967 35.2537 33.4985C35.4063 33.907 35.5816 34.212 35.7415 34.4318C35.9634 34.7415 36.1447 34.8826 36.1447 34.8826C36.0934 34.7946 36.0541 34.6891 36.0188 34.5749C35.9901 34.4774 35.9668 34.3726 35.9481 34.2631C35.7168 32.8259 36.352 30.3056 36.352 30.3056C37.4103 34.4781 39.6723 33.9003 39.6723 33.9003C38.0861 32.9683 37.397 31.2153 37.397 31.2153C38.408 31.9968 39.3231 32.0183 39.3231 32.0183" fill="#EF8621"/>
<path d="M26.1768 20.3406C26.1768 20.3406 26.1508 19.5753 26.4314 18.5936C26.4314 18.5936 26.2821 20.442 26.9292 21.4781C26.9292 21.4781 26.3467 18.554 28.5814 16.6767C28.5814 16.6767 27.9289 16.5074 27.8623 16.3192C27.8256 16.2158 27.8023 15.4773 28.1582 14.4856C24.6166 14.8296 23.8055 16.8064 23.8055 16.8064C25.7063 15.5217 26.5933 15.8959 26.5933 15.8959C25.8242 16.1371 24.8878 17.0012 24.2207 17.9802C23.5516 18.9598 21.7715 20.5327 21.7715 20.5327C23.0304 19.9354 24.5513 18.5177 24.5513 18.5177C21.5042 22.7366 26.1781 27.9506 26.1781 27.9506C23.0051 23.3265 24.9312 19.9878 24.9312 19.9878C24.0201 26.2036 26.9339 26.3353 26.9339 26.3353C26.9339 26.3353 26.0901 25.3355 26.0162 23.7431C25.9429 22.15 26.6193 23.1733 26.1761 20.3412" fill="#EF8621"/>
<path d="M23.7186 14.4822C23.7186 14.4822 26.2578 12.9758 27.6347 13.0081C27.6347 13.0081 26.6737 13.6195 26.3365 13.7915C25.728 14.1053 25.2628 14.753 25.2628 14.753C26.5111 14.0818 27.8833 13.8903 28.3911 13.9225C28.3911 13.9225 29.0309 12.8119 29.932 11.8074C29.932 11.8074 26.0159 12.1238 23.7193 14.4822" fill="#EF8621"/>
<path d="M31.4182 23.3944C30.8424 23.5785 30.4785 23.5234 30.1226 23.2593C30.1226 23.2593 29.7161 25.7998 31.4162 28.0225C31.4162 28.0225 29.1056 25.5398 29.882 23.0181C29.5708 22.7581 29.3895 22.4819 29.3895 22.4819C28.0339 25.3617 31.6548 28.8691 31.6548 28.8691C31.6181 27.962 31.4095 26.9488 31.3022 26.2849C31.2236 25.7978 31.051 24.2773 31.051 24.2773C31.8854 25.7151 31.8787 27.4083 31.8787 27.4083C31.97 29.9092 32.9691 31.1461 32.9691 31.1461C32.5025 30.0926 32.7065 29.2218 32.8051 27.3123C32.9004 25.402 31.4182 23.3937 31.4182 23.3937" fill="#EF8621"/>
<path d="M18.7559 18.3081C18.7918 18.3249 18.8272 18.3417 18.8625 18.3591C18.8305 18.3423 18.7945 18.3255 18.7559 18.3081Z" fill="#055CA5"/>
<path d="M9.30313 17.8277C12.4202 16.1103 14.5595 16.6431 14.5595 16.6431C12.5928 15.5277 7.46304 15.2099 4.65524 15.9309C4.53395 16.1721 4.41665 16.4146 4.30469 16.6606C4.74588 16.5571 5.27505 16.4529 5.89353 16.3683C9.18716 15.9154 12.003 16.3548 12.003 16.3548C12.003 16.3548 9.64902 17.0852 8.06751 17.8901C6.62063 18.6272 6.20476 19.0687 6.20476 19.0687C13.4485 17.2794 17.6419 17.8196 18.7562 18.3081C14.3262 16.1862 8.28545 18.388 9.30313 17.8277Z" fill="#055CA5"/>
<path d="M37.7577 41.4122C35.4031 41.3826 33.0425 42.0774 33.0425 42.0774C32.3054 40.7006 30.8905 39.7096 29.5442 39.0276C27.8641 38.181 25.1469 38.1615 25.1469 38.1615C26.4279 32.1674 23.2549 28.6366 23.2549 28.6366C22.8243 27.9546 21.9566 26.9998 21.3475 26.3891C16.6303 22.2387 11.0047 23.09 8.13425 23.8325C8.13425 23.8325 9.59579 23.6927 10.7141 23.8936C11.9864 24.1247 13.1847 24.2417 13.1847 24.2417C10.6935 24.1436 6.05423 26.2829 2.30273 25.9987C2.30407 26.2077 2.30807 26.4166 2.3154 26.6262C4.88926 26.9071 8.63609 26.1895 11.0227 25.5861C16.8762 24.1046 20.4104 27.0758 21.9373 29.5645C25.2849 35.013 23.3075 39.168 23.3075 39.168C25.3735 39.0578 27.017 39.5067 28.304 40.1557C30.9078 41.4666 32.0175 43.5979 32.0175 43.5979C32.7732 43.6516 33.7696 43.522 34.6746 43.356C35.9369 43.1222 37.0199 42.8145 37.0199 42.8145C39.2965 42.2333 40.6181 42.6626 41.3885 43.2922C42.2863 44.0286 42.4336 45.0364 42.4336 45.0364C42.4276 44.1361 42.1903 43.4481 41.7958 42.9233C40.9427 41.7905 39.3512 41.4357 37.7577 41.4122Z" fill="#055CA5"/>
<path d="M30.0363 22.6922C30.2089 22.6996 29.9283 23.0578 29.9283 23.0578C29.9283 23.0578 29.8643 23.7203 29.885 24.2336" fill="#055CA5"/>
<path d="M47.3799 42.1076C47.3799 42.1076 48.0244 42.8265 49.4306 43.0227C50.8361 43.2176 51.0068 43.1517 51.2827 43.9271C51.5619 44.7119 50.9521 45.0284 50.9521 45.0284C50.9521 45.0284 50.3303 44.5063 49.3726 44.7549C48.4142 45.0028 47.4672 46.1787 45.0426 46.2721C42.6174 46.3655 41.793 45.8011 41.793 45.8011C41.793 45.8011 44.8307 46.43 46.3262 45.7191C47.8224 45.0075 48.7308 44.0689 49.6119 43.9963C50.4923 43.9224 50.7542 44.1898 50.7542 44.1898C50.7542 44.1898 50.5602 43.4776 49.036 43.3016C47.961 43.178 47.3799 42.1076 47.3799 42.1076Z" fill="#055CA5"/>
</g>
<defs>
<clipPath id="clip0_1188_5189">
<rect width="186" height="49" fill="white"/>
</clipPath>
</defs>
</svg>
