<svg width="28" height="28" viewBox="0 0 28 28" fill="none" xmlns="http://www.w3.org/2000/svg">
<path d="M2.40743 2.51807C0.317892 4.68806 0.745549 6.99319 0.745549 13.9961C0.745549 19.8115 -0.269305 25.6413 5.04206 27.0138C6.70061 27.4402 21.396 27.4402 23.0524 27.0116C25.2638 26.4411 27.0631 24.6477 27.309 21.5207C27.3434 21.0843 27.3434 6.91565 27.3079 6.47035C27.0464 3.13949 24.9957 1.21985 22.2935 0.831044C21.6741 0.74132 21.55 0.714735 18.3725 0.709197C7.10168 0.714735 4.63102 0.212946 2.40743 2.51807Z" fill="url(#paint0_linear_2596_24967)"/>
<path d="M14.0365 4.18782C10.0137 4.18782 6.19359 3.83003 4.73446 7.57406C4.13175 9.12041 4.21928 11.1287 4.21928 14.0043C4.21928 16.5276 4.1384 18.8992 4.73446 20.4334C6.19027 24.1796 10.0414 23.8207 14.0343 23.8207C17.8866 23.8207 21.8585 24.2217 23.3353 20.4334C23.9391 18.8715 23.8505 16.8932 23.8505 14.0043C23.8505 10.1694 24.0621 7.69369 22.2019 5.83497C20.3184 3.95188 17.7713 4.18782 14.0321 4.18782H14.0365ZM13.1569 5.95682C21.5482 5.94352 22.6163 5.01084 22.0269 17.9676C21.8175 22.5502 18.3275 22.0473 14.0377 22.0473C6.21575 22.0473 5.99084 21.8235 5.99084 13.9998C5.99084 6.08531 6.61127 5.96125 13.1569 5.9546V5.95682ZM19.277 7.58625C18.9647 7.58625 18.6651 7.7103 18.4442 7.93112C18.2234 8.15195 18.0993 8.45144 18.0993 8.76373C18.0993 9.07602 18.2234 9.37552 18.4442 9.59634C18.6651 9.81716 18.9647 9.94122 19.277 9.94122C19.5894 9.94122 19.8889 9.81716 20.1098 9.59634C20.3306 9.37552 20.4547 9.07602 20.4547 8.76373C20.4547 8.45144 20.3306 8.15195 20.1098 7.93112C19.8889 7.7103 19.5894 7.58625 19.277 7.58625ZM14.0365 8.96312C13.3745 8.96319 12.7189 9.09364 12.1073 9.34702C11.4956 9.6004 10.9399 9.97175 10.4718 10.4399C9.52639 11.3853 8.99537 12.6674 8.99552 14.0043C8.99566 15.3411 9.52697 16.6232 10.4726 17.5683C11.4181 18.5135 12.7005 19.0445 14.0377 19.0443C15.3748 19.0442 16.6571 18.513 17.6024 17.5676C18.5478 16.6222 19.0788 15.34 19.0787 14.0032C19.0785 12.6663 18.5472 11.3843 17.6016 10.4391C16.6561 9.49389 15.3737 8.96297 14.0365 8.96312ZM14.0365 10.7321C18.363 10.7321 18.3685 17.2764 14.0365 17.2764C9.71123 17.2764 9.70458 10.7321 14.0365 10.7321Z" fill="white"/>
<defs>
<linearGradient id="paint0_linear_2596_24967" x1="2.45841" y1="25.596" x2="27.1669" y2="4.20692" gradientUnits="userSpaceOnUse">
<stop stop-color="#FFDD55"/>
<stop offset="0.5" stop-color="#FF543E"/>
<stop offset="1" stop-color="#C837AB"/>
</linearGradient>
</defs>
</svg>
