<svg width="32" height="32" viewBox="0 0 32 32" fill="none" xmlns="http://www.w3.org/2000/svg">
<rect x="2.66797" y="2.66669" width="26.6667" height="26.6667" rx="2.66667" fill="white"/>
<rect x="2.66797" y="2.66669" width="26.6667" height="26.6667" rx="1.33333" fill="white"/>
<path d="M27.3661 2.66669H4.63649C4.1144 2.66669 3.6137 2.87408 3.24453 3.24325C2.87537 3.61242 2.66797 4.11312 2.66797 4.63521V27.3648C2.66797 27.8869 2.87537 28.3876 3.24453 28.7568C3.6137 29.126 4.1144 29.3334 4.63649 29.3334H27.3661C27.8882 29.3334 28.3889 29.126 28.7581 28.7568C29.1272 28.3876 29.3346 27.8869 29.3346 27.3648V4.63521C29.3346 4.11312 29.1272 3.61242 28.7581 3.24325C28.3889 2.87408 27.8882 2.66669 27.3661 2.66669ZM10.6161 25.3834H6.60686V12.6482H10.6161V25.3834ZM8.60871 10.8834C8.15393 10.8808 7.7101 10.7436 7.33323 10.489C6.95636 10.2344 6.66335 9.87394 6.49117 9.45301C6.31899 9.03207 6.27536 8.56957 6.36578 8.12386C6.45621 7.67815 6.67664 7.26922 6.99925 6.94867C7.32187 6.62812 7.73221 6.41032 8.17849 6.32275C8.62477 6.23519 9.08698 6.28179 9.5068 6.45667C9.92663 6.63155 10.2852 6.92687 10.5374 7.30537C10.7895 7.68386 10.9239 8.12857 10.9235 8.58335C10.9278 8.88784 10.8708 9.19006 10.7558 9.47203C10.6408 9.75399 10.4702 10.0099 10.2542 10.2245C10.0381 10.4392 9.78113 10.6081 9.49844 10.7213C9.21575 10.8345 8.91316 10.8896 8.60871 10.8834ZM25.3939 25.3945H21.3865V18.4371C21.3865 16.3852 20.5143 15.7519 19.3883 15.7519C18.1995 15.7519 17.0328 16.6482 17.0328 18.4889V25.3945H13.0235V12.6574H16.8791V14.4222H16.9309C17.318 13.6389 18.6735 12.3 20.742 12.3C22.9791 12.3 25.3957 13.6278 25.3957 17.5167L25.3939 25.3945Z" fill="#0A66C2"/>
</svg>
