<svg width="32" height="32" viewBox="0 0 32 32" fill="none" xmlns="http://www.w3.org/2000/svg">
<circle cx="16.0013" cy="16" r="13.3333" fill="white"/>
<circle cx="16.0013" cy="16" r="13.3333" fill="white"/>
<path d="M29.3346 16C29.3346 8.63622 23.3651 2.66669 16.0013 2.66669C8.6375 2.66669 2.66797 8.63622 2.66797 16C2.66797 22.655 7.54375 28.1711 13.918 29.1714V19.8542H10.5326V16H13.918V13.0625C13.918 9.72085 15.9086 7.87502 18.9542 7.87502C20.4125 7.87502 21.9388 8.13544 21.9388 8.13544V11.4167H20.2576C18.6013 11.4167 18.0846 12.4446 18.0846 13.5V16H21.7826L21.1914 19.8542H18.0846V29.1714C24.4589 28.1711 29.3346 22.655 29.3346 16Z" fill="#1877F2"/>
</svg>
