<svg width="29" height="28" viewBox="0 0 29 28" fill="none" xmlns="http://www.w3.org/2000/svg">
<g filter="url(#filter0_d_2633_8955)">
<path d="M7.9987 21.9998V2.5511L7.19136 2.01044C3.7587 3.38844 1.33203 6.7411 1.33203 10.6664V17.3331C1.33203 22.4878 5.5107 26.6664 10.6654 26.6664H17.332C20.48 26.6664 23.254 25.1011 24.9434 22.7124V21.9998H7.9987Z" fill="#2962FF"/>
<path d="M17.332 1.33331H10.6654C9.43536 1.33331 8.2647 1.57731 7.18936 2.00931C4.96736 4.16665 3.33203 7.68531 3.33203 10.6666C3.33203 15.1806 3.95603 17.8233 5.8067 20.4046C5.9507 20.6053 6.0447 20.84 6.05736 21.086C6.08603 21.6426 5.97136 22.6626 4.96803 23.5806C4.86003 23.6793 4.9287 23.86 5.0747 23.866C5.7027 23.8933 6.97003 23.8566 8.2727 23.2813C8.64403 23.1173 9.0667 23.146 9.42536 23.3366C11.634 24.5093 14.2207 24.6666 16.6654 24.6666C19.7827 24.6666 22.8914 23.9733 24.9434 22.7226C26.024 21.1993 26.6654 19.3426 26.6654 17.3333V10.6666C26.6654 5.51198 22.4867 1.33331 17.332 1.33331Z" fill="white"/>
<path d="M22.5 16C21.122 16 20 14.878 20 13.5C20 12.122 21.122 11 22.5 11C23.878 11 25 12.122 25 13.5C25 14.878 23.878 16 22.5 16ZM22.5 12C21.6733 12 21 12.6733 21 13.5C21 14.3267 21.6733 15 22.5 15C23.3267 15 24 14.3267 24 13.5C24 12.6733 23.3267 12 22.5 12Z" fill="#2962FF"/>
<path d="M19 16H18.3333C18.1493 16 18 15.8507 18 15.6667V10H19V16Z" fill="#2962FF"/>
<path d="M16 11.1667V11.5127C15.5807 11.1953 15.0647 11 14.5 11C13.122 11 12 12.122 12 13.5C12 14.878 13.122 16 14.5 16C15.0647 16 15.5807 15.8047 16 15.4873V15.6667C16 15.8507 16.1493 16 16.3333 16H17V11.1667H16ZM14.5 15C13.6733 15 13 14.3267 13 13.5C13 12.6733 13.6733 12 14.5 12C15.3267 12 16 12.6733 16 13.5C16 14.3267 15.3267 15 14.5 15Z" fill="#2962FF"/>
<path d="M12.1667 10H6.83333V11H10.3807L6.66667 15.3333H6.684C6.57533 15.474 6.5 15.642 6.5 15.8333V16H11.5C11.684 16 11.8333 15.8507 11.8333 15.6667V15H8.286L12 10.6667H11.9827C12.0913 10.526 12.1667 10.358 12.1667 10.1667V10Z" fill="#2962FF"/>
</g>
<defs>
<filter id="filter0_d_2633_8955" x="0.665365" y="-2.03848e-05" width="27.9987" height="27.9997" filterUnits="userSpaceOnUse" color-interpolation-filters="sRGB">
<feFlood flood-opacity="0" result="BackgroundImageFix"/>
<feColorMatrix in="SourceAlpha" type="matrix" values="0 0 0 0 0 0 0 0 0 0 0 0 0 0 0 0 0 0 127 0" result="hardAlpha"/>
<feOffset dx="0.666667"/>
<feGaussianBlur stdDeviation="0.666667"/>
<feComposite in2="hardAlpha" operator="out"/>
<feColorMatrix type="matrix" values="0 0 0 0 0 0 0 0 0 0 0 0 0 0 0 0 0 0 0.15 0"/>
<feBlend mode="normal" in2="BackgroundImageFix" result="effect1_dropShadow_2633_8955"/>
<feBlend mode="normal" in="SourceGraphic" in2="effect1_dropShadow_2633_8955" result="shape"/>
</filter>
</defs>
</svg>
