<svg width="32" height="33" viewBox="0 0 32 33" fill="none" xmlns="http://www.w3.org/2000/svg">
<circle cx="16" cy="16.016" r="13.3333" fill="white"/>
<circle cx="16" cy="16.016" r="13.3333" fill="white"/>
<path d="M29.3333 16.016C29.3333 8.65215 23.3638 2.68262 16 2.68262C8.63616 2.68262 2.66663 8.65215 2.66663 16.016C2.66663 22.6709 7.54241 28.187 13.9166 29.1873V19.8701H10.5312V16.016H13.9166V13.0785C13.9166 9.73678 15.9073 7.89095 18.9528 7.89095C20.4112 7.89095 21.9375 8.15137 21.9375 8.15137V11.4326H20.2562C18.6 11.4326 18.0833 12.4605 18.0833 13.516V16.016H21.7812L21.1901 19.8701H18.0833V29.1873C24.4575 28.187 29.3333 22.6709 29.3333 16.016Z" fill="#1877F2"/>
</svg>
