<svg width="32" height="33" viewBox="0 0 32 33" fill="none" xmlns="http://www.w3.org/2000/svg">
<path d="M16.0343 3H15.975C8.79197 3 2.96899 8.82469 2.96899 16.0098V16.0692C2.96899 23.2543 8.79197 29.079 15.975 29.079H16.0343C23.2173 29.079 29.0403 23.2543 29.0403 16.0692V16.0098C29.0403 8.82469 23.2173 3 16.0343 3Z" fill="black"/>
<path d="M22.6146 13.3576V15.82C22.1844 15.7779 21.6254 15.6802 21.007 15.4536C20.1996 15.1575 19.5986 14.7528 19.2049 14.4394V19.4162L19.1948 19.4006C19.2012 19.4993 19.2049 19.5998 19.2049 19.7012C19.2049 22.1727 17.1945 24.1846 14.7228 24.1846C12.2511 24.1846 10.2407 22.1727 10.2407 19.7012C10.2407 17.2298 12.2511 15.2169 14.7228 15.2169C14.9649 15.2169 15.2023 15.2361 15.4343 15.2736V17.7003C15.2115 17.6208 14.9722 17.5779 14.7228 17.5779C13.5527 17.5779 12.6 18.5299 12.6 19.7012C12.6 20.8726 13.5527 21.8246 14.7228 21.8246C15.8929 21.8246 16.8456 20.8717 16.8456 19.7012C16.8456 19.6574 16.8446 19.6135 16.8419 19.5697V9.89844H19.3017C19.3108 10.1068 19.3191 10.3169 19.3282 10.5252C19.3446 10.9355 19.4908 11.3293 19.7456 11.6518C20.0443 12.031 20.4855 12.4713 21.1048 12.8231C21.6848 13.152 22.2292 13.2927 22.6146 13.3594V13.3576Z" fill="#FF004F"/>
<path d="M21.7688 11.3575V13.8198C21.3386 13.7778 20.7796 13.68 20.1612 13.4534C19.3537 13.1574 18.7527 12.7527 18.359 12.4393V17.416L18.349 17.4005C18.3554 17.4992 18.359 17.5997 18.359 17.7011C18.359 20.1726 16.3486 22.1845 13.877 22.1845C11.4053 22.1845 9.3949 20.1726 9.3949 17.7011C9.3949 15.2296 11.4053 13.2168 13.877 13.2168C14.119 13.2168 14.3565 13.236 14.5885 13.2735V15.7002C14.3656 15.6207 14.1263 15.5777 13.877 15.5777C12.7069 15.5777 11.7542 16.5298 11.7542 17.7011C11.7542 18.8724 12.7069 19.8245 13.877 19.8245C15.047 19.8245 15.9997 18.8715 15.9997 17.7011C15.9997 17.6573 15.9988 17.6134 15.9961 17.5695V7.89648H18.4559C18.465 8.1048 18.4732 8.31495 18.4824 8.52326C18.4988 8.9335 18.6449 9.3273 18.8998 9.64982C19.1985 10.029 19.6396 10.4694 20.2589 10.8212C20.8389 11.1492 21.3833 11.2908 21.7688 11.3575Z" fill="#00F7EF"/>
<path d="M22.3068 12.4338V14.8961C21.8765 14.8541 21.3175 14.7563 20.6992 14.5297C19.8917 14.2337 19.2907 13.829 18.897 13.5156V18.4923L18.887 18.4768C18.8934 18.5755 18.897 18.676 18.897 18.7774C18.897 21.2489 16.8866 23.2608 14.4149 23.2608C11.9433 23.2608 9.93286 21.2489 9.93286 18.7774C9.93286 16.3059 11.9433 14.2931 14.4149 14.2931C14.657 14.2931 14.8945 14.3123 15.1265 14.3498V16.7765C14.9036 16.697 14.6643 16.654 14.4149 16.654C13.2449 16.654 12.2922 17.6061 12.2922 18.7774C12.2922 19.9487 13.2449 20.9008 14.4149 20.9008C15.585 20.9008 16.5377 19.9478 16.5377 18.7774C16.5377 18.7336 16.5368 18.6897 16.534 18.6458V8.97461H18.9938C19.003 9.18293 19.0112 9.39307 19.0203 9.60139C19.0368 10.0116 19.1829 10.4054 19.4377 10.7279C19.7364 11.1071 20.1776 11.5475 20.7969 11.8993C21.3769 12.2273 21.9213 12.3689 22.3068 12.4356V12.4338Z" fill="white"/>
</svg>
