<svg width="32" height="33" viewBox="0 0 32 33" fill="none" xmlns="http://www.w3.org/2000/svg">
<g filter="url(#filter0_d_1188_6100)">
<path d="M10 24.0157V4.56703L9.19271 4.02637C5.76004 5.40437 3.33337 8.75703 3.33337 12.6824V19.349C3.33337 24.5037 7.51204 28.6824 12.6667 28.6824H19.3334C22.4814 28.6824 25.2554 27.117 26.9447 24.7284V24.0157H10Z" fill="#2962FF"/>
<path d="M19.3334 3.34863H12.6667C11.4367 3.34863 10.266 3.59263 9.19071 4.02463C6.96871 6.18197 5.33337 9.70063 5.33337 12.682C5.33337 17.196 5.95737 19.8386 7.80804 22.42C7.95204 22.6206 8.04604 22.8553 8.05871 23.1013C8.08737 23.658 7.97271 24.678 6.96937 25.596C6.86137 25.6946 6.93004 25.8753 7.07604 25.8813C7.70404 25.9086 8.97137 25.872 10.274 25.2966C10.6454 25.1326 11.068 25.1613 11.4267 25.352C13.6354 26.5246 16.222 26.682 18.6667 26.682C21.784 26.682 24.8927 25.9886 26.9447 24.738C28.0254 23.2146 28.6667 21.358 28.6667 19.3486V12.682C28.6667 7.5273 24.488 3.34863 19.3334 3.34863Z" fill="white"/>
<path d="M24.5 18.0156C23.122 18.0156 22 16.8936 22 15.5156C22 14.1376 23.122 13.0156 24.5 13.0156C25.878 13.0156 27 14.1376 27 15.5156C27 16.8936 25.878 18.0156 24.5 18.0156ZM24.5 14.0156C23.6733 14.0156 23 14.689 23 15.5156C23 16.3423 23.6733 17.0156 24.5 17.0156C25.3267 17.0156 26 16.3423 26 15.5156C26 14.689 25.3267 14.0156 24.5 14.0156Z" fill="#2962FF"/>
<path d="M21 18.0156H20.3333C20.1493 18.0156 20 17.8663 20 17.6823V12.0156H21V18.0156Z" fill="#2962FF"/>
<path d="M18 13.1823V13.5283C17.5807 13.211 17.0647 13.0156 16.5 13.0156C15.122 13.0156 14 14.1376 14 15.5156C14 16.8936 15.122 18.0156 16.5 18.0156C17.0647 18.0156 17.5807 17.8203 18 17.503V17.6823C18 17.8663 18.1493 18.0156 18.3333 18.0156H19V13.1823H18ZM16.5 17.0156C15.6733 17.0156 15 16.3423 15 15.5156C15 14.689 15.6733 14.0156 16.5 14.0156C17.3267 14.0156 18 14.689 18 15.5156C18 16.3423 17.3267 17.0156 16.5 17.0156Z" fill="#2962FF"/>
<path d="M14.1667 12.0156H8.83333V13.0156H12.3807L8.66667 17.349H8.684C8.57533 17.4896 8.5 17.6576 8.5 17.849V18.0156H13.5C13.684 18.0156 13.8333 17.8663 13.8333 17.6823V17.0156H10.286L14 12.6823H13.9827C14.0913 12.5416 14.1667 12.3736 14.1667 12.1823V12.0156Z" fill="#2962FF"/>
</g>
<defs>
<filter id="filter0_d_1188_6100" x="2.66671" y="2.0153" width="28" height="28.0007" filterUnits="userSpaceOnUse" color-interpolation-filters="sRGB">
<feFlood flood-opacity="0" result="BackgroundImageFix"/>
<feColorMatrix in="SourceAlpha" type="matrix" values="0 0 0 0 0 0 0 0 0 0 0 0 0 0 0 0 0 0 127 0" result="hardAlpha"/>
<feOffset dx="0.666667"/>
<feGaussianBlur stdDeviation="0.666667"/>
<feComposite in2="hardAlpha" operator="out"/>
<feColorMatrix type="matrix" values="0 0 0 0 0 0 0 0 0 0 0 0 0 0 0 0 0 0 0.15 0"/>
<feBlend mode="normal" in2="BackgroundImageFix" result="effect1_dropShadow_1188_6100"/>
<feBlend mode="normal" in="SourceGraphic" in2="effect1_dropShadow_1188_6100" result="shape"/>
</filter>
</defs>
</svg>
