<svg width="32" height="33" viewBox="0 0 32 33" fill="none" xmlns="http://www.w3.org/2000/svg">
<path d="M28.7757 9.61595C28.625 9.04863 28.3278 8.53086 27.9141 8.11446C27.5003 7.69805 26.9845 7.39762 26.4181 7.24322C24.3333 6.68262 16 6.68262 16 6.68262C16 6.68262 7.66663 6.68262 5.58178 7.24322C5.01544 7.39762 4.49958 7.69805 4.08583 8.11446C3.67209 8.53086 3.37497 9.04863 3.2242 9.61595C2.66663 11.7099 2.66663 16.0766 2.66663 16.0766C2.66663 16.0766 2.66663 20.4432 3.2242 22.5372C3.37497 23.1045 3.67209 23.6222 4.08583 24.0387C4.49958 24.4551 5.01544 24.7555 5.58178 24.9099C7.66663 25.4705 16 25.4705 16 25.4705C16 25.4705 24.3333 25.4705 26.4181 24.9099C26.9845 24.7555 27.5003 24.4551 27.9141 24.0387C28.3278 23.6222 28.625 23.1045 28.7757 22.5372C29.3333 20.4432 29.3333 16.0766 29.3333 16.0766C29.3333 16.0766 29.3333 11.7099 28.7757 9.61595Z" fill="#FF0302"/>
<path d="M13.2726 20.0407V12.1104L20.2423 16.0755L13.2726 20.0407Z" fill="#FEFEFE"/>
</svg>
