<svg width="43" height="42" viewBox="0 0 43 42" fill="none" xmlns="http://www.w3.org/2000/svg">
<path d="M1.5 21C1.76268 27.387 5.89521 39.884 20.0998 40.9556C20.936 41.0187 21.3541 41.0502 21.4741 40.7968C21.594 40.5433 21.2918 40.2494 20.6875 39.6616L17.975 37.0234" stroke="#141B34" stroke-width="1.5" stroke-linecap="round"/>
<path d="M41.5 21.0002C41.2373 14.6132 37.1048 2.11619 22.9002 1.04457C22.064 0.981477 21.6459 0.949935 21.5259 1.2034C21.406 1.45686 21.7082 1.75077 22.3125 2.33858L25.025 4.97676" stroke="#141B34" stroke-width="1.5" stroke-linecap="round"/>
<path d="M13.6517 23.8917C10.9256 21.1656 9.56256 19.8025 9.50207 18.1692C9.44158 16.5359 10.7073 15.2702 13.2387 12.7388C15.77 10.2075 17.0357 8.94176 18.669 9.00225C20.3023 9.06275 21.6654 10.4258 24.3915 13.1519L29.3483 18.1087C32.0744 20.8348 33.4374 22.1979 33.4979 23.8312C33.5584 25.4645 32.2927 26.7301 29.7613 29.2615C27.23 31.7929 25.9643 33.0586 24.331 32.9981C22.6977 32.9376 21.3346 31.5746 18.6085 28.8485L13.6517 23.8917Z" stroke="#141B34" stroke-width="1.5" stroke-linecap="round"/>
</svg>
