<svg width="12" height="14" viewBox="0 0 12 14" fill="none" xmlns="http://www.w3.org/2000/svg">
<path d="M11.2707 4.7175C11.2169 4.60269 11.1315 4.50558 11.0246 4.43757C10.9176 4.36956 10.7934 4.33345 10.6667 4.3335H7.74533L9.26267 1.29816C9.31344 1.19655 9.33741 1.08365 9.3323 0.970167C9.32719 0.856688 9.29317 0.746397 9.23346 0.649759C9.17376 0.553121 9.09035 0.473342 8.99115 0.417992C8.89196 0.362642 8.78026 0.333557 8.66667 0.333496H4.66667C4.54782 0.333491 4.43113 0.365258 4.32868 0.425506C4.22624 0.485754 4.14176 0.572294 4.084 0.676163L0.750667 6.67616C0.694234 6.77764 0.665285 6.89211 0.666688 7.00822C0.668091 7.12432 0.699795 7.23805 0.758663 7.33814C0.817531 7.43823 0.901521 7.52121 1.00232 7.57886C1.10311 7.63651 1.21722 7.66683 1.33333 7.66683H4.502L3.34933 12.8555C3.31705 13.0013 3.33469 13.1538 3.3994 13.2884C3.46412 13.423 3.57217 13.532 3.70623 13.5979C3.84029 13.6638 3.99258 13.6827 4.1387 13.6517C4.28481 13.6207 4.41627 13.5415 4.512 13.4268L11.1787 5.42683C11.2598 5.32955 11.3116 5.21117 11.3279 5.08555C11.3441 4.95992 11.3243 4.83225 11.2707 4.7175Z" fill="white"/>
</svg>
