<svg width="16" height="17" viewBox="0 0 16 17" fill="none" xmlns="http://www.w3.org/2000/svg">
<path d="M7.38821 2.82501C7.61981 2.28831 8.38082 2.28831 8.61242 2.82501L10.0658 6.19293C10.1638 6.42019 10.3797 6.57441 10.6265 6.59348L14.3536 6.88147C14.9516 6.92768 15.1892 7.67839 14.7267 8.06025L11.9238 10.3744C11.7261 10.5377 11.6395 10.7998 11.7011 11.0487L12.5637 14.5342C12.7056 15.1074 12.0872 15.5685 11.5784 15.2689L8.33853 13.3616C8.12979 13.2387 7.87083 13.2387 7.6621 13.3616L4.42227 15.2689C3.91341 15.5685 3.29506 15.1074 3.43692 14.5342L4.29954 11.0487C4.36113 10.7998 4.27455 10.5377 4.07685 10.3744L1.27392 8.06025C0.811418 7.67839 1.04902 6.92768 1.64701 6.88147L5.37411 6.59348C5.62089 6.57441 5.83679 6.42019 5.93486 6.19293L7.38821 2.82501Z" fill="#FFD166"/>
</svg>
