<svg width="24" height="25" viewBox="0 0 24 25" fill="none" xmlns="http://www.w3.org/2000/svg">
<circle cx="12" cy="12.3594" r="10" stroke="white" stroke-width="1.5"/>
<path d="M9 15.6094C8.58579 15.6094 8.25 15.9452 8.25 16.3594C8.25 16.7736 8.58579 17.1094 9 17.1094V15.6094ZM15 17.1094C15.4142 17.1094 15.75 16.7736 15.75 16.3594C15.75 15.9452 15.4142 15.6094 15 15.6094V17.1094ZM14.5567 11.9903C14.8343 11.6828 14.81 11.2086 14.5025 10.931C14.195 10.6535 13.7208 10.6778 13.4433 10.9852L14.5567 11.9903ZM13.0607 12.5285L13.6174 13.031L13.6174 13.031L13.0607 12.5285ZM10.9393 12.5285L10.3826 13.031L10.9393 12.5285ZM10.5567 10.9852C10.2792 10.6778 9.80496 10.6535 9.49747 10.931C9.18999 11.2086 9.16572 11.6828 9.44325 11.9903L10.5567 10.9852ZM12.75 7.35938C12.75 6.94516 12.4142 6.60938 12 6.60938C11.5858 6.60938 11.25 6.94516 11.25 7.35938H12.75ZM9 16.3594V17.1094H15V16.3594V15.6094H9V16.3594ZM14 11.4878L13.4433 10.9852L12.5039 12.0259L13.0607 12.5285L13.6174 13.031L14.5567 11.9903L14 11.4878ZM10.9393 12.5285L11.4961 12.0259L10.5567 10.9852L10 11.4878L9.44325 11.9903L10.3826 13.031L10.9393 12.5285ZM13.0607 12.5285L12.5039 12.0259C12.2393 12.3191 12.091 12.4809 11.9752 12.5789C11.8727 12.6655 11.9007 12.6094 12 12.6094V13.3594V14.1094C12.41 14.1094 12.7183 13.9148 12.9435 13.7244C13.1553 13.5454 13.382 13.2917 13.6174 13.031L13.0607 12.5285ZM10.9393 12.5285L10.3826 13.031C10.618 13.2917 10.8447 13.5454 11.0565 13.7244C11.2817 13.9148 11.59 14.1094 12 14.1094V13.3594V12.6094C12.0993 12.6094 12.1273 12.6655 12.0248 12.5789C11.909 12.4809 11.7607 12.3191 11.4961 12.0259L10.9393 12.5285ZM12 13.3594H12.75V7.35938H12H11.25V13.3594H12Z" fill="white"/>
</svg>
